<?xml version="1.0" encoding="UTF-8"?>
<svg xmlns="http://www.w3.org/2000/svg" xmlns:xlink="http://www.w3.org/1999/xlink" width="326.827087" height="244.474996" viewBox="0 0 326.827087 244.474996" version="1.1">
<defs>
<clipPath id="clip1">
  <path d="M 164 9.601562 L 317.226562 9.601562 L 317.226562 149 L 164 149 Z M 164 9.601562 "/>
</clipPath>
<clipPath id="clip2">
  <path d="M 116 9.601562 L 317.226562 9.601562 L 317.226562 188 L 116 188 Z M 116 9.601562 "/>
</clipPath>
<clipPath id="clip3">
  <path d="M 80 9.601562 L 182 9.601562 L 182 194.398438 L 80 194.398438 Z M 80 9.601562 "/>
</clipPath>
<clipPath id="clip4">
  <path d="M 56.828125 95 L 130 95 L 130 194.398438 L 56.828125 194.398438 Z M 56.828125 95 "/>
</clipPath>
<clipPath id="clip5">
  <path d="M 56.828125 155 L 91 155 L 91 194.398438 L 56.828125 194.398438 Z M 56.828125 155 "/>
</clipPath>
<clipPath id="clip6">
  <path d="M 56.828125 192 L 59 192 L 59 194.398438 L 56.828125 194.398438 Z M 56.828125 192 "/>
</clipPath>
</defs>
<g id="surface1">
<path style=" stroke:none;fill-rule:nonzero;fill:rgb(100%,100%,100%);fill-opacity:1;" d="M 0 244.476562 L 326.828125 244.476562 L 326.828125 0 L 0 0 Z M 0 244.476562 "/>
<path style=" stroke:none;fill-rule:nonzero;fill:rgb(100%,100%,100%);fill-opacity:1;" d="M 56.828125 194.398438 L 317.226562 194.398438 L 317.226562 9.601562 L 56.828125 9.601562 Z M 56.828125 194.398438 "/>
<path style="fill:none;stroke-width:0.8;stroke-linecap:butt;stroke-linejoin:round;stroke:rgb(0%,0%,0%);stroke-opacity:1;stroke-miterlimit:4;" d="M 0.000778198 -0.00117493 L 0.000778198 3.499802 " transform="matrix(1.333333,0,0,1.333333,117.858337,194.400004)"/>
<path style=" stroke:none;fill-rule:nonzero;fill:rgb(0%,0%,0%);fill-opacity:1;" d="M 109.441406 209.132812 L 117.789062 209.132812 L 117.789062 210.238281 L 109.441406 210.238281 Z M 109.441406 209.132812 "/>
<path style=" stroke:none;fill-rule:nonzero;fill:rgb(0%,0%,0%);fill-opacity:1;" d="M 124.242188 205.289062 L 120.921875 210.480469 L 124.242188 210.480469 Z M 123.894531 204.144531 L 125.550781 204.144531 L 125.550781 210.480469 L 126.9375 210.480469 L 126.9375 211.574219 L 125.550781 211.574219 L 125.550781 213.863281 L 124.242188 213.863281 L 124.242188 211.574219 L 119.855469 211.574219 L 119.855469 210.304688 Z M 123.894531 204.144531 "/>
<path style="fill:none;stroke-width:0.8;stroke-linecap:butt;stroke-linejoin:round;stroke:rgb(0%,0%,0%);stroke-opacity:1;stroke-miterlimit:4;" d="M 0.000778198 -0.00117493 L 0.000778198 3.499802 " transform="matrix(1.333333,0,0,1.333333,199.233337,194.400004)"/>
<path style=" stroke:none;fill-rule:nonzero;fill:rgb(0%,0%,0%);fill-opacity:1;" d="M 190.816406 209.132812 L 199.164062 209.132812 L 199.164062 210.238281 L 190.816406 210.238281 Z M 190.816406 209.132812 "/>
<path style=" stroke:none;fill-rule:nonzero;fill:rgb(0%,0%,0%);fill-opacity:1;" d="M 203.136719 212.757812 L 207.726562 212.757812 L 207.726562 213.863281 L 201.554688 213.863281 L 201.554688 212.757812 C 202.054688 212.242188 202.734375 211.546875 203.59375 210.679688 C 204.457031 209.808594 204.996094 209.246094 205.21875 208.992188 C 205.640625 208.523438 205.933594 208.121094 206.101562 207.792969 C 206.269531 207.464844 206.351562 207.144531 206.351562 206.828125 C 206.351562 206.308594 206.171875 205.890625 205.808594 205.566406 C 205.445312 205.238281 204.972656 205.074219 204.390625 205.074219 C 203.980469 205.074219 203.542969 205.148438 203.085938 205.289062 C 202.628906 205.433594 202.140625 205.648438 201.617188 205.941406 L 201.617188 204.613281 C 202.148438 204.398438 202.640625 204.238281 203.101562 204.132812 C 203.5625 204.023438 203.984375 203.96875 204.367188 203.96875 C 205.375 203.96875 206.175781 204.222656 206.773438 204.726562 C 207.375 205.226562 207.671875 205.898438 207.671875 206.742188 C 207.671875 207.140625 207.597656 207.519531 207.449219 207.878906 C 207.300781 208.234375 207.027344 208.65625 206.632812 209.144531 C 206.523438 209.269531 206.179688 209.632812 205.597656 210.234375 C 205.015625 210.835938 204.195312 211.679688 203.136719 212.757812 Z M 203.136719 212.757812 "/>
<path style="fill:none;stroke-width:0.8;stroke-linecap:butt;stroke-linejoin:round;stroke:rgb(0%,0%,0%);stroke-opacity:1;stroke-miterlimit:4;" d="M 0.000778198 -0.00117493 L 0.000778198 3.499802 " transform="matrix(1.333333,0,0,1.333333,280.608337,194.400004)"/>
<path style=" stroke:none;fill-rule:nonzero;fill:rgb(0%,0%,0%);fill-opacity:1;" d="M 280.605469 205.011719 C 279.929688 205.011719 279.417969 205.34375 279.078125 206.011719 C 278.738281 206.675781 278.566406 207.675781 278.566406 209.015625 C 278.566406 210.347656 278.738281 211.347656 279.078125 212.011719 C 279.417969 212.679688 279.929688 213.011719 280.605469 213.011719 C 281.285156 213.011719 281.796875 212.679688 282.136719 212.011719 C 282.480469 211.347656 282.648438 210.347656 282.648438 209.015625 C 282.648438 207.675781 282.480469 206.675781 282.136719 206.011719 C 281.796875 205.34375 281.285156 205.011719 280.605469 205.011719 Z M 280.605469 203.96875 C 281.695312 203.96875 282.527344 204.398438 283.101562 205.261719 C 283.675781 206.125 283.964844 207.375 283.964844 209.015625 C 283.964844 210.652344 283.675781 211.898438 283.101562 212.761719 C 282.527344 213.625 281.695312 214.054688 280.605469 214.054688 C 279.515625 214.054688 278.683594 213.625 278.109375 212.761719 C 277.535156 211.898438 277.246094 210.652344 277.246094 209.015625 C 277.246094 207.375 277.535156 206.125 278.109375 205.261719 C 278.683594 204.398438 279.515625 203.96875 280.605469 203.96875 Z M 280.605469 203.96875 "/>
<path style=" stroke:none;fill-rule:nonzero;fill:rgb(0%,0%,0%);fill-opacity:1;" d="M 186.160156 224.808594 L 183.519531 228.359375 L 186.292969 232.101562 L 184.882812 232.101562 L 182.757812 229.238281 L 180.636719 232.101562 L 179.222656 232.101562 L 182.054688 228.289062 L 179.464844 224.808594 L 180.878906 224.808594 L 182.808594 227.410156 L 184.742188 224.808594 Z M 186.160156 224.808594 "/>
<path style=" stroke:none;fill-rule:nonzero;fill:rgb(0%,0%,0%);fill-opacity:1;" d="M 188.382812 230.996094 L 190.53125 230.996094 L 190.53125 223.578125 L 188.195312 224.046875 L 188.195312 222.851562 L 190.519531 222.382812 L 191.835938 222.382812 L 191.835938 230.996094 L 193.980469 230.996094 L 193.980469 232.101562 L 188.382812 232.101562 Z M 188.382812 230.996094 "/>
<path style="fill:none;stroke-width:0.8;stroke-linecap:butt;stroke-linejoin:round;stroke:rgb(0%,0%,0%);stroke-opacity:1;stroke-miterlimit:4;" d="M 0.000782013 -0.00117493 L -3.500195 -0.00117493 " transform="matrix(1.333333,0,0,1.333333,56.827082,194.400004)"/>
<path style=" stroke:none;fill-rule:nonzero;fill:rgb(0%,0%,0%);fill-opacity:1;" d="M 29.25 194.730469 L 37.597656 194.730469 L 37.597656 195.839844 L 29.25 195.839844 Z M 29.25 194.730469 "/>
<path style=" stroke:none;fill-rule:nonzero;fill:rgb(0%,0%,0%);fill-opacity:1;" d="M 44.417969 194.222656 C 45.050781 194.359375 45.539062 194.640625 45.894531 195.066406 C 46.246094 195.492188 46.425781 196.015625 46.425781 196.640625 C 46.425781 197.597656 46.09375 198.339844 45.433594 198.867188 C 44.773438 199.394531 43.835938 199.65625 42.621094 199.65625 C 42.214844 199.65625 41.796875 199.613281 41.363281 199.535156 C 40.929688 199.453125 40.484375 199.332031 40.027344 199.171875 L 40.027344 197.902344 C 40.390625 198.117188 40.789062 198.277344 41.222656 198.382812 C 41.65625 198.492188 42.109375 198.546875 42.585938 198.546875 C 43.40625 198.546875 44.035156 198.382812 44.46875 198.058594 C 44.898438 197.734375 45.117188 197.261719 45.117188 196.640625 C 45.117188 196.066406 44.914062 195.617188 44.511719 195.296875 C 44.113281 194.972656 43.554688 194.8125 42.839844 194.8125 L 41.707031 194.8125 L 41.707031 193.730469 L 42.890625 193.730469 C 43.535156 193.730469 44.03125 193.601562 44.375 193.34375 C 44.71875 193.085938 44.886719 192.710938 44.886719 192.226562 C 44.886719 191.726562 44.710938 191.34375 44.355469 191.078125 C 44.003906 190.808594 43.5 190.675781 42.839844 190.675781 C 42.476562 190.675781 42.089844 190.714844 41.679688 190.792969 C 41.265625 190.871094 40.8125 190.992188 40.316406 191.15625 L 40.316406 189.988281 C 40.816406 189.847656 41.285156 189.742188 41.722656 189.675781 C 42.15625 189.605469 42.570312 189.570312 42.957031 189.570312 C 43.953125 189.570312 44.742188 189.796875 45.324219 190.25 C 45.90625 190.703125 46.195312 191.316406 46.195312 192.089844 C 46.195312 192.628906 46.042969 193.082031 45.734375 193.453125 C 45.425781 193.824219 44.988281 194.082031 44.417969 194.222656 Z M 44.417969 194.222656 "/>
<path style="fill:none;stroke-width:0.8;stroke-linecap:butt;stroke-linejoin:round;stroke:rgb(0%,0%,0%);stroke-opacity:1;stroke-miterlimit:4;" d="M 0.000782013 0.000183105 L -3.500195 0.000183105 " transform="matrix(1.333333,0,0,1.333333,56.827082,147.015381)"/>
<path style=" stroke:none;fill-rule:nonzero;fill:rgb(0%,0%,0%);fill-opacity:1;" d="M 29.25 147.347656 L 37.597656 147.347656 L 37.597656 148.453125 L 29.25 148.453125 Z M 29.25 147.347656 "/>
<path style=" stroke:none;fill-rule:nonzero;fill:rgb(0%,0%,0%);fill-opacity:1;" d="M 41.566406 150.976562 L 46.15625 150.976562 L 46.15625 152.082031 L 39.988281 152.082031 L 39.988281 150.976562 C 40.484375 150.457031 41.164062 149.765625 42.027344 148.894531 C 42.886719 148.023438 43.429688 147.464844 43.652344 147.210938 C 44.070312 146.738281 44.367188 146.339844 44.53125 146.011719 C 44.699219 145.683594 44.785156 145.359375 44.785156 145.042969 C 44.785156 144.527344 44.601562 144.105469 44.242188 143.78125 C 43.878906 143.453125 43.40625 143.292969 42.824219 143.292969 C 42.410156 143.292969 41.976562 143.363281 41.519531 143.507812 C 41.0625 143.648438 40.570312 143.867188 40.050781 144.15625 L 40.050781 142.828125 C 40.582031 142.617188 41.074219 142.457031 41.535156 142.347656 C 41.996094 142.238281 42.417969 142.183594 42.800781 142.183594 C 43.804688 142.183594 44.609375 142.4375 45.207031 142.941406 C 45.804688 143.445312 46.105469 144.117188 46.105469 144.957031 C 46.105469 145.359375 46.03125 145.738281 45.878906 146.09375 C 45.730469 146.453125 45.460938 146.875 45.0625 147.359375 C 44.957031 147.488281 44.609375 147.851562 44.027344 148.453125 C 43.449219 149.054688 42.628906 149.894531 41.566406 150.976562 Z M 41.566406 150.976562 "/>
<path style="fill:none;stroke-width:0.8;stroke-linecap:butt;stroke-linejoin:round;stroke:rgb(0%,0%,0%);stroke-opacity:1;stroke-miterlimit:4;" d="M 0.000782013 -0.00139618 L -3.500195 -0.00139618 " transform="matrix(1.333333,0,0,1.333333,56.827082,99.630768)"/>
<path style=" stroke:none;fill-rule:nonzero;fill:rgb(0%,0%,0%);fill-opacity:1;" d="M 29.25 99.964844 L 37.597656 99.964844 L 37.597656 101.070312 L 29.25 101.070312 Z M 29.25 99.964844 "/>
<path style=" stroke:none;fill-rule:nonzero;fill:rgb(0%,0%,0%);fill-opacity:1;" d="M 40.664062 103.589844 L 42.8125 103.589844 L 42.8125 96.171875 L 40.472656 96.640625 L 40.472656 95.445312 L 42.800781 94.976562 L 44.113281 94.976562 L 44.113281 103.589844 L 46.261719 103.589844 L 46.261719 104.695312 L 40.664062 104.695312 Z M 40.664062 103.589844 "/>
<path style="fill:none;stroke-width:0.8;stroke-linecap:butt;stroke-linejoin:round;stroke:rgb(0%,0%,0%);stroke-opacity:1;stroke-miterlimit:4;" d="M 0.000782013 -0.0000457764 L -3.500195 -0.0000457764 " transform="matrix(1.333333,0,0,1.333333,56.827082,52.246155)"/>
<path style=" stroke:none;fill-rule:nonzero;fill:rgb(0%,0%,0%);fill-opacity:1;" d="M 43.246094 48.457031 C 42.570312 48.457031 42.0625 48.789062 41.722656 49.457031 C 41.378906 50.121094 41.210938 51.125 41.210938 52.460938 C 41.210938 53.792969 41.378906 54.792969 41.722656 55.460938 C 42.0625 56.125 42.570312 56.460938 43.246094 56.460938 C 43.929688 56.460938 44.441406 56.125 44.78125 55.460938 C 45.121094 54.792969 45.292969 53.792969 45.292969 52.460938 C 45.292969 51.125 45.121094 50.121094 44.78125 49.457031 C 44.441406 48.789062 43.929688 48.457031 43.246094 48.457031 Z M 43.246094 47.414062 C 44.339844 47.414062 45.171875 47.847656 45.746094 48.710938 C 46.320312 49.570312 46.609375 50.820312 46.609375 52.460938 C 46.609375 54.097656 46.320312 55.347656 45.746094 56.210938 C 45.171875 57.070312 44.339844 57.5 43.246094 57.5 C 42.160156 57.5 41.328125 57.070312 40.753906 56.210938 C 40.175781 55.347656 39.890625 54.097656 39.890625 52.460938 C 39.890625 50.820312 40.175781 49.570312 40.753906 48.710938 C 41.328125 47.847656 42.160156 47.414062 43.246094 47.414062 Z M 43.246094 47.414062 "/>
<path style=" stroke:none;fill-rule:nonzero;fill:rgb(0%,0%,0%);fill-opacity:1;" d="M 12.441406 102.867188 L 15.988281 105.507812 L 19.730469 102.734375 L 19.730469 104.144531 L 16.867188 106.269531 L 19.730469 108.390625 L 19.730469 109.804688 L 15.917969 106.972656 L 12.441406 109.5625 L 12.441406 108.148438 L 15.039062 106.214844 L 12.441406 104.285156 Z M 12.441406 102.867188 "/>
<path style=" stroke:none;fill-rule:nonzero;fill:rgb(0%,0%,0%);fill-opacity:1;" d="M 18.625 99.738281 L 18.625 95.148438 L 19.730469 95.148438 L 19.730469 101.320312 L 18.625 101.320312 C 18.109375 100.820312 17.414062 100.140625 16.546875 99.28125 C 15.675781 98.417969 15.113281 97.875 14.859375 97.65625 C 14.386719 97.234375 13.988281 96.941406 13.660156 96.773438 C 13.332031 96.605469 13.011719 96.523438 12.695312 96.523438 C 12.175781 96.523438 11.757812 96.703125 11.429688 97.066406 C 11.105469 97.429688 10.941406 97.898438 10.941406 98.480469 C 10.941406 98.894531 11.011719 99.332031 11.15625 99.789062 C 11.300781 100.246094 11.515625 100.734375 11.808594 101.253906 L 10.480469 101.253906 C 10.265625 100.726562 10.105469 100.230469 9.996094 99.773438 C 9.890625 99.3125 9.835938 98.890625 9.835938 98.507812 C 9.835938 97.5 10.085938 96.699219 10.589844 96.097656 C 11.09375 95.5 11.765625 95.199219 12.609375 95.199219 C 13.007812 95.199219 13.386719 95.277344 13.746094 95.425781 C 14.101562 95.574219 14.523438 95.847656 15.011719 96.242188 C 15.136719 96.351562 15.5 96.695312 16.101562 97.277344 C 16.703125 97.859375 17.542969 98.679688 18.625 99.738281 Z M 18.625 99.738281 "/>
<path style="fill:none;stroke-width:1.5;stroke-linecap:square;stroke-linejoin:round;stroke:rgb(100%,49.803922%,5.490196%);stroke-opacity:1;stroke-miterlimit:4;" d="M 57.878906 110.261719 L 90.298828 82.895508 L 115.822266 66.987305 L 142.628906 54.958008 L 154.40918 51.014648 L 163.441406 47.72168 L 173.373047 44.147461 L 177.123047 37.643555 L 187.025391 39.503906 L 189.849609 41.888672 L 191.211914 37.189453 L 197.800781 36.298828 L 202.634766 40.538086 L 207.102539 36.082031 L 210.339844 39.448242 L 211.904297 44.006836 L 210.966797 42.717773 L 209.915039 32.821289 L 212.545898 37.450195 L 212.982422 31.242187 L 210.331055 35.868164 L 209.05957 39.099609 L 206.003906 41.991211 L 207.670898 38.850586 L 207.688477 37.992187 L 208.324219 34.851562 L 206.81543 34.587891 L 205.951172 33.682617 L 204.439453 35.616211 L 205.444336 33.521484 L 210.503906 39.527344 L 205.666992 35.950195 L 200.932617 36.914062 L 197.258789 36.533203 L 203.05957 32.540039 L 206.018555 35.293945 L 208.125 40.464844 L 214.089844 42.125977 L 208.839844 38.62207 L 212.296875 35.358398 L 214.289062 31.579102 L 211.605469 33.102539 L 215.223633 38.891602 L 216.237305 34.151367 L 218.625 38.80957 L 220.68457 41.525391 L 215.633789 46.274414 L 216.462891 43.901367 L 218.475586 48.043945 L 216.881836 40.620117 L 217.338867 41.90918 " transform="matrix(1.333333,0,0,1.333333,0,0.000000000000014211)"/>
<path style="fill-rule:nonzero;fill:rgb(100%,49.803922%,5.490196%);fill-opacity:1;stroke-width:1;stroke-linecap:butt;stroke-linejoin:round;stroke:rgb(100%,49.803922%,5.490196%);stroke-opacity:1;stroke-miterlimit:4;" d="M 0.000782013 3.000183 C 0.794727 3.000183 1.559376 2.683777 2.121876 2.121277 C 2.684376 1.558777 3.000782 0.797058 3.000782 0.000183105 C 3.000782 -0.796692 2.684376 -1.558411 2.121876 -2.120911 C 1.559376 -2.683411 0.794727 -2.999817 0.000782013 -2.999817 C -0.796093 -2.999817 -1.557812 -2.683411 -2.120312 -2.120911 C -2.682812 -1.558411 -2.999218 -0.796692 -2.999218 0.000183105 C -2.999218 0.797058 -2.682812 1.558777 -2.120312 2.121277 C -1.557812 2.683777 -0.796093 3.000183 0.000782013 3.000183 Z M 0.000782013 3.000183 " transform="matrix(1.333333,0,0,1.333333,77.170832,147.015381)"/>
<path style="fill-rule:nonzero;fill:rgb(100%,49.803922%,5.490196%);fill-opacity:1;stroke-width:1;stroke-linecap:butt;stroke-linejoin:round;stroke:rgb(100%,49.803922%,5.490196%);stroke-opacity:1;stroke-miterlimit:4;" d="M -0.0000228882 3.001366 C 0.796852 3.001366 1.558571 2.684959 2.121071 2.122459 C 2.683571 1.559959 2.999977 0.795311 2.999977 0.00136566 C 2.999977 -0.795509 2.683571 -1.560158 2.121071 -2.122658 C 1.558571 -2.685158 0.796852 -2.998634 -0.0000228882 -2.998634 C -0.796898 -2.998634 -1.558617 -2.685158 -2.121117 -2.122658 C -2.683617 -1.560158 -3.000023 -0.795509 -3.000023 0.00136566 C -3.000023 0.795311 -2.683617 1.559959 -2.121117 2.122459 C -1.558617 2.684959 -0.796898 3.001366 -0.0000228882 3.001366 Z M -0.0000228882 3.001366 " transform="matrix(1.333333,0,0,1.333333,120.398468,110.525523)"/>
<path style="fill-rule:nonzero;fill:rgb(100%,49.803922%,5.490196%);fill-opacity:1;stroke-width:1;stroke-linecap:butt;stroke-linejoin:round;stroke:rgb(100%,49.803922%,5.490196%);stroke-opacity:1;stroke-miterlimit:4;" d="M 0.000663757 2.998764 C 0.794609 2.998764 1.559258 2.685287 2.121758 2.119858 C 2.684258 1.557358 3.000664 0.795639 3.000664 -0.00123596 C 3.000664 -0.795181 2.684258 -1.55983 2.121758 -2.12233 C 1.559258 -2.68483 0.794609 -3.001236 0.000663757 -3.001236 C -0.796211 -3.001236 -1.55793 -2.68483 -2.12043 -2.12233 C -2.68293 -1.55983 -2.999336 -0.795181 -2.999336 -0.00123596 C -2.999336 0.795639 -2.68293 1.557358 -2.12043 2.119858 C -1.55793 2.685287 -0.796211 2.998764 0.000663757 2.998764 Z M 0.000663757 2.998764 " transform="matrix(1.333333,0,0,1.333333,154.428802,89.318054)"/>
<path style="fill-rule:nonzero;fill:rgb(100%,49.803922%,5.490196%);fill-opacity:1;stroke-width:1;stroke-linecap:butt;stroke-linejoin:round;stroke:rgb(100%,49.803922%,5.490196%);stroke-opacity:1;stroke-miterlimit:4;" d="M 0.00141907 3.000034 C 0.795364 3.000034 1.560013 2.683628 2.122513 2.121128 C 2.685013 1.558628 3.001419 0.796909 3.001419 0.0000343323 C 3.001419 -0.796841 2.685013 -1.558559 2.122513 -2.121059 C 1.560013 -2.683559 0.795364 -2.999966 0.00141907 -2.999966 C -0.795456 -2.999966 -1.560104 -2.683559 -2.122604 -2.121059 C -2.685104 -1.558559 -2.998581 -0.796841 -2.998581 0.0000343323 C -2.998581 0.796909 -2.685104 1.558628 -2.122604 2.121128 C -1.560104 2.683628 -0.795456 3.000034 0.00141907 3.000034 Z M 0.00141907 3.000034 " transform="matrix(1.333333,0,0,1.333333,190.169983,73.277298)"/>
<path style="fill-rule:nonzero;fill:rgb(100%,49.803922%,5.490196%);fill-opacity:1;stroke-width:1;stroke-linecap:butt;stroke-linejoin:round;stroke:rgb(100%,49.803922%,5.490196%);stroke-opacity:1;stroke-miterlimit:4;" d="M -0.00137329 3.001358 C 0.795502 3.001358 1.56015 2.684952 2.12265 2.122452 C 2.68515 1.559952 2.998627 0.795303 2.998627 0.00135803 C 2.998627 -0.795517 2.68515 -1.560165 2.12265 -2.122665 C 1.56015 -2.685165 0.795502 -2.998642 -0.00137329 -2.998642 C -0.795319 -2.998642 -1.559967 -2.685165 -2.122467 -2.122665 C -2.684967 -1.560165 -3.001373 -0.795517 -3.001373 0.00135803 C -3.001373 0.795303 -2.684967 1.559952 -2.122467 2.122452 C -1.559967 2.684952 -0.795319 3.001358 -0.00137329 3.001358 Z M -0.00137329 3.001358 " transform="matrix(1.333333,0,0,1.333333,205.880737,68.017721)"/>
<path style="fill-rule:nonzero;fill:rgb(100%,49.803922%,5.490196%);fill-opacity:1;stroke-width:1;stroke-linecap:butt;stroke-linejoin:round;stroke:rgb(100%,49.803922%,5.490196%);stroke-opacity:1;stroke-miterlimit:4;" d="M 0.00135803 3.000103 C 0.795303 3.000103 1.559952 2.683697 2.122452 2.121197 C 2.684952 1.558697 3.001358 0.796978 3.001358 0.000102997 C 3.001358 -0.796772 2.684952 -1.558491 2.122452 -2.120991 C 1.559952 -2.683491 0.795303 -2.999897 0.00135803 -2.999897 C -0.795517 -2.999897 -1.560165 -2.683491 -2.122665 -2.120991 C -2.685165 -1.558491 -2.998642 -0.796772 -2.998642 0.000102997 C -2.998642 0.796978 -2.685165 1.558697 -2.122665 2.121197 C -1.560165 2.683697 -0.795517 3.000103 0.00135803 3.000103 Z M 0.00135803 3.000103 " transform="matrix(1.333333,0,0,1.333333,217.920064,63.628769)"/>
<path style="fill-rule:nonzero;fill:rgb(100%,49.803922%,5.490196%);fill-opacity:1;stroke-width:1;stroke-linecap:butt;stroke-linejoin:round;stroke:rgb(100%,49.803922%,5.490196%);stroke-opacity:1;stroke-miterlimit:4;" d="M -0.00050354 2.999069 C 0.796371 2.999069 1.55809 2.682663 2.12059 2.120163 C 2.68309 1.557663 2.999496 0.795944 2.999496 -0.000930786 C 2.999496 -0.794876 2.68309 -1.559525 2.12059 -2.122025 C 1.55809 -2.684525 0.796371 -3.000931 -0.00050354 -3.000931 C -0.794449 -3.000931 -1.559097 -2.684525 -2.121597 -2.122025 C -2.684097 -1.559525 -3.000504 -0.794876 -3.000504 -0.000930786 C -3.000504 0.795944 -2.684097 1.557663 -2.121597 2.120163 C -1.559097 2.682663 -0.794449 2.999069 -0.00050354 2.999069 Z M -0.00050354 2.999069 " transform="matrix(1.333333,0,0,1.333333,231.164734,58.864522)"/>
<path style="fill-rule:nonzero;fill:rgb(100%,49.803922%,5.490196%);fill-opacity:1;stroke-width:1;stroke-linecap:butt;stroke-linejoin:round;stroke:rgb(100%,49.803922%,5.490196%);stroke-opacity:1;stroke-miterlimit:4;" d="M 0.0000305176 3.001183 C 0.796906 3.001183 1.558624 2.684776 2.121124 2.122276 C 2.683624 1.559776 3.000031 0.795128 3.000031 0.00118256 C 3.000031 -0.795692 2.683624 -1.557411 2.121124 -2.119911 C 1.558624 -2.685341 0.796906 -2.998817 0.0000305176 -2.998817 C -0.796844 -2.998817 -1.558563 -2.685341 -2.121063 -2.119911 C -2.683563 -1.557411 -2.999969 -0.795692 -2.999969 0.00118256 C -2.999969 0.795128 -2.683563 1.559776 -2.121063 2.122276 C -1.558563 2.684776 -0.796844 3.001183 0.0000305176 3.001183 Z M 0.0000305176 3.001183 " transform="matrix(1.333333,0,0,1.333333,236.164022,50.18983)"/>
<path style="fill-rule:nonzero;fill:rgb(100%,49.803922%,5.490196%);fill-opacity:1;stroke-width:1;stroke-linecap:butt;stroke-linejoin:round;stroke:rgb(100%,49.803922%,5.490196%);stroke-opacity:1;stroke-miterlimit:4;" d="M 0.000396729 2.999817 C 0.794342 2.999817 1.55899 2.683411 2.12149 2.120911 C 2.68399 1.558411 3.000397 0.796692 3.000397 -0.000183105 C 3.000397 -0.797058 2.68399 -1.558777 2.12149 -2.121277 C 1.55899 -2.683777 0.794342 -3.000183 0.000396729 -3.000183 C -0.796478 -3.000183 -1.558197 -2.683777 -2.120697 -2.121277 C -2.683197 -1.558777 -2.999603 -0.797058 -2.999603 -0.000183105 C -2.999603 0.796692 -2.683197 1.558411 -2.120697 2.120911 C -1.558197 2.683411 -0.796478 2.999817 0.000396729 2.999817 Z M 0.000396729 2.999817 " transform="matrix(1.333333,0,0,1.333333,249.366659,52.672119)"/>
<path style="fill-rule:nonzero;fill:rgb(100%,49.803922%,5.490196%);fill-opacity:1;stroke-width:1;stroke-linecap:butt;stroke-linejoin:round;stroke:rgb(100%,49.803922%,5.490196%);stroke-opacity:1;stroke-miterlimit:4;" d="M -0.000595093 2.999577 C 0.79628 2.999577 1.557999 2.68317 2.120499 2.12067 C 2.682999 1.55817 2.999405 0.796452 2.999405 -0.000423431 C 2.999405 -0.794369 2.682999 -1.559017 2.120499 -2.121517 C 1.557999 -2.684017 0.79628 -3.000423 -0.000595093 -3.000423 C -0.79454 -3.000423 -1.559189 -2.684017 -2.121689 -2.121517 C -2.684189 -1.559017 -3.000595 -0.794369 -3.000595 -0.000423431 C -3.000595 0.796452 -2.684189 1.55817 -2.121689 2.12067 C -1.559189 2.68317 -0.79454 2.999577 -0.000595093 2.999577 Z M -0.000595093 2.999577 " transform="matrix(1.333333,0,0,1.333333,253.133606,55.852127)"/>
<path style="fill-rule:nonzero;fill:rgb(100%,49.803922%,5.490196%);fill-opacity:1;stroke-width:1;stroke-linecap:butt;stroke-linejoin:round;stroke:rgb(100%,49.803922%,5.490196%);stroke-opacity:1;stroke-miterlimit:4;" d="M -0.00100708 2.998676 C 0.795868 2.998676 1.557587 2.6852 2.120087 2.1227 C 2.682587 1.5602 2.998993 0.795551 2.998993 -0.0013237 C 2.998993 -0.795269 2.682587 -1.559917 2.120087 -2.122417 C 1.557587 -2.684917 0.795868 -3.001324 -0.00100708 -3.001324 C -0.794952 -3.001324 -1.559601 -2.684917 -2.122101 -2.122417 C -2.684601 -1.559917 -3.001007 -0.795269 -3.001007 -0.0013237 C -3.001007 0.795551 -2.684601 1.5602 -2.122101 2.1227 C -1.559601 2.6852 -0.794952 2.998676 -0.00100708 2.998676 Z M -0.00100708 2.998676 " transform="matrix(1.333333,0,0,1.333333,254.950562,49.587702)"/>
<path style="fill-rule:nonzero;fill:rgb(100%,49.803922%,5.490196%);fill-opacity:1;stroke-width:1;stroke-linecap:butt;stroke-linejoin:round;stroke:rgb(100%,49.803922%,5.490196%);stroke-opacity:1;stroke-miterlimit:4;" d="M -0.000228882 2.999004 C 0.796646 2.999004 1.558365 2.682598 2.120865 2.120098 C 2.683365 1.557598 2.999771 0.795879 2.999771 -0.000995636 C 2.999771 -0.794941 2.683365 -1.559589 2.120865 -2.122089 C 1.558365 -2.684589 0.796646 -3.000996 -0.000228882 -3.000996 C -0.794174 -3.000996 -1.558823 -2.684589 -2.121323 -2.122089 C -2.683823 -1.559589 -3.000229 -0.794941 -3.000229 -0.000995636 C -3.000229 0.795879 -2.683823 1.557598 -2.121323 2.120098 C -1.558823 2.682598 -0.794174 2.999004 -0.000228882 2.999004 Z M -0.000228882 2.999004 " transform="matrix(1.333333,0,0,1.333333,263.73468,48.399765)"/>
<path style="fill-rule:nonzero;fill:rgb(100%,49.803922%,5.490196%);fill-opacity:1;stroke-width:1;stroke-linecap:butt;stroke-linejoin:round;stroke:rgb(100%,49.803922%,5.490196%);stroke-opacity:1;stroke-miterlimit:4;" d="M -0.00105286 3.001453 C 0.795822 3.001453 1.557541 2.685047 2.120041 2.122547 C 2.682541 1.560047 2.998947 0.795399 2.998947 0.0014534 C 2.998947 -0.795422 2.682541 -1.56007 2.120041 -2.12257 C 1.557541 -2.68507 0.795822 -2.998547 -0.00105286 -2.998547 C -0.794998 -2.998547 -1.559647 -2.68507 -2.122147 -2.12257 C -2.684647 -1.56007 -3.001053 -0.795422 -3.001053 0.0014534 C -3.001053 0.795399 -2.684647 1.560047 -2.122147 2.122547 C -1.559647 2.685047 -0.794998 3.001453 -0.00105286 3.001453 Z M -0.00105286 3.001453 " transform="matrix(1.333333,0,0,1.333333,270.181091,54.048843)"/>
<path style="fill-rule:nonzero;fill:rgb(100%,49.803922%,5.490196%);fill-opacity:1;stroke-width:1;stroke-linecap:butt;stroke-linejoin:round;stroke:rgb(100%,49.803922%,5.490196%);stroke-opacity:1;stroke-miterlimit:4;" d="M 0.000427246 2.998779 C 0.794373 2.998779 1.559021 2.685303 2.121521 2.119873 C 2.684021 1.557373 3.000427 0.795654 3.000427 -0.0012207 C 3.000427 -0.795166 2.684021 -1.559814 2.121521 -2.122314 C 1.559021 -2.684814 0.794373 -3.001221 0.000427246 -3.001221 C -0.796448 -3.001221 -1.558167 -2.684814 -2.120667 -2.122314 C -2.683167 -1.559814 -2.999573 -0.795166 -2.999573 -0.0012207 C -2.999573 0.795654 -2.683167 1.557373 -2.120667 2.119873 C -1.558167 2.685303 -0.796448 2.998779 0.000427246 2.998779 Z M 0.000427246 2.998779 " transform="matrix(1.333333,0,0,1.333333,276.136149,48.111003)"/>
<path style="fill-rule:nonzero;fill:rgb(100%,49.803922%,5.490196%);fill-opacity:1;stroke-width:1;stroke-linecap:butt;stroke-linejoin:round;stroke:rgb(100%,49.803922%,5.490196%);stroke-opacity:1;stroke-miterlimit:4;" d="M 0.000213623 3.001232 C 0.794159 3.001232 1.558807 2.684826 2.121307 2.122326 C 2.683807 1.559826 3.000214 0.795177 3.000214 0.00123215 C 3.000214 -0.795643 2.683807 -1.557362 2.121307 -2.119862 C 1.558807 -2.685291 0.794159 -2.998768 0.000213623 -2.998768 C -0.796661 -2.998768 -1.55838 -2.685291 -2.12088 -2.119862 C -2.68338 -1.557362 -2.999786 -0.795643 -2.999786 0.00123215 C -2.999786 0.795177 -2.68338 1.559826 -2.12088 2.122326 C -1.55838 2.684826 -0.796661 3.001232 0.000213623 3.001232 Z M 0.000213623 3.001232 " transform="matrix(1.333333,0,0,1.333333,280.45284,52.596013)"/>
<path style="fill-rule:nonzero;fill:rgb(100%,49.803922%,5.490196%);fill-opacity:1;stroke-width:1;stroke-linecap:butt;stroke-linejoin:round;stroke:rgb(100%,49.803922%,5.490196%);stroke-opacity:1;stroke-miterlimit:4;" d="M 0.000167847 2.999855 C 0.797043 2.999855 1.558762 2.683449 2.121262 2.120949 C 2.683762 1.558449 3.000168 0.79673 3.000168 -0.000144958 C 3.000168 -0.79702 2.683762 -1.558739 2.121262 -2.121239 C 1.558762 -2.683739 0.797043 -3.000145 0.000167847 -3.000145 C -0.796707 -3.000145 -1.558426 -2.683739 -2.120926 -2.121239 C -2.683426 -1.558739 -2.999832 -0.79702 -2.999832 -0.000144958 C -2.999832 0.79673 -2.683426 1.558449 -2.120926 2.120949 C -1.558426 2.683449 -0.796707 2.999855 0.000167847 2.999855 Z M 0.000167847 2.999855 " transform="matrix(1.333333,0,0,1.333333,282.538839,58.675975)"/>
<path style="fill-rule:nonzero;fill:rgb(100%,49.803922%,5.490196%);fill-opacity:1;stroke-width:1;stroke-linecap:butt;stroke-linejoin:round;stroke:rgb(100%,49.803922%,5.490196%);stroke-opacity:1;stroke-miterlimit:4;" d="M -0.00144958 3.000233 C 0.795425 3.000233 1.560074 2.683826 2.122574 2.121326 C 2.685074 1.558826 2.99855 0.794178 2.99855 0.000232697 C 2.99855 -0.796642 2.685074 -1.558361 2.122574 -2.120861 C 1.560074 -2.683361 0.795425 -2.999767 -0.00144958 -2.999767 C -0.795395 -2.999767 -1.560043 -2.683361 -2.122543 -2.120861 C -2.685043 -1.558361 -3.00145 -0.796642 -3.00145 0.000232697 C -3.00145 0.794178 -2.685043 1.558826 -2.122543 2.121326 C -1.560043 2.683826 -0.795395 3.000233 -0.00144958 3.000233 Z M -0.00144958 3.000233 " transform="matrix(1.333333,0,0,1.333333,281.290995,56.956721)"/>
<path style="fill-rule:nonzero;fill:rgb(100%,49.803922%,5.490196%);fill-opacity:1;stroke-width:1;stroke-linecap:butt;stroke-linejoin:round;stroke:rgb(100%,49.803922%,5.490196%);stroke-opacity:1;stroke-miterlimit:4;" d="M -0.000518799 2.999088 C 0.796356 2.999088 1.558075 2.682682 2.120575 2.120182 C 2.683075 1.557682 2.999481 0.795963 2.999481 -0.000911713 C 2.999481 -0.794857 2.683075 -1.559505 2.120575 -2.122005 C 1.558075 -2.684505 0.796356 -3.000912 -0.000518799 -3.000912 C -0.794464 -3.000912 -1.559113 -2.684505 -2.121613 -2.122005 C -2.684113 -1.559505 -3.000519 -0.794857 -3.000519 -0.000911713 C -3.000519 0.795963 -2.684113 1.557682 -2.121613 2.120182 C -1.559113 2.682682 -0.794464 2.999088 -0.000518799 2.999088 Z M -0.000518799 2.999088 " transform="matrix(1.333333,0,0,1.333333,279.88741,43.762934)"/>
<path style="fill-rule:nonzero;fill:rgb(100%,49.803922%,5.490196%);fill-opacity:1;stroke-width:1;stroke-linecap:butt;stroke-linejoin:round;stroke:rgb(100%,49.803922%,5.490196%);stroke-opacity:1;stroke-miterlimit:4;" d="M 0.0000457764 2.998928 C 0.796921 2.998928 1.55864 2.682522 2.12114 2.120022 C 2.68364 1.557522 3.000046 0.795803 3.000046 -0.00107193 C 3.000046 -0.795017 2.68364 -1.559666 2.12114 -2.122166 C 1.55864 -2.684666 0.796921 -3.001072 0.0000457764 -3.001072 C -0.796829 -3.001072 -1.558548 -2.684666 -2.121048 -2.122166 C -2.683548 -1.559666 -2.999954 -0.795017 -2.999954 -0.00107193 C -2.999954 0.795803 -2.683548 1.557522 -2.121048 2.120022 C -1.558548 2.682522 -0.796829 2.998928 0.0000457764 2.998928 Z M 0.0000457764 2.998928 " transform="matrix(1.333333,0,0,1.333333,283.39447,49.935023)"/>
<path style="fill-rule:nonzero;fill:rgb(100%,49.803922%,5.490196%);fill-opacity:1;stroke-width:1;stroke-linecap:butt;stroke-linejoin:round;stroke:rgb(100%,49.803922%,5.490196%);stroke-opacity:1;stroke-miterlimit:4;" d="M 0.0000610352 2.999777 C 0.796936 2.999777 1.558655 2.683371 2.121155 2.120871 C 2.683655 1.558371 3.000061 0.796652 3.000061 -0.00022316 C 3.000061 -0.794168 2.683655 -1.558817 2.121155 -2.121317 C 1.558655 -2.683817 0.796936 -3.000223 0.0000610352 -3.000223 C -0.796814 -3.000223 -1.558533 -2.683817 -2.121033 -2.121317 C -2.683533 -1.558817 -2.999939 -0.794168 -2.999939 -0.00022316 C -2.999939 0.796652 -2.683533 1.558371 -2.121033 2.120871 C -1.558533 2.683371 -0.796814 2.999777 0.0000610352 2.999777 Z M 0.0000610352 2.999777 " transform="matrix(1.333333,0,0,1.333333,283.976481,41.656548)"/>
<path style="fill-rule:nonzero;fill:rgb(100%,49.803922%,5.490196%);fill-opacity:1;stroke-width:1;stroke-linecap:butt;stroke-linejoin:round;stroke:rgb(100%,49.803922%,5.490196%);stroke-opacity:1;stroke-miterlimit:4;" d="M 0.000167847 3.000263 C 0.797043 3.000263 1.558762 2.683857 2.121262 2.121357 C 2.683762 1.558857 3.000168 0.794209 3.000168 0.000263214 C 3.000168 -0.796612 2.683762 -1.558331 2.121262 -2.120831 C 1.558762 -2.683331 0.797043 -2.999737 0.000167847 -2.999737 C -0.796707 -2.999737 -1.558426 -2.683331 -2.120926 -2.120831 C -2.683426 -1.558331 -2.999832 -0.796612 -2.999832 0.000263214 C -2.999832 0.794209 -2.683426 1.558857 -2.120926 2.121357 C -1.558426 2.683857 -0.796707 3.000263 0.000167847 3.000263 Z M 0.000167847 3.000263 " transform="matrix(1.333333,0,0,1.333333,280.441182,47.823868)"/>
<path style="fill-rule:nonzero;fill:rgb(100%,49.803922%,5.490196%);fill-opacity:1;stroke-width:1;stroke-linecap:butt;stroke-linejoin:round;stroke:rgb(100%,49.803922%,5.490196%);stroke-opacity:1;stroke-miterlimit:4;" d="M 0.00144958 2.999191 C 0.795395 2.999191 1.560043 2.682785 2.122543 2.120285 C 2.685043 1.557785 3.00145 0.796066 3.00145 -0.000808716 C 3.00145 -0.794754 2.685043 -1.559402 2.122543 -2.121902 C 1.560043 -2.684402 0.795395 -3.000809 0.00144958 -3.000809 C -0.795425 -3.000809 -1.560074 -2.684402 -2.122574 -2.121902 C -2.685074 -1.559402 -2.99855 -0.794754 -2.99855 -0.000808716 C -2.99855 0.796066 -2.685074 1.557785 -2.122574 2.120285 C -1.560074 2.682785 -0.795425 2.999191 0.00144958 2.999191 Z M 0.00144958 2.999191 " transform="matrix(1.333333,0,0,1.333333,278.744161,52.133891)"/>
<path style="fill-rule:nonzero;fill:rgb(100%,49.803922%,5.490196%);fill-opacity:1;stroke-width:1;stroke-linecap:butt;stroke-linejoin:round;stroke:rgb(100%,49.803922%,5.490196%);stroke-opacity:1;stroke-miterlimit:4;" d="M 0.000900269 2.998764 C 0.794846 2.998764 1.559494 2.685287 2.121994 2.119858 C 2.684494 1.557358 3.0009 0.795639 3.0009 -0.00123596 C 3.0009 -0.795181 2.684494 -1.55983 2.121994 -2.12233 C 1.559494 -2.68483 0.794846 -3.001236 0.000900269 -3.001236 C -0.795975 -3.001236 -1.557693 -2.68483 -2.120193 -2.12233 C -2.682693 -1.55983 -2.9991 -0.795181 -2.9991 -0.00123596 C -2.9991 0.795639 -2.682693 1.557358 -2.120193 2.119858 C -1.557693 2.685287 -0.795975 2.998764 0.000900269 2.998764 Z M 0.000900269 2.998764 " transform="matrix(1.333333,0,0,1.333333,274.670675,55.989929)"/>
<path style="fill-rule:nonzero;fill:rgb(100%,49.803922%,5.490196%);fill-opacity:1;stroke-width:1;stroke-linecap:butt;stroke-linejoin:round;stroke:rgb(100%,49.803922%,5.490196%);stroke-opacity:1;stroke-miterlimit:4;" d="M -0.0012207 2.999271 C 0.795654 2.999271 1.557373 2.682865 2.119873 2.120365 C 2.685303 1.557865 2.998779 0.796146 2.998779 -0.000728607 C 2.998779 -0.794674 2.685303 -1.559322 2.119873 -2.121822 C 1.557373 -2.684322 0.795654 -3.000729 -0.0012207 -3.000729 C -0.795166 -3.000729 -1.559814 -2.684322 -2.122314 -2.121822 C -2.684814 -1.559322 -3.001221 -0.794674 -3.001221 -0.000728607 C -3.001221 0.796146 -2.684814 1.557865 -2.122314 2.120365 C -1.559814 2.682865 -0.795166 2.999271 -0.0012207 2.999271 Z M -0.0012207 2.999271 " transform="matrix(1.333333,0,0,1.333333,276.896159,51.801753)"/>
<path style="fill-rule:nonzero;fill:rgb(100%,49.803922%,5.490196%);fill-opacity:1;stroke-width:1;stroke-linecap:butt;stroke-linejoin:round;stroke:rgb(100%,49.803922%,5.490196%);stroke-opacity:1;stroke-miterlimit:4;" d="M -0.000396729 2.999939 C 0.796478 2.999939 1.558197 2.683533 2.120697 2.121033 C 2.683197 1.558533 2.999603 0.796814 2.999603 -0.0000610352 C 2.999603 -0.796936 2.683197 -1.558655 2.120697 -2.121155 C 1.558197 -2.683655 0.796478 -3.000061 -0.000396729 -3.000061 C -0.794342 -3.000061 -1.55899 -2.683655 -2.12149 -2.121155 C -2.68399 -1.558655 -3.000397 -0.796936 -3.000397 -0.0000610352 C -3.000397 0.796814 -2.68399 1.558533 -2.12149 2.121033 C -1.55899 2.683533 -0.794342 2.999939 -0.000396729 2.999939 Z M -0.000396729 2.999939 " transform="matrix(1.333333,0,0,1.333333,276.918498,50.656331)"/>
<path style="fill-rule:nonzero;fill:rgb(100%,49.803922%,5.490196%);fill-opacity:1;stroke-width:1;stroke-linecap:butt;stroke-linejoin:round;stroke:rgb(100%,49.803922%,5.490196%);stroke-opacity:1;stroke-miterlimit:4;" d="M -0.00128174 2.999634 C 0.795593 2.999634 1.557312 2.683228 2.122742 2.120728 C 2.685242 1.558228 2.998718 0.796509 2.998718 -0.000366211 C 2.998718 -0.794312 2.685242 -1.55896 2.122742 -2.12146 C 1.557312 -2.68396 0.795593 -3.000366 -0.00128174 -3.000366 C -0.795227 -3.000366 -1.559875 -2.68396 -2.122375 -2.12146 C -2.684875 -1.55896 -3.001282 -0.794312 -3.001282 -0.000366211 C -3.001282 0.796509 -2.684875 1.558228 -2.122375 2.120728 C -1.559875 2.683228 -0.795227 2.999634 -0.00128174 2.999634 Z M -0.00128174 2.999634 " transform="matrix(1.333333,0,0,1.333333,277.767334,46.469238)"/>
<path style="fill-rule:nonzero;fill:rgb(100%,49.803922%,5.490196%);fill-opacity:1;stroke-width:1;stroke-linecap:butt;stroke-linejoin:round;stroke:rgb(100%,49.803922%,5.490196%);stroke-opacity:1;stroke-miterlimit:4;" d="M -0.000839233 2.999268 C 0.796036 2.999268 1.557755 2.682861 2.120255 2.120361 C 2.682755 1.557861 2.999161 0.796143 2.999161 -0.000732422 C 2.999161 -0.794678 2.682755 -1.559326 2.120255 -2.121826 C 1.557755 -2.684326 0.796036 -3.000732 -0.000839233 -3.000732 C -0.794785 -3.000732 -1.559433 -2.684326 -2.121933 -2.121826 C -2.684433 -1.559326 -3.000839 -0.794678 -3.000839 -0.000732422 C -3.000839 0.796143 -2.684433 1.557861 -2.121933 2.120361 C -1.559433 2.682861 -0.794785 2.999268 -0.000839233 2.999268 Z M -0.000839233 2.999268 " transform="matrix(1.333333,0,0,1.333333,275.755025,46.118164)"/>
<path style="fill-rule:nonzero;fill:rgb(100%,49.803922%,5.490196%);fill-opacity:1;stroke-width:1;stroke-linecap:butt;stroke-linejoin:round;stroke:rgb(100%,49.803922%,5.490196%);stroke-opacity:1;stroke-miterlimit:4;" d="M -0.00012207 3.001419 C 0.796753 3.001419 1.558472 2.685013 2.120972 2.122513 C 2.683472 1.560013 2.999878 0.795364 2.999878 0.00141907 C 2.999878 -0.795456 2.683472 -1.560104 2.120972 -2.122604 C 1.558472 -2.685104 0.796753 -2.998581 -0.00012207 -2.998581 C -0.796997 -2.998581 -1.558716 -2.685104 -2.121216 -2.122604 C -2.683716 -1.560104 -3.000122 -0.795456 -3.000122 0.00141907 C -3.000122 0.795364 -2.683716 1.560013 -2.121216 2.122513 C -1.558716 2.685013 -0.796997 3.001419 -0.00012207 3.001419 Z M -0.00012207 3.001419 " transform="matrix(1.333333,0,0,1.333333,274.601725,44.908264)"/>
<path style="fill-rule:nonzero;fill:rgb(100%,49.803922%,5.490196%);fill-opacity:1;stroke-width:1;stroke-linecap:butt;stroke-linejoin:round;stroke:rgb(100%,49.803922%,5.490196%);stroke-opacity:1;stroke-miterlimit:4;" d="M -0.000183105 2.998829 C 0.796692 2.998829 1.558411 2.685352 2.120911 2.119923 C 2.683411 1.557423 2.999817 0.795704 2.999817 -0.00117111 C 2.999817 -0.795116 2.683411 -1.559765 2.120911 -2.122265 C 1.558411 -2.684765 0.796692 -3.001171 -0.000183105 -3.001171 C -0.797058 -3.001171 -1.558777 -2.684765 -2.121277 -2.122265 C -2.683777 -1.559765 -3.000183 -0.795116 -3.000183 -0.00117111 C -3.000183 0.795704 -2.683777 1.557423 -2.121277 2.119923 C -1.558777 2.685352 -0.797058 2.998829 -0.000183105 2.998829 Z M -0.000183105 2.998829 " transform="matrix(1.333333,0,0,1.333333,272.586182,47.489843)"/>
<path style="fill-rule:nonzero;fill:rgb(100%,49.803922%,5.490196%);fill-opacity:1;stroke-width:1;stroke-linecap:butt;stroke-linejoin:round;stroke:rgb(100%,49.803922%,5.490196%);stroke-opacity:1;stroke-miterlimit:4;" d="M 0 3.00111 C 0.796875 3.00111 1.558594 2.684704 2.121094 2.122204 C 2.683594 1.559704 3 0.795055 3 0.00111008 C 3 -0.795765 2.683594 -1.557484 2.121094 -2.119984 C 1.558594 -2.682484 0.796875 -2.99889 0 -2.99889 C -0.796875 -2.99889 -1.558594 -2.682484 -2.121094 -2.119984 C -2.683594 -1.557484 -3 -0.795765 -3 0.00111008 C -3 0.795055 -2.683594 1.559704 -2.121094 2.122204 C -1.558594 2.684704 -0.796875 3.00111 0 3.00111 Z M 0 3.00111 " transform="matrix(1.333333,0,0,1.333333,273.925781,44.693832)"/>
<path style="fill-rule:nonzero;fill:rgb(100%,49.803922%,5.490196%);fill-opacity:1;stroke-width:1;stroke-linecap:butt;stroke-linejoin:round;stroke:rgb(100%,49.803922%,5.490196%);stroke-opacity:1;stroke-miterlimit:4;" d="M -0.00131226 3.000179 C 0.795563 3.000179 1.557281 2.683773 2.122711 2.121273 C 2.685211 1.558773 2.998688 0.797054 2.998688 0.000179291 C 2.998688 -0.796696 2.685211 -1.558414 2.122711 -2.120914 C 1.557281 -2.683414 0.795563 -2.999821 -0.00131226 -2.999821 C -0.795258 -2.999821 -1.559906 -2.683414 -2.122406 -2.120914 C -2.684906 -1.558414 -3.001312 -0.796696 -3.001312 0.000179291 C -3.001312 0.797054 -2.684906 1.558773 -2.122406 2.121273 C -1.559906 2.683773 -0.795258 3.000179 -0.00131226 3.000179 Z M -0.00131226 3.000179 " transform="matrix(1.333333,0,0,1.333333,280.673625,52.702886)"/>
<path style="fill-rule:nonzero;fill:rgb(100%,49.803922%,5.490196%);fill-opacity:1;stroke-width:1;stroke-linecap:butt;stroke-linejoin:round;stroke:rgb(100%,49.803922%,5.490196%);stroke-opacity:1;stroke-miterlimit:4;" d="M 0.0012207 3.000729 C 0.795166 3.000729 1.559814 2.684322 2.122314 2.121822 C 2.684814 1.559322 3.001221 0.794674 3.001221 0.000728607 C 3.001221 -0.796146 2.684814 -1.557865 2.122314 -2.120365 C 1.559814 -2.682865 0.795166 -2.999271 0.0012207 -2.999271 C -0.795654 -2.999271 -1.557373 -2.682865 -2.119873 -2.120365 C -2.685303 -1.557865 -2.998779 -0.796146 -2.998779 0.000728607 C -2.998779 0.794674 -2.685303 1.559322 -2.119873 2.121822 C -1.557373 2.684322 -0.795654 3.000729 0.0012207 3.000729 Z M 0.0012207 3.000729 " transform="matrix(1.333333,0,0,1.333333,274.221029,47.932622)"/>
<path style="fill-rule:nonzero;fill:rgb(100%,49.803922%,5.490196%);fill-opacity:1;stroke-width:1;stroke-linecap:butt;stroke-linejoin:round;stroke:rgb(100%,49.803922%,5.490196%);stroke-opacity:1;stroke-miterlimit:4;" d="M 0.00114441 2.998783 C 0.79509 2.998783 1.559738 2.685307 2.122238 2.119877 C 2.684738 1.557377 3.001144 0.795658 3.001144 -0.00121689 C 3.001144 -0.795162 2.684738 -1.559811 2.122238 -2.122311 C 1.559738 -2.684811 0.79509 -3.001217 0.00114441 -3.001217 C -0.795731 -3.001217 -1.557449 -2.684811 -2.119949 -2.122311 C -2.682449 -1.559811 -2.998856 -0.795162 -2.998856 -0.00121689 C -2.998856 0.795658 -2.682449 1.557377 -2.119949 2.119877 C -1.557449 2.685307 -0.795731 2.998783 0.00114441 2.998783 Z M 0.00114441 2.998783 " transform="matrix(1.333333,0,0,1.333333,267.90863,49.220373)"/>
<path style="fill-rule:nonzero;fill:rgb(100%,49.803922%,5.490196%);fill-opacity:1;stroke-width:1;stroke-linecap:butt;stroke-linejoin:round;stroke:rgb(100%,49.803922%,5.490196%);stroke-opacity:1;stroke-miterlimit:4;" d="M -0.00119019 2.998581 C 0.795685 2.998581 1.557404 2.685104 2.119904 2.122604 C 2.685333 1.560104 2.99881 0.795456 2.99881 -0.00141907 C 2.99881 -0.795364 2.685333 -1.560013 2.119904 -2.122513 C 1.557404 -2.685013 0.795685 -3.001419 -0.00119019 -3.001419 C -0.795135 -3.001419 -1.559784 -2.685013 -2.122284 -2.122513 C -2.684784 -1.560013 -3.00119 -0.795364 -3.00119 -0.00141907 C -3.00119 0.795456 -2.684784 1.560104 -2.122284 2.122604 C -1.559784 2.685104 -0.795135 2.998581 -0.00119019 2.998581 Z M -0.00119019 2.998581 " transform="matrix(1.333333,0,0,1.333333,263.013306,48.71283)"/>
<path style="fill-rule:nonzero;fill:rgb(100%,49.803922%,5.490196%);fill-opacity:1;stroke-width:1;stroke-linecap:butt;stroke-linejoin:round;stroke:rgb(100%,49.803922%,5.490196%);stroke-opacity:1;stroke-miterlimit:4;" d="M -0.0012207 2.999153 C 0.795654 2.999153 1.557373 2.682747 2.119873 2.120247 C 2.685303 1.557747 2.998779 0.796028 2.998779 -0.000846863 C 2.998779 -0.794792 2.685303 -1.559441 2.119873 -2.121941 C 1.557373 -2.684441 0.795654 -3.000847 -0.0012207 -3.000847 C -0.795166 -3.000847 -1.559814 -2.684441 -2.122314 -2.121941 C -2.684814 -1.559441 -3.001221 -0.794792 -3.001221 -0.000846863 C -3.001221 0.796028 -2.684814 1.557747 -2.122314 2.120247 C -1.559814 2.682747 -0.795166 2.999153 -0.0012207 2.999153 Z M -0.0012207 2.999153 " transform="matrix(1.333333,0,0,1.333333,270.747721,43.387848)"/>
<path style="fill-rule:nonzero;fill:rgb(100%,49.803922%,5.490196%);fill-opacity:1;stroke-width:1;stroke-linecap:butt;stroke-linejoin:round;stroke:rgb(100%,49.803922%,5.490196%);stroke-opacity:1;stroke-miterlimit:4;" d="M 0.000915527 2.999237 C 0.794861 2.999237 1.559509 2.682831 2.122009 2.120331 C 2.684509 1.557831 3.000916 0.796112 3.000916 -0.000762939 C 3.000916 -0.794708 2.684509 -1.559357 2.122009 -2.121857 C 1.559509 -2.684357 0.794861 -3.000763 0.000915527 -3.000763 C -0.795959 -3.000763 -1.557678 -2.684357 -2.120178 -2.121857 C -2.682678 -1.559357 -2.999084 -0.794708 -2.999084 -0.000762939 C -2.999084 0.796112 -2.682678 1.557831 -2.120178 2.120331 C -1.557678 2.682831 -0.795959 2.999237 0.000915527 2.999237 Z M 0.000915527 2.999237 " transform="matrix(1.333333,0,0,1.333333,274.690186,47.059611)"/>
<path style="fill-rule:nonzero;fill:rgb(100%,49.803922%,5.490196%);fill-opacity:1;stroke-width:1;stroke-linecap:butt;stroke-linejoin:round;stroke:rgb(100%,49.803922%,5.490196%);stroke-opacity:1;stroke-miterlimit:4;" d="M 0.000961304 2.998585 C 0.794907 2.998585 1.559555 2.685108 2.122055 2.122608 C 2.684555 1.560108 3.000961 0.79546 3.000961 -0.00141525 C 3.000961 -0.795361 2.684555 -1.560009 2.122055 -2.122509 C 1.559555 -2.685009 0.794907 -3.001415 0.000961304 -3.001415 C -0.795914 -3.001415 -1.557632 -2.685009 -2.120132 -2.122509 C -2.682632 -1.560009 -2.999039 -0.795361 -2.999039 -0.00141525 C -2.999039 0.79546 -2.682632 1.560108 -2.120132 2.122608 C -1.557632 2.685108 -0.795914 2.998585 0.000961304 2.998585 Z M 0.000961304 2.998585 " transform="matrix(1.333333,0,0,1.333333,277.498718,53.955012)"/>
<path style="fill-rule:nonzero;fill:rgb(100%,49.803922%,5.490196%);fill-opacity:1;stroke-width:1;stroke-linecap:butt;stroke-linejoin:round;stroke:rgb(100%,49.803922%,5.490196%);stroke-opacity:1;stroke-miterlimit:4;" d="M -0.00112915 2.999863 C 0.795746 2.999863 1.557465 2.683456 2.119965 2.120956 C 2.682465 1.558456 2.998871 0.796738 2.998871 -0.000137329 C 2.998871 -0.797012 2.682465 -1.558731 2.119965 -2.121231 C 1.557465 -2.683731 0.795746 -3.000137 -0.00112915 -3.000137 C -0.795074 -3.000137 -1.559723 -2.683731 -2.122223 -2.121231 C -2.684723 -1.558731 -3.001129 -0.797012 -3.001129 -0.000137329 C -3.001129 0.796738 -2.684723 1.558456 -2.122223 2.120956 C -1.559723 2.683456 -0.795074 2.999863 -0.00112915 2.999863 Z M -0.00112915 2.999863 " transform="matrix(1.333333,0,0,1.333333,285.454631,56.168152)"/>
<path style="fill-rule:nonzero;fill:rgb(100%,49.803922%,5.490196%);fill-opacity:1;stroke-width:1;stroke-linecap:butt;stroke-linejoin:round;stroke:rgb(100%,49.803922%,5.490196%);stroke-opacity:1;stroke-miterlimit:4;" d="M -0.0000152588 3.000057 C 0.79686 3.000057 1.558578 2.683651 2.121078 2.121151 C 2.683578 1.558651 2.999985 0.796932 2.999985 0.0000572205 C 2.999985 -0.796818 2.683578 -1.558537 2.121078 -2.121037 C 1.558578 -2.683537 0.79686 -2.999943 -0.0000152588 -2.999943 C -0.79689 -2.999943 -1.558609 -2.683537 -2.121109 -2.121037 C -2.683609 -1.558537 -3.000015 -0.796818 -3.000015 0.0000572205 C -3.000015 0.796932 -2.683609 1.558651 -2.121109 2.121151 C -1.558609 2.683651 -0.79689 3.000057 -0.0000152588 3.000057 Z M -0.0000152588 3.000057 " transform="matrix(1.333333,0,0,1.333333,278.453145,51.496017)"/>
<path style="fill-rule:nonzero;fill:rgb(100%,49.803922%,5.490196%);fill-opacity:1;stroke-width:1;stroke-linecap:butt;stroke-linejoin:round;stroke:rgb(100%,49.803922%,5.490196%);stroke-opacity:1;stroke-miterlimit:4;" d="M -0.000320435 3.000332 C 0.796555 3.000332 1.558273 2.683926 2.120773 2.121426 C 2.683273 1.558926 2.99968 0.794277 2.99968 0.000331879 C 2.99968 -0.796543 2.683273 -1.558262 2.120773 -2.120762 C 1.558273 -2.683262 0.796555 -2.999668 -0.000320435 -2.999668 C -0.794266 -2.999668 -1.558914 -2.683262 -2.121414 -2.120762 C -2.683914 -1.558262 -3.00032 -0.796543 -3.00032 0.000331879 C -3.00032 0.794277 -2.683914 1.558926 -2.121414 2.121426 C -1.558914 2.683926 -0.794266 3.000332 -0.000320435 3.000332 Z M -0.000320435 3.000332 " transform="matrix(1.333333,0,0,1.333333,283.062927,47.144089)"/>
<path style="fill-rule:nonzero;fill:rgb(100%,49.803922%,5.490196%);fill-opacity:1;stroke-width:1;stroke-linecap:butt;stroke-linejoin:round;stroke:rgb(100%,49.803922%,5.490196%);stroke-opacity:1;stroke-miterlimit:4;" d="M 0.0000762939 2.999166 C 0.796951 2.999166 1.55867 2.68276 2.12117 2.12026 C 2.68367 1.55776 3.000076 0.796041 3.000076 -0.000833511 C 3.000076 -0.794779 2.68367 -1.559427 2.12117 -2.121927 C 1.55867 -2.684427 0.796951 -3.000834 0.0000762939 -3.000834 C -0.796799 -3.000834 -1.558517 -2.684427 -2.121017 -2.121927 C -2.683517 -1.559427 -2.999924 -0.794779 -2.999924 -0.000833511 C -2.999924 0.796041 -2.683517 1.55776 -2.121017 2.12026 C -1.558517 2.68276 -0.796799 2.999166 0.0000762939 2.999166 Z M 0.0000762939 2.999166 " transform="matrix(1.333333,0,0,1.333333,285.718648,42.10658)"/>
<path style="fill-rule:nonzero;fill:rgb(100%,49.803922%,5.490196%);fill-opacity:1;stroke-width:1;stroke-linecap:butt;stroke-linejoin:round;stroke:rgb(100%,49.803922%,5.490196%);stroke-opacity:1;stroke-miterlimit:4;" d="M 0.000762939 3.000462 C 0.794708 3.000462 1.559357 2.684055 2.121857 2.121555 C 2.684357 1.559055 3.000763 0.794407 3.000763 0.000461578 C 3.000763 -0.796413 2.684357 -1.558132 2.121857 -2.120632 C 1.559357 -2.683132 0.794708 -2.999538 0.000762939 -2.999538 C -0.796112 -2.999538 -1.557831 -2.683132 -2.120331 -2.120632 C -2.682831 -1.558132 -2.999237 -0.796413 -2.999237 0.000461578 C -2.999237 0.794407 -2.682831 1.559055 -2.120331 2.121555 C -1.557831 2.684055 -0.796112 3.000462 0.000762939 3.000462 Z M 0.000762939 3.000462 " transform="matrix(1.333333,0,0,1.333333,282.139608,44.136103)"/>
<path style="fill-rule:nonzero;fill:rgb(100%,49.803922%,5.490196%);fill-opacity:1;stroke-width:1;stroke-linecap:butt;stroke-linejoin:round;stroke:rgb(100%,49.803922%,5.490196%);stroke-opacity:1;stroke-miterlimit:4;" d="M 0.000335693 3.0009 C 0.794281 3.0009 1.558929 2.684494 2.121429 2.121994 C 2.683929 1.559494 3.000336 0.794846 3.000336 0.000900269 C 3.000336 -0.795975 2.683929 -1.557693 2.121429 -2.120193 C 1.558929 -2.682693 0.794281 -2.9991 0.000335693 -2.9991 C -0.796539 -2.9991 -1.558258 -2.682693 -2.120758 -2.120193 C -2.683258 -1.557693 -2.999664 -0.795975 -2.999664 0.000900269 C -2.999664 0.794846 -2.683258 1.559494 -2.120758 2.121994 C -1.558258 2.684494 -0.796539 3.0009 0.000335693 3.0009 Z M 0.000335693 3.0009 " transform="matrix(1.333333,0,0,1.333333,286.964396,51.854268)"/>
<path style="fill-rule:nonzero;fill:rgb(100%,49.803922%,5.490196%);fill-opacity:1;stroke-width:1;stroke-linecap:butt;stroke-linejoin:round;stroke:rgb(100%,49.803922%,5.490196%);stroke-opacity:1;stroke-miterlimit:4;" d="M 0.00138855 3.000233 C 0.795334 3.000233 1.559982 2.683826 2.122482 2.121326 C 2.684982 1.558826 3.001389 0.794178 3.001389 0.000232697 C 3.001389 -0.796642 2.684982 -1.558361 2.122482 -2.120861 C 1.559982 -2.683361 0.795334 -2.999767 0.00138855 -2.999767 C -0.795486 -2.999767 -1.560135 -2.683361 -2.122635 -2.120861 C -2.685135 -1.558361 -2.998611 -0.796642 -2.998611 0.000232697 C -2.998611 0.794178 -2.685135 1.558826 -2.122635 2.121326 C -1.560135 2.683826 -0.795486 3.000233 0.00138855 3.000233 Z M 0.00138855 3.000233 " transform="matrix(1.333333,0,0,1.333333,288.314555,45.534846)"/>
<path style="fill-rule:nonzero;fill:rgb(100%,49.803922%,5.490196%);fill-opacity:1;stroke-width:1;stroke-linecap:butt;stroke-linejoin:round;stroke:rgb(100%,49.803922%,5.490196%);stroke-opacity:1;stroke-miterlimit:4;" d="M -0.000167847 2.999847 C 0.796707 2.999847 1.558426 2.683441 2.120926 2.120941 C 2.683426 1.558441 2.999832 0.796722 2.999832 -0.000152588 C 2.999832 -0.797028 2.683426 -1.558746 2.120926 -2.121246 C 1.558426 -2.683746 0.796707 -3.000153 -0.000167847 -3.000153 C -0.797043 -3.000153 -1.558762 -2.683746 -2.121262 -2.121246 C -2.683762 -1.558746 -3.000168 -0.797028 -3.000168 -0.000152588 C -3.000168 0.796722 -2.683762 1.558441 -2.121262 2.120941 C -1.558762 2.683441 -0.797043 2.999847 -0.000167847 2.999847 Z M -0.000167847 2.999847 " transform="matrix(1.333333,0,0,1.333333,291.500224,51.746297)"/>
<path style="fill-rule:nonzero;fill:rgb(100%,49.803922%,5.490196%);fill-opacity:1;stroke-width:1;stroke-linecap:butt;stroke-linejoin:round;stroke:rgb(100%,49.803922%,5.490196%);stroke-opacity:1;stroke-miterlimit:4;" d="M -0.000549316 3.000477 C 0.796326 3.000477 1.558044 2.684071 2.120544 2.121571 C 2.683044 1.559071 2.999451 0.794422 2.999451 0.000476837 C 2.999451 -0.796398 2.683044 -1.558117 2.120544 -2.120617 C 1.558044 -2.683117 0.796326 -2.999523 -0.000549316 -2.999523 C -0.794495 -2.999523 -1.559143 -2.683117 -2.121643 -2.120617 C -2.684143 -1.558117 -3.000549 -0.796398 -3.000549 0.000476837 C -3.000549 0.794422 -2.684143 1.559071 -2.121643 2.121571 C -1.559143 2.684071 -0.794495 3.000477 -0.000549316 3.000477 Z M -0.000549316 3.000477 " transform="matrix(1.333333,0,0,1.333333,294.246826,55.366552)"/>
<path style="fill-rule:nonzero;fill:rgb(100%,49.803922%,5.490196%);fill-opacity:1;stroke-width:1;stroke-linecap:butt;stroke-linejoin:round;stroke:rgb(100%,49.803922%,5.490196%);stroke-opacity:1;stroke-miterlimit:4;" d="M -0.0000305176 2.998737 C 0.796844 2.998737 1.558563 2.685261 2.121063 2.122761 C 2.683563 1.557331 2.999969 0.795612 2.999969 -0.00126266 C 2.999969 -0.795208 2.683563 -1.559856 2.121063 -2.122356 C 1.558563 -2.684856 0.796844 -3.001263 -0.0000305176 -3.001263 C -0.796906 -3.001263 -1.558624 -2.684856 -2.121124 -2.122356 C -2.683624 -1.559856 -3.000031 -0.795208 -3.000031 -0.00126266 C -3.000031 0.795612 -2.683624 1.557331 -2.121124 2.122761 C -1.558624 2.685261 -0.796906 2.998737 -0.0000305176 2.998737 Z M -0.0000305176 2.998737 " transform="matrix(1.333333,0,0,1.333333,287.511759,61.700902)"/>
<path style="fill-rule:nonzero;fill:rgb(100%,49.803922%,5.490196%);fill-opacity:1;stroke-width:1;stroke-linecap:butt;stroke-linejoin:round;stroke:rgb(100%,49.803922%,5.490196%);stroke-opacity:1;stroke-miterlimit:4;" d="M -0.000671387 3.000671 C 0.796204 3.000671 1.557922 2.684265 2.120422 2.121765 C 2.682922 1.559265 2.999329 0.794617 2.999329 0.000671387 C 2.999329 -0.796204 2.682922 -1.557922 2.120422 -2.120422 C 1.557922 -2.682922 0.796204 -2.999329 -0.000671387 -2.999329 C -0.794617 -2.999329 -1.559265 -2.682922 -2.121765 -2.120422 C -2.684265 -1.557922 -3.000671 -0.796204 -3.000671 0.000671387 C -3.000671 0.794617 -2.684265 1.559265 -2.121765 2.121765 C -1.559265 2.684265 -0.794617 3.000671 -0.000671387 3.000671 Z M -0.000671387 3.000671 " transform="matrix(1.333333,0,0,1.333333,288.618083,58.534261)"/>
<path style="fill-rule:nonzero;fill:rgb(100%,49.803922%,5.490196%);fill-opacity:1;stroke-width:1;stroke-linecap:butt;stroke-linejoin:round;stroke:rgb(100%,49.803922%,5.490196%);stroke-opacity:1;stroke-miterlimit:4;" d="M 0.000183105 2.999573 C 0.797058 2.999573 1.558777 2.683167 2.121277 2.120667 C 2.683777 1.558167 3.000183 0.796448 3.000183 -0.000427246 C 3.000183 -0.794373 2.683777 -1.559021 2.121277 -2.121521 C 1.558777 -2.684021 0.797058 -3.000427 0.000183105 -3.000427 C -0.796692 -3.000427 -1.558411 -2.684021 -2.120911 -2.121521 C -2.683411 -1.559021 -2.999817 -0.794373 -2.999817 -0.000427246 C -2.999817 0.796448 -2.683411 1.558167 -2.120911 2.120667 C -1.558411 2.683167 -0.796692 2.999573 0.000183105 2.999573 Z M 0.000183105 2.999573 " transform="matrix(1.333333,0,0,1.333333,291.300537,64.059163)"/>
<path style="fill-rule:nonzero;fill:rgb(100%,49.803922%,5.490196%);fill-opacity:1;stroke-width:1;stroke-linecap:butt;stroke-linejoin:round;stroke:rgb(100%,49.803922%,5.490196%);stroke-opacity:1;stroke-miterlimit:4;" d="M 0.000488281 2.998611 C 0.794434 2.998611 1.559082 2.685135 2.121582 2.122635 C 2.684082 1.560135 3.000488 0.795486 3.000488 -0.00138855 C 3.000488 -0.795334 2.684082 -1.559982 2.121582 -2.122482 C 1.559082 -2.684982 0.794434 -3.001389 0.000488281 -3.001389 C -0.796387 -3.001389 -1.558105 -2.684982 -2.120605 -2.122482 C -2.683105 -1.559982 -2.999512 -0.795334 -2.999512 -0.00138855 C -2.999512 0.795486 -2.683105 1.560135 -2.120605 2.122635 C -1.558105 2.685135 -0.796387 2.998611 0.000488281 2.998611 Z M 0.000488281 2.998611 " transform="matrix(1.333333,0,0,1.333333,289.17513,54.162008)"/>
<path style="fill-rule:nonzero;fill:rgb(100%,49.803922%,5.490196%);fill-opacity:1;stroke-width:1;stroke-linecap:butt;stroke-linejoin:round;stroke:rgb(100%,49.803922%,5.490196%);stroke-opacity:1;stroke-miterlimit:4;" d="M 0.000823975 3.000668 C 0.794769 3.000668 1.559418 2.684261 2.121918 2.121761 C 2.684418 1.559261 3.000824 0.794613 3.000824 0.000667572 C 3.000824 -0.796207 2.684418 -1.557926 2.121918 -2.120426 C 1.559418 -2.682926 0.794769 -2.999332 0.000823975 -2.999332 C -0.796051 -2.999332 -1.55777 -2.682926 -2.12027 -2.120426 C -2.68277 -1.557926 -2.999176 -0.796207 -2.999176 0.000667572 C -2.999176 0.794613 -2.68277 1.559261 -2.12027 2.121761 C -1.55777 2.684261 -0.796051 3.000668 0.000823975 3.000668 Z M 0.000823975 3.000668 " transform="matrix(1.333333,0,0,1.333333,289.784058,55.878016)"/>
<g clip-path="url(#clip1)" clip-rule="nonzero">
<path style="fill:none;stroke-width:1.5;stroke-linecap:butt;stroke-linejoin:round;stroke:rgb(12.156863%,46.666667%,70.588237%);stroke-opacity:1;stroke-miterlimit:4;" d="M 133.388672 7.201172 L 131.355469 10.754883 L 131.115234 11.226562 L 129.618164 14.308594 L 128.121094 17.862305 L 128.06543 18.023437 L 126.899414 21.416016 L 125.900391 24.969727 L 125.124023 28.523437 L 125.012695 29.232422 L 124.584961 32.077148 L 124.262695 35.630859 L 124.157227 39.18457 L 124.262695 42.738281 L 124.584961 46.291992 L 125.012695 49.136719 L 125.124023 49.845703 L 125.900391 53.399414 L 126.899414 56.953125 L 128.06543 60.345703 L 128.121094 60.506836 L 129.618164 64.060547 L 131.115234 67.142578 L 131.355469 67.614258 L 133.388672 71.167969 L 134.167969 72.383789 L 135.723633 74.72168 L 137.217773 76.754883 L 138.386719 78.27832 L 140.270508 80.516602 L 141.421875 81.832031 L 143.323242 83.821289 L 144.881836 85.385742 L 146.373047 86.765625 L 148.828125 88.939453 L 149.425781 89.428711 L 152.475586 91.819336 L 153.383789 92.493164 L 155.52832 93.981445 L 158.581055 95.988281 L 158.671875 96.046875 L 161.630859 97.769531 L 164.683594 99.439453 L 164.99707 99.600586 L 167.733398 100.918945 L 170.786133 102.290039 L 172.860352 103.154297 L 173.838867 103.538086 L 176.888672 104.642578 L 179.941406 105.650391 L 182.991211 106.564453 L 183.530273 106.708008 L 186.043945 107.34668 L 189.09668 108.029297 L 192.146484 108.621094 L 195.199219 109.12207 L 198.249023 109.532227 L 201.301758 109.851562 L 204.354492 110.080078 L 207.404297 110.214844 L 210.457031 110.261719 L 213.506836 110.214844 L 216.55957 110.080078 L 219.612305 109.851562 L 222.662109 109.532227 L 225.714844 109.12207 L 228.764648 108.621094 L 231.817383 108.029297 L 234.870117 107.34668 L 237.380859 106.708008 L 237.919922 106.564453 " transform="matrix(1.333333,0,0,1.333333,0,0.000000000000014211)"/>
</g>
<g clip-path="url(#clip2)" clip-rule="nonzero">
<path style="fill:none;stroke-width:1.5;stroke-linecap:butt;stroke-linejoin:round;stroke:rgb(12.156863%,46.666667%,70.588237%);stroke-opacity:1;stroke-miterlimit:4;" d="M 94.740234 7.201172 L 94.49707 7.828125 L 93.386719 10.754883 L 92.197266 14.308594 L 91.444336 16.904297 L 91.174805 17.862305 L 90.325195 21.416016 L 89.630859 24.969727 L 89.088867 28.523437 L 88.702148 32.077148 L 88.470703 35.630859 L 88.394531 39.18457 L 88.470703 42.738281 L 88.702148 46.291992 L 89.088867 49.845703 L 89.630859 53.399414 L 90.325195 56.953125 L 91.174805 60.506836 L 91.444336 61.464844 L 92.197266 64.060547 L 93.386719 67.614258 L 94.49707 70.541016 L 94.740234 71.167969 L 96.287109 74.72168 L 97.549805 77.34668 L 98.006836 78.27832 L 99.931641 81.832031 L 100.599609 82.96875 L 102.061523 85.385742 L 103.652344 87.820312 L 104.402344 88.939453 L 106.702148 92.124023 L 106.977539 92.493164 L 109.754883 95.988281 L 109.801758 96.046875 L 112.807617 99.492187 L 112.904297 99.600586 L 115.857422 102.697266 L 116.308594 103.154297 L 118.910156 105.650391 L 120.046875 106.708008 L 121.959961 108.392578 L 124.157227 110.261719 L 125.012695 110.956055 L 128.06543 113.337891 L 128.698242 113.81543 L 131.115234 115.549805 L 133.749023 117.369141 L 134.167969 117.644531 L 137.217773 119.581055 L 139.426758 120.922852 L 140.270508 121.415039 L 143.323242 123.117187 L 145.87793 124.476562 L 146.373047 124.731445 L 149.425781 126.216797 L 152.475586 127.631836 L 153.383789 128.030273 L 155.52832 128.935547 L 158.581055 130.157227 L 161.630859 131.305664 L 162.418945 131.583984 L 164.683594 132.354492 L 167.733398 133.327148 L 170.786133 134.232422 L 173.838867 135.070312 L 174.102539 135.137695 L 176.888672 135.817383 L 179.941406 136.494141 L 182.991211 137.109375 L 186.043945 137.657227 L 189.09668 138.143555 L 192.146484 138.5625 L 193.256836 138.691406 L 195.199219 138.911133 L 198.249023 139.192383 L 201.301758 139.40918 L 204.354492 139.564453 L 207.404297 139.658203 L 210.457031 139.69043 L 213.506836 139.658203 L 216.55957 139.564453 L 219.612305 139.40918 L 222.662109 139.192383 L 225.714844 138.911133 L 227.657227 138.691406 L 228.764648 138.5625 L 231.817383 138.143555 L 234.870117 137.657227 L 237.919922 137.109375 " transform="matrix(1.333333,0,0,1.333333,0,0.000000000000014211)"/>
</g>
<g clip-path="url(#clip3)" clip-rule="nonzero">
<path style="fill:none;stroke-width:1.5;stroke-linecap:butt;stroke-linejoin:round;stroke:rgb(12.156863%,46.666667%,70.588237%);stroke-opacity:1;stroke-miterlimit:4;" d="M 66.102539 7.201172 L 65.009766 10.754883 L 64.045898 14.308594 L 63.981445 14.581055 L 63.225586 17.862305 L 62.53418 21.416016 L 61.96875 24.969727 L 61.526367 28.523437 L 61.212891 32.077148 L 61.025391 35.630859 L 60.960938 39.18457 L 61.025391 42.738281 L 61.212891 46.291992 L 61.526367 49.845703 L 61.96875 53.399414 L 62.53418 56.953125 L 63.225586 60.506836 L 63.981445 63.788086 L 64.045898 64.060547 L 65.009766 67.614258 L 66.102539 71.167969 L 67.03418 73.880859 L 67.327148 74.72168 L 68.707031 78.27832 L 70.083984 81.521484 L 70.21875 81.832031 L 71.894531 85.385742 L 73.136719 87.820312 L 73.719727 88.939453 L 75.706055 92.493164 L 76.186523 93.295898 L 77.871094 96.046875 L 79.239258 98.147461 L 80.208984 99.600586 L 82.291992 102.544922 L 82.731445 103.154297 L 85.341797 106.564453 L 85.456055 106.708008 L 88.394531 110.261719 L 91.444336 113.686523 L 91.564453 113.81543 L 94.49707 116.874023 L 94.986328 117.369141 L 97.549805 119.856445 L 98.677734 120.922852 L 100.599609 122.663086 L 102.662109 124.476562 L 103.652344 125.311523 L 106.702148 127.813477 L 106.977539 128.030273 L 109.754883 130.157227 L 111.679688 131.583984 L 112.807617 132.389648 L 115.857422 134.501953 L 116.80957 135.137695 L 118.910156 136.494141 L 121.959961 138.401367 L 122.443359 138.691406 L 125.012695 140.188477 L 128.06543 141.902344 L 128.698242 142.245117 L 131.115234 143.510742 L 134.167969 145.045898 L 135.723633 145.798828 " transform="matrix(1.333333,0,0,1.333333,0,0.000000000000014211)"/>
</g>
<g clip-path="url(#clip4)" clip-rule="nonzero">
<path style="fill:none;stroke-width:1.5;stroke-linecap:butt;stroke-linejoin:round;stroke:rgb(12.156863%,46.666667%,70.588237%);stroke-opacity:1;stroke-miterlimit:4;" d="M 42.621094 72.383789 L 43.321289 74.72168 L 44.496094 78.27832 L 45.670898 81.521484 L 45.785156 81.832031 L 47.211914 85.385742 L 48.723633 88.87207 L 48.75293 88.939453 L 50.4375 92.493164 L 51.776367 95.129883 L 52.248047 96.046875 L 54.205078 99.600586 L 54.826172 100.666992 L 56.305664 103.154297 L 57.878906 105.650391 L 58.555664 106.708008 L 60.928711 110.214844 L 60.960938 110.261719 L 63.541992 113.81543 L 63.981445 114.392578 L 66.292969 117.369141 L 67.03418 118.277344 L 69.231445 120.922852 L 70.083984 121.907227 L 72.363281 124.476562 L 73.136719 125.311523 L 75.706055 128.030273 L 76.186523 128.519531 L 79.239258 131.548828 L 79.274414 131.583984 L 82.291992 134.402344 L 83.100586 135.137695 L 85.341797 137.109375 L 87.1875 138.691406 L 88.394531 139.69043 L 91.444336 142.151367 L 91.564453 142.245117 L 94.49707 144.474609 L 96.287109 145.798828 " transform="matrix(1.333333,0,0,1.333333,0,0.000000000000014211)"/>
</g>
<g clip-path="url(#clip5)" clip-rule="nonzero">
<path style="fill:none;stroke-width:1.5;stroke-linecap:butt;stroke-linejoin:round;stroke:rgb(12.156863%,46.666667%,70.588237%);stroke-opacity:1;stroke-miterlimit:4;" d="M 42.621094 117.644531 L 44.944336 120.922852 L 45.670898 121.907227 L 47.610352 124.476562 L 48.723633 125.891602 L 50.4375 128.030273 L 51.776367 129.632812 L 53.43457 131.583984 L 54.826172 133.160156 L 56.610352 135.137695 L 57.878906 136.494141 L 59.973633 138.691406 L 60.928711 139.658203 L 63.541992 142.245117 L 63.981445 142.666992 L 67.03418 145.529297 L 67.327148 145.798828 " transform="matrix(1.333333,0,0,1.333333,0,0.000000000000014211)"/>
</g>
<g clip-path="url(#clip6)" clip-rule="nonzero">
<path style="fill:none;stroke-width:1.5;stroke-linecap:butt;stroke-linejoin:round;stroke:rgb(12.156863%,46.666667%,70.588237%);stroke-opacity:1;stroke-miterlimit:4;" d="M 42.621094 145.045898 L 43.321289 145.798828 " transform="matrix(1.333333,0,0,1.333333,0,0.000000000000014211)"/>
</g>
<path style="fill:none;stroke-width:0.8;stroke-linecap:square;stroke-linejoin:miter;stroke:rgb(0%,0%,0%);stroke-opacity:1;stroke-miterlimit:4;" d="M 42.621094 145.798828 L 42.621094 7.201172 " transform="matrix(1.333333,0,0,1.333333,0,0.000000000000014211)"/>
<path style="fill:none;stroke-width:0.8;stroke-linecap:square;stroke-linejoin:miter;stroke:rgb(0%,0%,0%);stroke-opacity:1;stroke-miterlimit:4;" d="M 237.919922 145.798828 L 237.919922 7.201172 " transform="matrix(1.333333,0,0,1.333333,0,0.000000000000014211)"/>
<path style="fill:none;stroke-width:0.8;stroke-linecap:square;stroke-linejoin:miter;stroke:rgb(0%,0%,0%);stroke-opacity:1;stroke-miterlimit:4;" d="M 42.621094 145.798828 L 237.919922 145.798828 " transform="matrix(1.333333,0,0,1.333333,0,0.000000000000014211)"/>
<path style="fill:none;stroke-width:0.8;stroke-linecap:square;stroke-linejoin:miter;stroke:rgb(0%,0%,0%);stroke-opacity:1;stroke-miterlimit:4;" d="M 42.621094 7.201172 L 237.919922 7.201172 " transform="matrix(1.333333,0,0,1.333333,0,0.000000000000014211)"/>
</g>
</svg>
