<?xml version="1.0" encoding="UTF-8"?>
<svg xmlns="http://www.w3.org/2000/svg" xmlns:xlink="http://www.w3.org/1999/xlink" width="326.827087" height="244.474996" viewBox="0 0 326.827087 244.474996" version="1.1">
<defs>
<clipPath id="clip1">
  <path d="M 56.828125 75 L 317.226562 75 L 317.226562 142 L 56.828125 142 Z M 56.828125 75 "/>
</clipPath>
<clipPath id="clip2">
  <path d="M 56.828125 139 L 317.226562 139 L 317.226562 157 L 56.828125 157 Z M 56.828125 139 "/>
</clipPath>
<clipPath id="clip3">
  <path d="M 56.828125 154 L 317.226562 154 L 317.226562 169 L 56.828125 169 Z M 56.828125 154 "/>
</clipPath>
<clipPath id="clip4">
  <path d="M 56.828125 166 L 317.226562 166 L 317.226562 179 L 56.828125 179 Z M 56.828125 166 "/>
</clipPath>
<clipPath id="clip5">
  <path d="M 56.828125 176 L 317.226562 176 L 317.226562 188 L 56.828125 188 Z M 56.828125 176 "/>
</clipPath>
<clipPath id="clip6">
  <path d="M 56.828125 185 L 282 185 L 282 194.398438 L 56.828125 194.398438 Z M 56.828125 185 "/>
</clipPath>
<clipPath id="clip7">
  <path d="M 279 193 L 317.226562 193 L 317.226562 194.398438 L 279 194.398438 Z M 279 193 "/>
</clipPath>
<clipPath id="clip8">
  <path d="M 56.828125 193 L 59 193 L 59 194.398438 L 56.828125 194.398438 Z M 56.828125 193 "/>
</clipPath>
</defs>
<g id="surface1">
<path style=" stroke:none;fill-rule:nonzero;fill:rgb(100%,100%,100%);fill-opacity:1;" d="M 0 244.476562 L 326.828125 244.476562 L 326.828125 0 L 0 0 Z M 0 244.476562 "/>
<path style=" stroke:none;fill-rule:nonzero;fill:rgb(100%,100%,100%);fill-opacity:1;" d="M 56.828125 194.398438 L 317.226562 194.398438 L 317.226562 9.601562 L 56.828125 9.601562 Z M 56.828125 194.398438 "/>
<path style="fill:none;stroke-width:0.8;stroke-linecap:butt;stroke-linejoin:round;stroke:rgb(0%,0%,0%);stroke-opacity:1;stroke-miterlimit:4;" d="M 0.000778198 -0.00117493 L 0.000778198 3.499802 " transform="matrix(1.333333,0,0,1.333333,117.858337,194.400004)"/>
<path style=" stroke:none;fill-rule:nonzero;fill:rgb(0%,0%,0%);fill-opacity:1;" d="M 109.441406 209.132812 L 117.789062 209.132812 L 117.789062 210.238281 L 109.441406 210.238281 Z M 109.441406 209.132812 "/>
<path style=" stroke:none;fill-rule:nonzero;fill:rgb(0%,0%,0%);fill-opacity:1;" d="M 124.242188 205.289062 L 120.921875 210.480469 L 124.242188 210.480469 Z M 123.894531 204.144531 L 125.550781 204.144531 L 125.550781 210.480469 L 126.9375 210.480469 L 126.9375 211.574219 L 125.550781 211.574219 L 125.550781 213.863281 L 124.242188 213.863281 L 124.242188 211.574219 L 119.855469 211.574219 L 119.855469 210.304688 Z M 123.894531 204.144531 "/>
<path style="fill:none;stroke-width:0.8;stroke-linecap:butt;stroke-linejoin:round;stroke:rgb(0%,0%,0%);stroke-opacity:1;stroke-miterlimit:4;" d="M 0.000778198 -0.00117493 L 0.000778198 3.499802 " transform="matrix(1.333333,0,0,1.333333,199.233337,194.400004)"/>
<path style=" stroke:none;fill-rule:nonzero;fill:rgb(0%,0%,0%);fill-opacity:1;" d="M 190.816406 209.132812 L 199.164062 209.132812 L 199.164062 210.238281 L 190.816406 210.238281 Z M 190.816406 209.132812 "/>
<path style=" stroke:none;fill-rule:nonzero;fill:rgb(0%,0%,0%);fill-opacity:1;" d="M 203.136719 212.757812 L 207.726562 212.757812 L 207.726562 213.863281 L 201.554688 213.863281 L 201.554688 212.757812 C 202.054688 212.242188 202.734375 211.546875 203.59375 210.679688 C 204.457031 209.808594 204.996094 209.246094 205.21875 208.992188 C 205.640625 208.523438 205.933594 208.121094 206.101562 207.792969 C 206.269531 207.464844 206.351562 207.144531 206.351562 206.828125 C 206.351562 206.308594 206.171875 205.890625 205.808594 205.566406 C 205.445312 205.238281 204.972656 205.074219 204.390625 205.074219 C 203.980469 205.074219 203.542969 205.148438 203.085938 205.289062 C 202.628906 205.433594 202.140625 205.648438 201.617188 205.941406 L 201.617188 204.613281 C 202.148438 204.398438 202.640625 204.238281 203.101562 204.132812 C 203.5625 204.023438 203.984375 203.96875 204.367188 203.96875 C 205.375 203.96875 206.175781 204.222656 206.773438 204.726562 C 207.375 205.226562 207.671875 205.898438 207.671875 206.742188 C 207.671875 207.140625 207.597656 207.519531 207.449219 207.878906 C 207.300781 208.234375 207.027344 208.65625 206.632812 209.144531 C 206.523438 209.269531 206.179688 209.632812 205.597656 210.234375 C 205.015625 210.835938 204.195312 211.679688 203.136719 212.757812 Z M 203.136719 212.757812 "/>
<path style="fill:none;stroke-width:0.8;stroke-linecap:butt;stroke-linejoin:round;stroke:rgb(0%,0%,0%);stroke-opacity:1;stroke-miterlimit:4;" d="M 0.000778198 -0.00117493 L 0.000778198 3.499802 " transform="matrix(1.333333,0,0,1.333333,280.608337,194.400004)"/>
<path style=" stroke:none;fill-rule:nonzero;fill:rgb(0%,0%,0%);fill-opacity:1;" d="M 280.605469 205.011719 C 279.929688 205.011719 279.417969 205.34375 279.078125 206.011719 C 278.738281 206.675781 278.566406 207.675781 278.566406 209.015625 C 278.566406 210.347656 278.738281 211.347656 279.078125 212.011719 C 279.417969 212.679688 279.929688 213.011719 280.605469 213.011719 C 281.285156 213.011719 281.796875 212.679688 282.136719 212.011719 C 282.480469 211.347656 282.648438 210.347656 282.648438 209.015625 C 282.648438 207.675781 282.480469 206.675781 282.136719 206.011719 C 281.796875 205.34375 281.285156 205.011719 280.605469 205.011719 Z M 280.605469 203.96875 C 281.695312 203.96875 282.527344 204.398438 283.101562 205.261719 C 283.675781 206.125 283.964844 207.375 283.964844 209.015625 C 283.964844 210.652344 283.675781 211.898438 283.101562 212.761719 C 282.527344 213.625 281.695312 214.054688 280.605469 214.054688 C 279.515625 214.054688 278.683594 213.625 278.109375 212.761719 C 277.535156 211.898438 277.246094 210.652344 277.246094 209.015625 C 277.246094 207.375 277.535156 206.125 278.109375 205.261719 C 278.683594 204.398438 279.515625 203.96875 280.605469 203.96875 Z M 280.605469 203.96875 "/>
<path style=" stroke:none;fill-rule:nonzero;fill:rgb(0%,0%,0%);fill-opacity:1;" d="M 186.160156 224.808594 L 183.519531 228.359375 L 186.292969 232.101562 L 184.882812 232.101562 L 182.757812 229.238281 L 180.636719 232.101562 L 179.222656 232.101562 L 182.054688 228.289062 L 179.464844 224.808594 L 180.878906 224.808594 L 182.808594 227.410156 L 184.742188 224.808594 Z M 186.160156 224.808594 "/>
<path style=" stroke:none;fill-rule:nonzero;fill:rgb(0%,0%,0%);fill-opacity:1;" d="M 188.382812 230.996094 L 190.53125 230.996094 L 190.53125 223.578125 L 188.195312 224.046875 L 188.195312 222.851562 L 190.519531 222.382812 L 191.835938 222.382812 L 191.835938 230.996094 L 193.980469 230.996094 L 193.980469 232.101562 L 188.382812 232.101562 Z M 188.382812 230.996094 "/>
<path style="fill:none;stroke-width:0.8;stroke-linecap:butt;stroke-linejoin:round;stroke:rgb(0%,0%,0%);stroke-opacity:1;stroke-miterlimit:4;" d="M 0.000782013 -0.000366211 L -3.500195 -0.000366211 " transform="matrix(1.333333,0,0,1.333333,56.827082,164.055176)"/>
<path style=" stroke:none;fill-rule:nonzero;fill:rgb(0%,0%,0%);fill-opacity:1;" d="M 29.25 164.386719 L 37.597656 164.386719 L 37.597656 165.492188 L 29.25 165.492188 Z M 29.25 164.386719 "/>
<path style=" stroke:none;fill-rule:nonzero;fill:rgb(0%,0%,0%);fill-opacity:1;" d="M 41.566406 168.015625 L 46.15625 168.015625 L 46.15625 169.121094 L 39.988281 169.121094 L 39.988281 168.015625 C 40.484375 167.496094 41.164062 166.804688 42.027344 165.933594 C 42.886719 165.066406 43.429688 164.503906 43.652344 164.25 C 44.070312 163.777344 44.367188 163.378906 44.53125 163.050781 C 44.699219 162.722656 44.785156 162.398438 44.785156 162.082031 C 44.785156 161.566406 44.601562 161.144531 44.242188 160.820312 C 43.878906 160.496094 43.40625 160.332031 42.824219 160.332031 C 42.410156 160.332031 41.976562 160.402344 41.519531 160.546875 C 41.0625 160.6875 40.570312 160.90625 40.050781 161.199219 L 40.050781 159.867188 C 40.582031 159.65625 41.074219 159.496094 41.535156 159.386719 C 41.996094 159.277344 42.417969 159.226562 42.800781 159.226562 C 43.804688 159.226562 44.609375 159.476562 45.207031 159.980469 C 45.804688 160.484375 46.105469 161.15625 46.105469 161.996094 C 46.105469 162.398438 46.03125 162.777344 45.878906 163.136719 C 45.730469 163.492188 45.460938 163.914062 45.0625 164.398438 C 44.957031 164.527344 44.609375 164.890625 44.027344 165.492188 C 43.449219 166.09375 42.628906 166.933594 41.566406 168.015625 Z M 41.566406 168.015625 "/>
<path style="fill:none;stroke-width:0.8;stroke-linecap:butt;stroke-linejoin:round;stroke:rgb(0%,0%,0%);stroke-opacity:1;stroke-miterlimit:4;" d="M 0.000782013 0.00125122 L -3.500195 0.00125122 " transform="matrix(1.333333,0,0,1.333333,56.827082,103.365519)"/>
<path style=" stroke:none;fill-rule:nonzero;fill:rgb(0%,0%,0%);fill-opacity:1;" d="M 43.246094 99.578125 C 42.570312 99.578125 42.0625 99.910156 41.722656 100.578125 C 41.378906 101.242188 41.210938 102.242188 41.210938 103.582031 C 41.210938 104.914062 41.378906 105.914062 41.722656 106.578125 C 42.0625 107.246094 42.570312 107.578125 43.246094 107.578125 C 43.929688 107.578125 44.441406 107.246094 44.78125 106.578125 C 45.121094 105.914062 45.292969 104.914062 45.292969 103.582031 C 45.292969 102.242188 45.121094 101.242188 44.78125 100.578125 C 44.441406 99.910156 43.929688 99.578125 43.246094 99.578125 Z M 43.246094 98.535156 C 44.339844 98.535156 45.171875 98.964844 45.746094 99.828125 C 46.320312 100.691406 46.609375 101.941406 46.609375 103.582031 C 46.609375 105.21875 46.320312 106.464844 45.746094 107.328125 C 45.171875 108.191406 44.339844 108.621094 43.246094 108.621094 C 42.160156 108.621094 41.328125 108.191406 40.753906 107.328125 C 40.175781 106.464844 39.890625 105.21875 39.890625 103.582031 C 39.890625 101.941406 40.175781 100.691406 40.753906 99.828125 C 41.328125 98.964844 42.160156 98.535156 43.246094 98.535156 Z M 43.246094 98.535156 "/>
<path style="fill:none;stroke-width:0.8;stroke-linecap:butt;stroke-linejoin:round;stroke:rgb(0%,0%,0%);stroke-opacity:1;stroke-miterlimit:4;" d="M 0.000782013 -0.0000610352 L -3.500195 -0.0000610352 " transform="matrix(1.333333,0,0,1.333333,56.827082,42.675863)"/>
<path style=" stroke:none;fill-rule:nonzero;fill:rgb(0%,0%,0%);fill-opacity:1;" d="M 41.570312 46.636719 L 46.160156 46.636719 L 46.160156 47.742188 L 39.988281 47.742188 L 39.988281 46.636719 C 40.484375 46.117188 41.164062 45.425781 42.027344 44.554688 C 42.890625 43.683594 43.429688 43.125 43.652344 42.871094 C 44.074219 42.398438 44.367188 42 44.535156 41.671875 C 44.703125 41.34375 44.785156 41.019531 44.785156 40.703125 C 44.785156 40.1875 44.605469 39.765625 44.242188 39.441406 C 43.878906 39.113281 43.40625 38.953125 42.824219 38.953125 C 42.414062 38.953125 41.976562 39.023438 41.519531 39.167969 C 41.0625 39.308594 40.574219 39.527344 40.050781 39.820312 L 40.050781 38.488281 C 40.582031 38.277344 41.074219 38.117188 41.535156 38.007812 C 41.996094 37.898438 42.417969 37.84375 42.800781 37.84375 C 43.808594 37.84375 44.609375 38.097656 45.207031 38.601562 C 45.808594 39.105469 46.105469 39.777344 46.105469 40.617188 C 46.105469 41.019531 46.03125 41.398438 45.882812 41.757812 C 45.734375 42.113281 45.460938 42.535156 45.066406 43.019531 C 44.957031 43.148438 44.609375 43.511719 44.027344 44.113281 C 43.449219 44.714844 42.628906 45.554688 41.570312 46.636719 Z M 41.570312 46.636719 "/>
<path style=" stroke:none;fill-rule:nonzero;fill:rgb(0%,0%,0%);fill-opacity:1;" d="M 12.441406 102.867188 L 15.988281 105.507812 L 19.730469 102.734375 L 19.730469 104.144531 L 16.867188 106.269531 L 19.730469 108.390625 L 19.730469 109.804688 L 15.917969 106.972656 L 12.441406 109.5625 L 12.441406 108.148438 L 15.039062 106.214844 L 12.441406 104.285156 Z M 12.441406 102.867188 "/>
<path style=" stroke:none;fill-rule:nonzero;fill:rgb(0%,0%,0%);fill-opacity:1;" d="M 18.625 99.738281 L 18.625 95.148438 L 19.730469 95.148438 L 19.730469 101.320312 L 18.625 101.320312 C 18.109375 100.820312 17.414062 100.140625 16.546875 99.28125 C 15.675781 98.417969 15.113281 97.875 14.859375 97.65625 C 14.386719 97.234375 13.988281 96.941406 13.660156 96.773438 C 13.332031 96.605469 13.011719 96.523438 12.695312 96.523438 C 12.175781 96.523438 11.757812 96.703125 11.429688 97.066406 C 11.105469 97.429688 10.941406 97.898438 10.941406 98.480469 C 10.941406 98.894531 11.011719 99.332031 11.15625 99.789062 C 11.300781 100.246094 11.515625 100.734375 11.808594 101.253906 L 10.480469 101.253906 C 10.265625 100.726562 10.105469 100.230469 9.996094 99.773438 C 9.890625 99.3125 9.835938 98.890625 9.835938 98.507812 C 9.835938 97.5 10.085938 96.699219 10.589844 96.097656 C 11.09375 95.5 11.765625 95.199219 12.609375 95.199219 C 13.007812 95.199219 13.386719 95.277344 13.746094 95.425781 C 14.101562 95.574219 14.523438 95.847656 15.011719 96.242188 C 15.136719 96.351562 15.5 96.695312 16.101562 97.277344 C 16.703125 97.859375 17.542969 98.679688 18.625 99.738281 Z M 18.625 99.738281 "/>
<path style="fill:none;stroke-width:1.5;stroke-linecap:square;stroke-linejoin:round;stroke:rgb(100%,49.803922%,5.490196%);stroke-opacity:1;stroke-miterlimit:4;" d="M 57.878906 123.041016 L 76.186523 13.798828 L 101.455078 112.116211 L 127.168945 78.251953 L 150.020508 59.572266 L 168.697266 93.316406 L 183.046875 72.287109 L 193.511719 74.34082 L 200.777344 83.006836 L 205.570312 74.179687 L 208.555664 77.791992 L 210.275391 78.955078 L 211.157227 76.101562 L 211.511719 78.087891 L 211.564453 77.727539 L 211.456055 77.05957 L 211.283203 77.841797 L 211.098633 77.472656 L 210.928711 77.414062 L 210.785156 77.651367 L 210.676758 77.466797 " transform="matrix(1.333333,0,0,1.333333,0,0.000000000000014211)"/>
<path style="fill-rule:nonzero;fill:rgb(100%,49.803922%,5.490196%);fill-opacity:1;stroke-width:1;stroke-linecap:butt;stroke-linejoin:round;stroke:rgb(100%,49.803922%,5.490196%);stroke-opacity:1;stroke-miterlimit:4;" d="M 0.000782013 2.999634 C 0.794727 2.999634 1.559376 2.683228 2.121876 2.120728 C 2.684376 1.558228 3.000782 0.796509 3.000782 -0.000366211 C 3.000782 -0.794312 2.684376 -1.55896 2.121876 -2.12146 C 1.559376 -2.68396 0.794727 -3.000366 0.000782013 -3.000366 C -0.796093 -3.000366 -1.557812 -2.68396 -2.120312 -2.12146 C -2.682812 -1.55896 -2.999218 -0.794312 -2.999218 -0.000366211 C -2.999218 0.796509 -2.682812 1.558228 -2.120312 2.120728 C -1.557812 2.683228 -0.796093 2.999634 0.000782013 2.999634 Z M 0.000782013 2.999634 " transform="matrix(1.333333,0,0,1.333333,77.170832,164.055176)"/>
<path style="fill-rule:nonzero;fill:rgb(100%,49.803922%,5.490196%);fill-opacity:1;stroke-width:1;stroke-linecap:butt;stroke-linejoin:round;stroke:rgb(100%,49.803922%,5.490196%);stroke-opacity:1;stroke-miterlimit:4;" d="M -0.000976562 2.998828 C 0.795898 2.998828 1.557617 2.685351 2.120117 2.119922 C 2.682617 1.557422 2.999023 0.795703 2.999023 -0.00117207 C 2.999023 -0.795117 2.682617 -1.559766 2.120117 -2.122266 C 1.557617 -2.684766 0.795898 -3.001172 -0.000976562 -3.001172 C -0.794922 -3.001172 -1.55957 -2.684766 -2.12207 -2.122266 C -2.68457 -1.559766 -3.000977 -0.795117 -3.000977 -0.00117207 C -3.000977 0.795703 -2.68457 1.557422 -2.12207 2.119922 C -1.55957 2.685351 -0.794922 2.998828 -0.000976562 2.998828 Z M -0.000976562 2.998828 " transform="matrix(1.333333,0,0,1.333333,101.583333,18.4)"/>
<path style="fill-rule:nonzero;fill:rgb(100%,49.803922%,5.490196%);fill-opacity:1;stroke-width:1;stroke-linecap:butt;stroke-linejoin:round;stroke:rgb(100%,49.803922%,5.490196%);stroke-opacity:1;stroke-miterlimit:4;" d="M 0.000640869 2.99897 C 0.794586 2.99897 1.559235 2.682564 2.121735 2.120064 C 2.684235 1.557564 3.000641 0.795845 3.000641 -0.00102997 C 3.000641 -0.794975 2.684235 -1.559624 2.121735 -2.122124 C 1.559235 -2.684624 0.794586 -3.00103 0.000640869 -3.00103 C -0.796234 -3.00103 -1.557953 -2.684624 -2.120453 -2.122124 C -2.682953 -1.559624 -2.999359 -0.794975 -2.999359 -0.00102997 C -2.999359 0.795845 -2.682953 1.557564 -2.120453 2.120064 C -1.557953 2.682564 -0.796234 2.99897 0.000640869 2.99897 Z M 0.000640869 2.99897 " transform="matrix(1.333333,0,0,1.333333,135.272583,149.489655)"/>
<path style="fill-rule:nonzero;fill:rgb(100%,49.803922%,5.490196%);fill-opacity:1;stroke-width:1;stroke-linecap:butt;stroke-linejoin:round;stroke:rgb(100%,49.803922%,5.490196%);stroke-opacity:1;stroke-miterlimit:4;" d="M 0.000823975 2.999542 C 0.794769 2.999542 1.559418 2.683136 2.121918 2.120636 C 2.684418 1.558136 3.000824 0.796417 3.000824 -0.000457764 C 3.000824 -0.794403 2.684418 -1.559052 2.121918 -2.121552 C 1.559418 -2.684052 0.794769 -3.000458 0.000823975 -3.000458 C -0.796051 -3.000458 -1.55777 -2.684052 -2.12027 -2.121552 C -2.68277 -1.559052 -2.999176 -0.794403 -2.999176 -0.000457764 C -2.999176 0.796417 -2.68277 1.558136 -2.12027 2.120636 C -1.55777 2.683136 -0.796051 2.999542 0.000823975 2.999542 Z M 0.000823975 2.999542 " transform="matrix(1.333333,0,0,1.333333,169.557495,104.336548)"/>
<path style="fill-rule:nonzero;fill:rgb(100%,49.803922%,5.490196%);fill-opacity:1;stroke-width:1;stroke-linecap:butt;stroke-linejoin:round;stroke:rgb(100%,49.803922%,5.490196%);stroke-opacity:1;stroke-miterlimit:4;" d="M 0.000961304 3.000126 C 0.794907 3.000126 1.559555 2.68372 2.122055 2.12122 C 2.684555 1.55872 3.000961 0.797001 3.000961 0.000125885 C 3.000961 -0.796749 2.684555 -1.558468 2.122055 -2.120968 C 1.559555 -2.683468 0.794907 -2.999874 0.000961304 -2.999874 C -0.795914 -2.999874 -1.557632 -2.683468 -2.120132 -2.120968 C -2.682632 -1.558468 -2.999039 -0.796749 -2.999039 0.000125885 C -2.999039 0.797001 -2.682632 1.55872 -2.120132 2.12122 C -1.557632 2.68372 -0.795914 3.000126 0.000961304 3.000126 Z M 0.000961304 3.000126 " transform="matrix(1.333333,0,0,1.333333,200.026062,79.42952)"/>
<path style="fill-rule:nonzero;fill:rgb(100%,49.803922%,5.490196%);fill-opacity:1;stroke-width:1;stroke-linecap:butt;stroke-linejoin:round;stroke:rgb(100%,49.803922%,5.490196%);stroke-opacity:1;stroke-miterlimit:4;" d="M -0.000396729 2.999603 C 0.796478 2.999603 1.558197 2.683197 2.120697 2.120697 C 2.683197 1.558197 2.999603 0.796478 2.999603 -0.000396729 C 2.999603 -0.794342 2.683197 -1.55899 2.120697 -2.12149 C 1.558197 -2.68399 0.796478 -3.000397 -0.000396729 -3.000397 C -0.794342 -3.000397 -1.55899 -2.68399 -2.12149 -2.12149 C -2.68399 -1.55899 -3.000397 -0.794342 -3.000397 -0.000396729 C -3.000397 0.796478 -2.68399 1.558197 -2.12149 2.120697 C -1.55899 2.683197 -0.794342 2.999603 -0.000396729 2.999603 Z M -0.000396729 2.999603 " transform="matrix(1.333333,0,0,1.333333,224.930216,124.422404)"/>
<path style="fill-rule:nonzero;fill:rgb(100%,49.803922%,5.490196%);fill-opacity:1;stroke-width:1;stroke-linecap:butt;stroke-linejoin:round;stroke:rgb(100%,49.803922%,5.490196%);stroke-opacity:1;stroke-miterlimit:4;" d="M -0.000869751 3.000366 C 0.796005 3.000366 1.557724 2.68396 2.120224 2.12146 C 2.682724 1.55896 2.99913 0.794312 2.99913 0.000366211 C 2.99913 -0.796509 2.682724 -1.558228 2.120224 -2.120728 C 1.557724 -2.683228 0.796005 -2.999634 -0.000869751 -2.999634 C -0.794815 -2.999634 -1.559464 -2.683228 -2.121964 -2.120728 C -2.684464 -1.558228 -3.00087 -0.796509 -3.00087 0.000366211 C -3.00087 0.794312 -2.684464 1.55896 -2.121964 2.12146 C -1.559464 2.68396 -0.794815 3.000366 -0.000869751 3.000366 Z M -0.000869751 3.000366 " transform="matrix(1.333333,0,0,1.333333,244.06366,96.382324)"/>
<path style="fill-rule:nonzero;fill:rgb(100%,49.803922%,5.490196%);fill-opacity:1;stroke-width:1;stroke-linecap:butt;stroke-linejoin:round;stroke:rgb(100%,49.803922%,5.490196%);stroke-opacity:1;stroke-miterlimit:4;" d="M -0.0000915527 2.999359 C 0.796783 2.999359 1.558502 2.682953 2.121002 2.120453 C 2.683502 1.557953 2.999908 0.796234 2.999908 -0.000640869 C 2.999908 -0.794586 2.683502 -1.559235 2.121002 -2.121735 C 1.558502 -2.684235 0.796783 -3.000641 -0.0000915527 -3.000641 C -0.796967 -3.000641 -1.558685 -2.684235 -2.121185 -2.121735 C -2.683685 -1.559235 -3.000092 -0.794586 -3.000092 -0.000640869 C -3.000092 0.796234 -2.683685 1.557953 -2.121185 2.120453 C -1.558685 2.682953 -0.796967 2.999359 -0.0000915527 2.999359 Z M -0.0000915527 2.999359 " transform="matrix(1.333333,0,0,1.333333,258.015747,99.121948)"/>
<path style="fill-rule:nonzero;fill:rgb(100%,49.803922%,5.490196%);fill-opacity:1;stroke-width:1;stroke-linecap:butt;stroke-linejoin:round;stroke:rgb(100%,49.803922%,5.490196%);stroke-opacity:1;stroke-miterlimit:4;" d="M 0.000167847 2.999596 C 0.797043 2.999596 1.558762 2.683189 2.121262 2.120689 C 2.683762 1.558189 3.000168 0.796471 3.000168 -0.000404358 C 3.000168 -0.79435 2.683762 -1.558998 2.121262 -2.121498 C 1.558762 -2.683998 0.797043 -3.000404 0.000167847 -3.000404 C -0.796707 -3.000404 -1.558426 -2.683998 -2.120926 -2.121498 C -2.683426 -1.558998 -2.999832 -0.79435 -2.999832 -0.000404358 C -2.999832 0.796471 -2.683426 1.558189 -2.120926 2.120689 C -1.558426 2.683189 -0.796707 2.999596 0.000167847 2.999596 Z M 0.000167847 2.999596 " transform="matrix(1.333333,0,0,1.333333,267.702901,110.67632)"/>
<path style="fill-rule:nonzero;fill:rgb(100%,49.803922%,5.490196%);fill-opacity:1;stroke-width:1;stroke-linecap:butt;stroke-linejoin:round;stroke:rgb(100%,49.803922%,5.490196%);stroke-opacity:1;stroke-miterlimit:4;" d="M -0.0010376 2.999008 C 0.795837 2.999008 1.557556 2.682602 2.120056 2.120102 C 2.682556 1.557602 2.998962 0.795883 2.998962 -0.000991821 C 2.998962 -0.794937 2.682556 -1.559586 2.120056 -2.122086 C 1.557556 -2.684586 0.795837 -3.000992 -0.0010376 -3.000992 C -0.794983 -3.000992 -1.559631 -2.684586 -2.122131 -2.122086 C -2.684631 -1.559586 -3.001038 -0.794937 -3.001038 -0.000991821 C -3.001038 0.795883 -2.684631 1.557602 -2.122131 2.120102 C -1.559631 2.682602 -0.794983 2.999008 -0.0010376 2.999008 Z M -0.0010376 2.999008 " transform="matrix(1.333333,0,0,1.333333,274.095133,98.907572)"/>
<path style="fill-rule:nonzero;fill:rgb(100%,49.803922%,5.490196%);fill-opacity:1;stroke-width:1;stroke-linecap:butt;stroke-linejoin:round;stroke:rgb(100%,49.803922%,5.490196%);stroke-opacity:1;stroke-miterlimit:4;" d="M 0.0010376 3.000298 C 0.794983 3.000298 1.559631 2.683891 2.122131 2.121391 C 2.684631 1.558891 3.001038 0.794243 3.001038 0.000297546 C 3.001038 -0.796577 2.684631 -1.558296 2.122131 -2.120796 C 1.559631 -2.683296 0.794983 -2.999702 0.0010376 -2.999702 C -0.795837 -2.999702 -1.557556 -2.683296 -2.120056 -2.120796 C -2.682556 -1.558296 -2.998962 -0.796577 -2.998962 0.000297546 C -2.998962 0.794243 -2.682556 1.558891 -2.120056 2.121391 C -1.557556 2.683891 -0.795837 3.000298 0.0010376 3.000298 Z M 0.0010376 3.000298 " transform="matrix(1.333333,0,0,1.333333,278.072835,103.72226)"/>
<path style="fill-rule:nonzero;fill:rgb(100%,49.803922%,5.490196%);fill-opacity:1;stroke-width:1;stroke-linecap:butt;stroke-linejoin:round;stroke:rgb(100%,49.803922%,5.490196%);stroke-opacity:1;stroke-miterlimit:4;" d="M 0.000930786 3.000015 C 0.794876 3.000015 1.559525 2.683609 2.122025 2.121109 C 2.684525 1.558609 3.000931 0.79689 3.000931 0.0000152588 C 3.000931 -0.79686 2.684525 -1.558578 2.122025 -2.121078 C 1.559525 -2.683578 0.794876 -2.999985 0.000930786 -2.999985 C -0.795944 -2.999985 -1.557663 -2.683578 -2.120163 -2.121078 C -2.682663 -1.558578 -2.999069 -0.79686 -2.999069 0.0000152588 C -2.999069 0.79689 -2.682663 1.558609 -2.120163 2.121109 C -1.557663 2.683609 -0.795944 3.000015 0.000930786 3.000015 Z M 0.000930786 3.000015 " transform="matrix(1.333333,0,0,1.333333,280.365946,105.273417)"/>
<path style="fill-rule:nonzero;fill:rgb(100%,49.803922%,5.490196%);fill-opacity:1;stroke-width:1;stroke-linecap:butt;stroke-linejoin:round;stroke:rgb(100%,49.803922%,5.490196%);stroke-opacity:1;stroke-miterlimit:4;" d="M 0.0010376 2.999039 C 0.794983 2.999039 1.559631 2.682632 2.122131 2.120132 C 2.684631 1.557632 3.001038 0.795914 3.001038 -0.000961304 C 3.001038 -0.794907 2.684631 -1.559555 2.122131 -2.122055 C 1.559631 -2.684555 0.794983 -3.000961 0.0010376 -3.000961 C -0.795837 -3.000961 -1.557556 -2.684555 -2.120056 -2.122055 C -2.682556 -1.559555 -2.998962 -0.794907 -2.998962 -0.000961304 C -2.998962 0.795914 -2.682556 1.557632 -2.120056 2.120132 C -1.557556 2.682632 -0.795837 2.999039 0.0010376 2.999039 Z M 0.0010376 2.999039 " transform="matrix(1.333333,0,0,1.333333,281.541585,101.470032)"/>
<path style="fill-rule:nonzero;fill:rgb(100%,49.803922%,5.490196%);fill-opacity:1;stroke-width:1;stroke-linecap:butt;stroke-linejoin:round;stroke:rgb(100%,49.803922%,5.490196%);stroke-opacity:1;stroke-miterlimit:4;" d="M -0.00134277 2.999763 C 0.795532 2.999763 1.560181 2.683357 2.122681 2.120857 C 2.685181 1.558357 2.998657 0.796638 2.998657 -0.000236511 C 2.998657 -0.794182 2.685181 -1.55883 2.122681 -2.12133 C 1.560181 -2.68383 0.795532 -3.000237 -0.00134277 -3.000237 C -0.795288 -3.000237 -1.559937 -2.68383 -2.122437 -2.12133 C -2.684937 -1.55883 -3.001343 -0.794182 -3.001343 -0.000236511 C -3.001343 0.796638 -2.684937 1.558357 -2.122437 2.120857 C -1.559937 2.683357 -0.795288 2.999763 -0.00134277 2.999763 Z M -0.00134277 2.999763 " transform="matrix(1.333333,0,0,1.333333,282.017415,104.117503)"/>
<path style="fill-rule:nonzero;fill:rgb(100%,49.803922%,5.490196%);fill-opacity:1;stroke-width:1;stroke-linecap:butt;stroke-linejoin:round;stroke:rgb(100%,49.803922%,5.490196%);stroke-opacity:1;stroke-miterlimit:4;" d="M -0.000228882 3.000183 C 0.796646 3.000183 1.558365 2.683777 2.120865 2.121277 C 2.683365 1.558777 2.999771 0.797058 2.999771 0.000183105 C 2.999771 -0.796692 2.683365 -1.558411 2.120865 -2.120911 C 1.558365 -2.683411 0.796646 -2.999817 -0.000228882 -2.999817 C -0.794174 -2.999817 -1.558823 -2.683411 -2.121323 -2.120911 C -2.683823 -1.558411 -3.000229 -0.796692 -3.000229 0.000183105 C -3.000229 0.797058 -2.683823 1.558777 -2.121323 2.121277 C -1.558823 2.683777 -0.794174 3.000183 -0.000228882 3.000183 Z M -0.000228882 3.000183 " transform="matrix(1.333333,0,0,1.333333,282.086243,103.636475)"/>
<path style="fill-rule:nonzero;fill:rgb(100%,49.803922%,5.490196%);fill-opacity:1;stroke-width:1;stroke-linecap:butt;stroke-linejoin:round;stroke:rgb(100%,49.803922%,5.490196%);stroke-opacity:1;stroke-miterlimit:4;" d="M -0.00141907 3.00032 C 0.795456 3.00032 1.560104 2.683914 2.122604 2.121414 C 2.685104 1.558914 2.998581 0.794266 2.998581 0.000320435 C 2.998581 -0.796555 2.685104 -1.558273 2.122604 -2.120773 C 1.560104 -2.683273 0.795456 -2.99968 -0.00141907 -2.99968 C -0.795364 -2.99968 -1.560013 -2.683273 -2.122513 -2.120773 C -2.685013 -1.558273 -3.001419 -0.796555 -3.001419 0.000320435 C -3.001419 0.794266 -2.685013 1.558914 -2.122513 2.121414 C -1.560013 2.683914 -0.795364 3.00032 -0.00141907 3.00032 Z M -0.00141907 3.00032 " transform="matrix(1.333333,0,0,1.333333,281.943298,102.745667)"/>
<path style="fill-rule:nonzero;fill:rgb(100%,49.803922%,5.490196%);fill-opacity:1;stroke-width:1;stroke-linecap:butt;stroke-linejoin:round;stroke:rgb(100%,49.803922%,5.490196%);stroke-opacity:1;stroke-miterlimit:4;" d="M -0.000534058 3.00087 C 0.796341 3.00087 1.55806 2.684464 2.12056 2.121964 C 2.68306 1.559464 2.999466 0.794815 2.999466 0.000869751 C 2.999466 -0.796005 2.68306 -1.557724 2.12056 -2.120224 C 1.55806 -2.682724 0.796341 -2.99913 -0.000534058 -2.99913 C -0.794479 -2.99913 -1.559128 -2.682724 -2.121628 -2.120224 C -2.684128 -1.557724 -3.000534 -0.796005 -3.000534 0.000869751 C -3.000534 0.794815 -2.684128 1.559464 -2.121628 2.121964 C -1.559128 2.684464 -0.794479 3.00087 -0.000534058 3.00087 Z M -0.000534058 3.00087 " transform="matrix(1.333333,0,0,1.333333,281.71165,103.787903)"/>
<path style="fill-rule:nonzero;fill:rgb(100%,49.803922%,5.490196%);fill-opacity:1;stroke-width:1;stroke-linecap:butt;stroke-linejoin:round;stroke:rgb(100%,49.803922%,5.490196%);stroke-opacity:1;stroke-miterlimit:4;" d="M 0.00106812 3.001183 C 0.795013 3.001183 1.559662 2.684776 2.122162 2.122276 C 2.684662 1.559776 3.001068 0.795128 3.001068 0.00118256 C 3.001068 -0.795692 2.684662 -1.557411 2.122162 -2.119911 C 1.559662 -2.685341 0.795013 -2.998817 0.00106812 -2.998817 C -0.795807 -2.998817 -1.557526 -2.685341 -2.120026 -2.119911 C -2.682526 -1.557411 -2.998932 -0.795692 -2.998932 0.00118256 C -2.998932 0.795128 -2.682526 1.559776 -2.120026 2.122276 C -1.557526 2.684776 -0.795807 3.001183 0.00106812 3.001183 Z M 0.00106812 3.001183 " transform="matrix(1.333333,0,0,1.333333,281.46342,103.295298)"/>
<path style="fill-rule:nonzero;fill:rgb(100%,49.803922%,5.490196%);fill-opacity:1;stroke-width:1;stroke-linecap:butt;stroke-linejoin:round;stroke:rgb(100%,49.803922%,5.490196%);stroke-opacity:1;stroke-miterlimit:4;" d="M 0.00119019 3.000923 C 0.795135 3.000923 1.559784 2.684517 2.122284 2.122017 C 2.684784 1.559517 3.00119 0.794868 3.00119 0.000923157 C 3.00119 -0.795952 2.684784 -1.557671 2.122284 -2.120171 C 1.559784 -2.682671 0.795135 -2.999077 0.00119019 -2.999077 C -0.795685 -2.999077 -1.557404 -2.682671 -2.119904 -2.120171 C -2.685333 -1.557671 -2.99881 -0.795952 -2.99881 0.000923157 C -2.99881 0.794868 -2.685333 1.559517 -2.119904 2.122017 C -1.557404 2.684517 -0.795685 3.000923 0.00119019 3.000923 Z M 0.00119019 3.000923 " transform="matrix(1.333333,0,0,1.333333,281.236694,103.217519)"/>
<path style="fill-rule:nonzero;fill:rgb(100%,49.803922%,5.490196%);fill-opacity:1;stroke-width:1;stroke-linecap:butt;stroke-linejoin:round;stroke:rgb(100%,49.803922%,5.490196%);stroke-opacity:1;stroke-miterlimit:4;" d="M -0.000778198 3.000999 C 0.796097 3.000999 1.557816 2.684593 2.120316 2.122093 C 2.682816 1.559593 2.999222 0.794945 2.999222 0.000999451 C 2.999222 -0.795876 2.682816 -1.557594 2.120316 -2.120094 C 1.557816 -2.682594 0.796097 -2.999001 -0.000778198 -2.999001 C -0.794724 -2.999001 -1.559372 -2.682594 -2.121872 -2.120094 C -2.684372 -1.557594 -3.000778 -0.795876 -3.000778 0.000999451 C -3.000778 0.794945 -2.684372 1.559593 -2.121872 2.122093 C -1.559372 2.684593 -0.794724 3.000999 -0.000778198 3.000999 Z M -0.000778198 3.000999 " transform="matrix(1.333333,0,0,1.333333,281.047913,103.533824)"/>
<path style="fill-rule:nonzero;fill:rgb(100%,49.803922%,5.490196%);fill-opacity:1;stroke-width:1;stroke-linecap:butt;stroke-linejoin:round;stroke:rgb(100%,49.803922%,5.490196%);stroke-opacity:1;stroke-miterlimit:4;" d="M 0.00115967 3.000771 C 0.795105 3.000771 1.559753 2.684364 2.122253 2.121864 C 2.684753 1.559364 3.00116 0.794716 3.00116 0.000770569 C 3.00116 -0.796104 2.684753 -1.557823 2.122253 -2.120323 C 1.559753 -2.682823 0.795105 -2.999229 0.00115967 -2.999229 C -0.795715 -2.999229 -1.557434 -2.682823 -2.119934 -2.120323 C -2.685364 -1.557823 -2.99884 -0.796104 -2.99884 0.000770569 C -2.99884 0.794716 -2.685364 1.559364 -2.119934 2.121864 C -1.557434 2.684364 -0.795715 3.000771 0.00115967 3.000771 Z M 0.00115967 3.000771 " transform="matrix(1.333333,0,0,1.333333,280.900798,103.288035)"/>
<g clip-path="url(#clip1)" clip-rule="nonzero">
<path style="fill:none;stroke-width:1.5;stroke-linecap:butt;stroke-linejoin:round;stroke:rgb(12.156863%,46.666667%,70.588237%);stroke-opacity:1;stroke-miterlimit:4;" d="M 97.101562 57.041016 L 94.49707 57.46875 L 91.444336 57.984375 L 88.394531 58.514648 L 85.341797 59.056641 L 83.90918 59.317383 L 82.291992 59.651367 L 79.239258 60.295898 L 76.186523 60.955078 L 73.306641 61.59375 L 73.136719 61.637695 L 70.083984 62.43457 L 67.03418 63.246094 L 64.751953 63.870117 L 63.981445 64.116211 L 60.928711 65.121094 L 57.878906 66.143555 L 54.826172 67.420898 L 52.485352 68.419922 L 51.776367 68.80957 L 48.723633 70.517578 L 48.410156 70.696289 L 45.670898 72.881836 L 45.55957 72.972656 L 43.880859 75.249023 L 43.321289 77.525391 L 43.880859 79.798828 L 45.55957 82.075195 L 45.670898 82.166016 L 48.410156 84.351562 L 48.723633 84.530273 L 51.776367 86.238281 L 52.485352 86.62793 L 54.826172 87.626953 L 57.878906 88.904297 L 60.928711 89.926758 L 63.981445 90.931641 L 64.751953 91.180664 L 67.03418 91.801758 L 70.083984 92.616211 L 73.136719 93.410156 L 73.306641 93.454102 L 76.186523 94.092773 L 79.239258 94.751953 L 82.291992 95.396484 L 83.90918 95.730469 L 85.341797 95.991211 L 88.394531 96.533203 L 91.444336 97.063477 L 94.49707 97.579102 L 97.101562 98.006836 L 97.549805 98.074219 L 100.599609 98.510742 L 103.652344 98.935547 L 106.702148 99.348633 L 109.754883 99.75 L 112.807617 100.139648 L 113.967773 100.283203 L 115.857422 100.494141 L 118.910156 100.825195 L 121.959961 101.144531 L 125.012695 101.452148 L 128.06543 101.750977 L 131.115234 102.038086 L 134.167969 102.313477 L 136.96875 102.55957 L 137.217773 102.577148 L 140.270508 102.811523 L 143.323242 103.03418 L 146.373047 103.245117 L 149.425781 103.450195 L 152.475586 103.643555 L 155.52832 103.825195 L 158.581055 103.998047 L 161.630859 104.162109 L 164.683594 104.314453 L 167.733398 104.458008 L 170.786133 104.592773 L 173.838867 104.71582 L 176.888672 104.830078 L 177.035156 104.835937 L 179.941406 104.926758 L 182.991211 105.011719 L 186.043945 105.09082 L 189.09668 105.158203 L 192.146484 105.216797 L 195.199219 105.266602 L 198.249023 105.307617 L 201.301758 105.339844 L 204.354492 105.363281 L 207.404297 105.375 L 210.457031 105.380859 L 213.506836 105.375 L 216.55957 105.363281 L 219.612305 105.339844 L 222.662109 105.307617 L 225.714844 105.266602 L 228.764648 105.216797 L 231.817383 105.158203 L 234.870117 105.09082 L 237.919922 105.011719 " transform="matrix(1.333333,0,0,1.333333,0,0.000000000000014211)"/>
</g>
<g clip-path="url(#clip2)" clip-rule="nonzero">
<path style="fill:none;stroke-width:1.5;stroke-linecap:butt;stroke-linejoin:round;stroke:rgb(12.156863%,46.666667%,70.588237%);stroke-opacity:1;stroke-miterlimit:4;" d="M 42.621094 105.266602 L 45.670898 105.761719 L 48.723633 106.250977 L 51.776367 106.728516 L 54.263672 107.109375 L 54.826172 107.191406 L 57.878906 107.616211 L 60.928711 108.032227 L 63.981445 108.442383 L 67.03418 108.84375 L 70.083984 109.233398 L 71.291016 109.385742 L 73.136719 109.602539 L 76.186523 109.951172 L 79.239258 110.293945 L 82.291992 110.625 L 85.341797 110.953125 L 88.394531 111.269531 L 91.444336 111.580078 L 92.276367 111.662109 L 94.49707 111.867187 L 97.549805 112.142578 L 100.599609 112.412109 L 103.652344 112.672852 L 106.702148 112.924805 L 109.754883 113.170898 L 112.807617 113.408203 L 115.857422 113.639648 L 118.910156 113.865234 L 119.944336 113.938477 L 121.959961 114.073242 L 125.012695 114.269531 L 128.06543 114.459961 L 131.115234 114.641602 L 134.167969 114.817383 L 137.217773 114.987305 L 140.270508 115.148437 L 143.323242 115.303711 L 146.373047 115.453125 L 149.425781 115.59375 L 152.475586 115.728516 L 155.52832 115.854492 L 158.581055 115.974609 L 161.630859 116.088867 L 164.683594 116.197266 L 165.208008 116.214844 L 167.733398 116.291016 L 170.786133 116.378906 L 173.838867 116.460937 L 176.888672 116.537109 L 179.941406 116.604492 L 182.991211 116.666016 L 186.043945 116.72168 L 189.09668 116.768555 L 192.146484 116.8125 L 195.199219 116.847656 L 198.249023 116.876953 L 201.301758 116.900391 L 204.354492 116.915039 L 207.404297 116.926758 L 210.457031 116.929687 L 213.506836 116.926758 L 216.55957 116.915039 L 219.612305 116.900391 L 222.662109 116.876953 L 225.714844 116.847656 L 228.764648 116.8125 L 231.817383 116.768555 L 234.870117 116.72168 L 237.919922 116.666016 " transform="matrix(1.333333,0,0,1.333333,0,0.000000000000014211)"/>
</g>
<g clip-path="url(#clip3)" clip-rule="nonzero">
<path style="fill:none;stroke-width:1.5;stroke-linecap:butt;stroke-linejoin:round;stroke:rgb(12.156863%,46.666667%,70.588237%);stroke-opacity:1;stroke-miterlimit:4;" d="M 42.621094 116.847656 L 45.670898 117.202148 L 48.723633 117.550781 L 51.776367 117.890625 L 54.826172 118.227539 L 57.272461 118.488281 L 57.878906 118.549805 L 60.928711 118.854492 L 63.981445 119.15332 L 67.03418 119.446289 L 70.083984 119.733398 L 73.136719 120.011719 L 76.186523 120.287109 L 79.239258 120.553711 L 81.714844 120.764648 L 82.291992 120.811523 L 85.341797 121.054687 L 88.394531 121.291992 L 91.444336 121.520508 L 94.49707 121.746094 L 97.549805 121.96582 L 100.599609 122.176758 L 103.652344 122.384766 L 106.702148 122.586914 L 109.754883 122.780273 L 112.807617 122.970703 L 113.967773 123.041016 L 115.857422 123.149414 L 118.910156 123.319336 L 121.959961 123.483398 L 125.012695 123.641602 L 128.06543 123.793945 L 131.115234 123.94043 L 134.167969 124.081055 L 137.217773 124.21875 L 140.270508 124.347656 L 143.323242 124.473633 L 146.373047 124.59375 L 149.425781 124.708008 L 152.475586 124.813477 L 155.52832 124.918945 L 158.581055 125.015625 L 161.630859 125.106445 L 164.683594 125.191406 L 167.733398 125.273437 L 169.543945 125.317383 L 170.786133 125.34668 L 173.838867 125.411133 L 176.888672 125.472656 L 179.941406 125.52832 L 182.991211 125.578125 L 186.043945 125.625 L 189.09668 125.663086 L 192.146484 125.698242 L 195.199219 125.727539 L 198.249023 125.750977 L 201.301758 125.768555 L 204.354492 125.783203 L 207.404297 125.791992 L 210.457031 125.794922 L 213.506836 125.791992 L 216.55957 125.783203 L 219.612305 125.768555 L 222.662109 125.750977 L 225.714844 125.727539 L 228.764648 125.698242 L 231.817383 125.663086 L 234.870117 125.625 L 237.919922 125.578125 " transform="matrix(1.333333,0,0,1.333333,0,0.000000000000014211)"/>
</g>
<g clip-path="url(#clip4)" clip-rule="nonzero">
<path style="fill:none;stroke-width:1.5;stroke-linecap:butt;stroke-linejoin:round;stroke:rgb(12.156863%,46.666667%,70.588237%);stroke-opacity:1;stroke-miterlimit:4;" d="M 42.621094 125.727539 L 45.670898 126.014648 L 48.723633 126.298828 L 51.776367 126.577148 L 54.826172 126.849609 L 57.878906 127.116211 L 60.928711 127.379883 L 63.477539 127.59375 L 63.981445 127.634766 L 67.03418 127.875 L 70.083984 128.109375 L 73.136719 128.337891 L 76.186523 128.563477 L 79.239258 128.783203 L 82.291992 129 L 85.341797 129.208008 L 88.394531 129.413086 L 91.444336 129.612305 L 94.49707 129.808594 L 95.472656 129.870117 L 97.549805 129.993164 L 100.599609 130.168945 L 103.652344 130.341797 L 106.702148 130.508789 L 109.754883 130.669922 L 112.807617 130.828125 L 115.857422 130.980469 L 118.910156 131.126953 L 121.959961 131.270508 L 125.012695 131.408203 L 128.06543 131.542969 L 131.115234 131.668945 L 134.167969 131.794922 L 137.217773 131.912109 L 140.270508 132.026367 L 143.323242 132.134766 L 143.604492 132.143555 L 146.373047 132.234375 L 149.425781 132.331055 L 152.475586 132.421875 L 155.52832 132.506836 L 158.581055 132.588867 L 161.630859 132.665039 L 164.683594 132.738281 L 167.733398 132.805664 L 170.786133 132.867188 L 173.838867 132.925781 L 176.888672 132.978516 L 179.941406 133.02832 L 182.991211 133.072266 L 186.043945 133.110352 L 189.09668 133.145508 L 192.146484 133.174805 L 195.199219 133.201172 L 198.249023 133.22168 L 201.301758 133.239258 L 204.354492 133.250977 L 207.404297 133.256836 L 210.457031 133.259766 L 213.506836 133.256836 L 216.55957 133.250977 L 219.612305 133.239258 L 222.662109 133.22168 L 225.714844 133.201172 L 228.764648 133.174805 L 231.817383 133.145508 L 234.870117 133.110352 L 237.919922 133.072266 " transform="matrix(1.333333,0,0,1.333333,0,0.000000000000014211)"/>
</g>
<g clip-path="url(#clip5)" clip-rule="nonzero">
<path style="fill:none;stroke-width:1.5;stroke-linecap:butt;stroke-linejoin:round;stroke:rgb(12.156863%,46.666667%,70.588237%);stroke-opacity:1;stroke-miterlimit:4;" d="M 42.621094 133.201172 L 45.670898 133.456055 L 51.776367 133.948242 L 54.826172 134.185547 L 57.878906 134.419922 L 60.928711 134.642578 L 63.981445 134.859375 L 67.03418 135.070312 L 70.083984 135.27832 L 73.136719 135.480469 L 76.186523 135.679688 L 79.239258 135.873047 L 82.291992 136.063477 L 85.341797 136.248047 L 88.394531 136.429688 L 91.444336 136.605469 L 93.070312 136.696289 L 94.49707 136.772461 L 97.549805 136.933594 L 100.599609 137.091797 L 103.652344 137.244141 L 106.702148 137.393555 L 109.754883 137.537109 L 112.807617 137.674805 L 115.857422 137.80957 L 118.910156 137.941406 L 121.959961 138.067383 L 125.012695 138.19043 L 128.06543 138.307617 L 131.115234 138.421875 L 134.167969 138.533203 L 137.217773 138.638672 L 140.270508 138.738281 L 143.323242 138.834961 L 146.373047 138.928711 L 147.9375 138.972656 L 149.425781 139.013672 L 152.475586 139.095703 L 155.52832 139.171875 L 158.581055 139.242188 L 161.630859 139.3125 L 164.683594 139.376953 L 167.733398 139.435547 L 170.786133 139.491211 L 173.838867 139.543945 L 176.888672 139.59082 L 179.941406 139.634766 L 182.991211 139.672852 L 186.043945 139.708008 L 189.09668 139.740234 L 192.146484 139.766602 L 195.199219 139.790039 L 198.249023 139.807617 L 201.301758 139.822266 L 204.354492 139.833984 L 207.404297 139.839844 L 210.457031 139.842773 L 213.506836 139.839844 L 216.55957 139.833984 L 219.612305 139.822266 L 222.662109 139.807617 L 225.714844 139.790039 L 228.764648 139.766602 L 231.817383 139.740234 L 234.870117 139.708008 L 237.919922 139.672852 " transform="matrix(1.333333,0,0,1.333333,0,0.000000000000014211)"/>
</g>
<g clip-path="url(#clip6)" clip-rule="nonzero">
<path style="fill:none;stroke-width:1.5;stroke-linecap:butt;stroke-linejoin:round;stroke:rgb(12.156863%,46.666667%,70.588237%);stroke-opacity:1;stroke-miterlimit:4;" d="M 42.621094 139.790039 L 45.670898 140.015625 L 51.776367 140.455078 L 54.826172 140.666016 L 57.878906 140.876953 L 60.928711 141.082031 L 63.477539 141.249023 L 63.981445 141.28125 L 67.03418 141.46875 L 70.083984 141.65625 L 73.136719 141.837891 L 76.186523 142.013672 L 79.239258 142.189453 L 82.291992 142.359375 L 85.341797 142.523438 L 88.394531 142.68457 L 91.444336 142.842773 L 94.49707 142.998047 L 97.549805 143.147461 L 100.599609 143.293945 L 103.652344 143.43457 L 105.641602 143.525391 L 106.702148 143.569336 L 109.754883 143.698242 L 112.807617 143.824219 L 115.857422 143.947266 L 118.910156 144.064453 L 121.959961 144.178711 L 125.012695 144.287109 L 128.06543 144.392578 L 131.115234 144.495117 L 134.167969 144.594727 L 137.217773 144.688477 L 140.270508 144.779297 L 143.323242 144.867188 L 146.373047 144.949219 L 149.425781 145.02832 L 152.475586 145.104492 L 155.52832 145.174805 L 158.581055 145.242188 L 161.630859 145.306641 L 164.683594 145.365234 L 167.733398 145.420898 L 170.786133 145.473633 L 173.838867 145.523438 L 176.888672 145.567383 L 179.941406 145.608398 L 182.991211 145.643555 L 186.043945 145.675781 L 189.09668 145.705078 L 192.146484 145.731445 L 195.199219 145.751953 L 198.249023 145.769531 L 204.354492 145.792969 L 207.404297 145.798828 L 210.457031 145.798828 " transform="matrix(1.333333,0,0,1.333333,0,0.000000000000014211)"/>
</g>
<g clip-path="url(#clip7)" clip-rule="nonzero">
<path style="fill:none;stroke-width:1.5;stroke-linecap:butt;stroke-linejoin:round;stroke:rgb(12.156863%,46.666667%,70.588237%);stroke-opacity:1;stroke-miterlimit:4;" d="M 210.457031 145.798828 L 213.506836 145.798828 L 216.55957 145.792969 L 219.612305 145.78125 L 222.662109 145.769531 L 225.714844 145.751953 L 228.764648 145.731445 L 231.817383 145.705078 L 234.870117 145.675781 L 237.919922 145.643555 " transform="matrix(1.333333,0,0,1.333333,0,0.000000000000014211)"/>
</g>
<g clip-path="url(#clip8)" clip-rule="nonzero">
<path style="fill:none;stroke-width:1.5;stroke-linecap:butt;stroke-linejoin:round;stroke:rgb(12.156863%,46.666667%,70.588237%);stroke-opacity:1;stroke-miterlimit:4;" d="M 42.621094 145.751953 L 43.321289 145.798828 " transform="matrix(1.333333,0,0,1.333333,0,0.000000000000014211)"/>
</g>
<path style="fill:none;stroke-width:0.8;stroke-linecap:square;stroke-linejoin:miter;stroke:rgb(0%,0%,0%);stroke-opacity:1;stroke-miterlimit:4;" d="M 42.621094 145.798828 L 42.621094 7.201172 " transform="matrix(1.333333,0,0,1.333333,0,0.000000000000014211)"/>
<path style="fill:none;stroke-width:0.8;stroke-linecap:square;stroke-linejoin:miter;stroke:rgb(0%,0%,0%);stroke-opacity:1;stroke-miterlimit:4;" d="M 237.919922 145.798828 L 237.919922 7.201172 " transform="matrix(1.333333,0,0,1.333333,0,0.000000000000014211)"/>
<path style="fill:none;stroke-width:0.8;stroke-linecap:square;stroke-linejoin:miter;stroke:rgb(0%,0%,0%);stroke-opacity:1;stroke-miterlimit:4;" d="M 42.621094 145.798828 L 237.919922 145.798828 " transform="matrix(1.333333,0,0,1.333333,0,0.000000000000014211)"/>
<path style="fill:none;stroke-width:0.8;stroke-linecap:square;stroke-linejoin:miter;stroke:rgb(0%,0%,0%);stroke-opacity:1;stroke-miterlimit:4;" d="M 42.621094 7.201172 L 237.919922 7.201172 " transform="matrix(1.333333,0,0,1.333333,0,0.000000000000014211)"/>
</g>
</svg>
