<?xml version="1.0" encoding="UTF-8"?>
<svg xmlns="http://www.w3.org/2000/svg" xmlns:xlink="http://www.w3.org/1999/xlink" width="352.2771" height="244.474996" viewBox="0 0 352.2771 244.474996" version="1.1">
<defs>
<clipPath id="clip1">
  <path d="M 82.277344 86 L 342.675781 86 L 342.675781 90 L 82.277344 90 Z M 82.277344 86 "/>
</clipPath>
<clipPath id="clip2">
  <path d="M 82.277344 87 L 342.675781 87 L 342.675781 90 L 82.277344 90 Z M 82.277344 87 "/>
</clipPath>
<clipPath id="clip3">
  <path d="M 82.277344 87 L 308 87 L 308 90 L 82.277344 90 Z M 82.277344 87 "/>
</clipPath>
<clipPath id="clip4">
  <path d="M 305 87 L 342.675781 87 L 342.675781 90 L 305 90 Z M 305 87 "/>
</clipPath>
<clipPath id="clip5">
  <path d="M 82.277344 87 L 85 87 L 85 90 L 82.277344 90 Z M 82.277344 87 "/>
</clipPath>
</defs>
<g id="surface1">
<path style=" stroke:none;fill-rule:nonzero;fill:rgb(100%,100%,100%);fill-opacity:1;" d="M 0 244.476562 L 352.277344 244.476562 L 352.277344 0 L 0 0 Z M 0 244.476562 "/>
<path style=" stroke:none;fill-rule:nonzero;fill:rgb(100%,100%,100%);fill-opacity:1;" d="M 82.277344 194.398438 L 342.675781 194.398438 L 342.675781 9.601562 L 82.277344 9.601562 Z M 82.277344 194.398438 "/>
<path style="fill:none;stroke-width:0.8;stroke-linecap:butt;stroke-linejoin:round;stroke:rgb(0%,0%,0%);stroke-opacity:1;stroke-miterlimit:4;" d="M 0.000198364 -0.00117493 L 0.000198364 3.499802 " transform="matrix(1.333333,0,0,1.333333,143.308329,194.400004)"/>
<path style=" stroke:none;fill-rule:nonzero;fill:rgb(0%,0%,0%);fill-opacity:1;" d="M 134.894531 209.132812 L 143.238281 209.132812 L 143.238281 210.238281 L 134.894531 210.238281 Z M 134.894531 209.132812 "/>
<path style=" stroke:none;fill-rule:nonzero;fill:rgb(0%,0%,0%);fill-opacity:1;" d="M 149.691406 205.289062 L 146.371094 210.480469 L 149.691406 210.480469 Z M 149.347656 204.144531 L 151 204.144531 L 151 210.480469 L 152.386719 210.480469 L 152.386719 211.574219 L 151 211.574219 L 151 213.863281 L 149.691406 213.863281 L 149.691406 211.574219 L 145.304688 211.574219 L 145.304688 210.304688 Z M 149.347656 204.144531 "/>
<path style="fill:none;stroke-width:0.8;stroke-linecap:butt;stroke-linejoin:round;stroke:rgb(0%,0%,0%);stroke-opacity:1;stroke-miterlimit:4;" d="M 0.000198364 -0.00117493 L 0.000198364 3.499802 " transform="matrix(1.333333,0,0,1.333333,224.683329,194.400004)"/>
<path style=" stroke:none;fill-rule:nonzero;fill:rgb(0%,0%,0%);fill-opacity:1;" d="M 216.269531 209.132812 L 224.613281 209.132812 L 224.613281 210.238281 L 216.269531 210.238281 Z M 216.269531 209.132812 "/>
<path style=" stroke:none;fill-rule:nonzero;fill:rgb(0%,0%,0%);fill-opacity:1;" d="M 228.585938 212.757812 L 233.175781 212.757812 L 233.175781 213.863281 L 227.003906 213.863281 L 227.003906 212.757812 C 227.503906 212.242188 228.183594 211.546875 229.042969 210.679688 C 229.90625 209.808594 230.449219 209.246094 230.667969 208.992188 C 231.089844 208.523438 231.382812 208.121094 231.550781 207.792969 C 231.71875 207.464844 231.800781 207.144531 231.800781 206.828125 C 231.800781 206.308594 231.621094 205.890625 231.257812 205.566406 C 230.894531 205.238281 230.421875 205.074219 229.839844 205.074219 C 229.429688 205.074219 228.992188 205.148438 228.535156 205.289062 C 228.078125 205.433594 227.589844 205.648438 227.070312 205.941406 L 227.070312 204.613281 C 227.597656 204.398438 228.09375 204.238281 228.550781 204.132812 C 229.011719 204.023438 229.433594 203.96875 229.816406 203.96875 C 230.824219 203.96875 231.625 204.222656 232.226562 204.726562 C 232.824219 205.226562 233.121094 205.898438 233.121094 206.742188 C 233.121094 207.140625 233.046875 207.519531 232.898438 207.878906 C 232.75 208.234375 232.476562 208.65625 232.082031 209.144531 C 231.972656 209.269531 231.628906 209.632812 231.046875 210.234375 C 230.464844 210.835938 229.644531 211.679688 228.585938 212.757812 Z M 228.585938 212.757812 "/>
<path style="fill:none;stroke-width:0.8;stroke-linecap:butt;stroke-linejoin:round;stroke:rgb(0%,0%,0%);stroke-opacity:1;stroke-miterlimit:4;" d="M 0.000198364 -0.00117493 L 0.000198364 3.499802 " transform="matrix(1.333333,0,0,1.333333,306.058329,194.400004)"/>
<path style=" stroke:none;fill-rule:nonzero;fill:rgb(0%,0%,0%);fill-opacity:1;" d="M 306.054688 205.011719 C 305.378906 205.011719 304.867188 205.34375 304.527344 206.011719 C 304.1875 206.675781 304.015625 207.675781 304.015625 209.015625 C 304.015625 210.347656 304.1875 211.347656 304.527344 212.011719 C 304.867188 212.679688 305.378906 213.011719 306.054688 213.011719 C 306.734375 213.011719 307.246094 212.679688 307.585938 212.011719 C 307.929688 211.347656 308.101562 210.347656 308.101562 209.015625 C 308.101562 207.675781 307.929688 206.675781 307.585938 206.011719 C 307.246094 205.34375 306.734375 205.011719 306.054688 205.011719 Z M 306.054688 203.96875 C 307.144531 203.96875 307.976562 204.398438 308.550781 205.261719 C 309.128906 206.125 309.414062 207.375 309.414062 209.015625 C 309.414062 210.652344 309.128906 211.898438 308.550781 212.761719 C 307.976562 213.625 307.144531 214.054688 306.054688 214.054688 C 304.964844 214.054688 304.132812 213.625 303.558594 212.761719 C 302.984375 211.898438 302.695312 210.652344 302.695312 209.015625 C 302.695312 207.375 302.984375 206.125 303.558594 205.261719 C 304.132812 204.398438 304.964844 203.96875 306.054688 203.96875 Z M 306.054688 203.96875 "/>
<path style=" stroke:none;fill-rule:nonzero;fill:rgb(0%,0%,0%);fill-opacity:1;" d="M 211.609375 224.808594 L 208.972656 228.359375 L 211.742188 232.101562 L 210.332031 232.101562 L 208.207031 229.238281 L 206.085938 232.101562 L 204.671875 232.101562 L 207.507812 228.289062 L 204.914062 224.808594 L 206.328125 224.808594 L 208.261719 227.410156 L 210.195312 224.808594 Z M 211.609375 224.808594 "/>
<path style=" stroke:none;fill-rule:nonzero;fill:rgb(0%,0%,0%);fill-opacity:1;" d="M 213.835938 230.996094 L 215.980469 230.996094 L 215.980469 223.578125 L 213.644531 224.046875 L 213.644531 222.851562 L 215.96875 222.382812 L 217.285156 222.382812 L 217.285156 230.996094 L 219.433594 230.996094 L 219.433594 232.101562 L 213.835938 232.101562 Z M 213.835938 230.996094 "/>
<path style="fill:none;stroke-width:0.8;stroke-linecap:butt;stroke-linejoin:round;stroke:rgb(0%,0%,0%);stroke-opacity:1;stroke-miterlimit:4;" d="M 0.00019455 0.00133514 L -3.500782 0.00133514 " transform="matrix(1.333333,0,0,1.333333,82.277084,146.564626)"/>
<path style=" stroke:none;fill-rule:nonzero;fill:rgb(0%,0%,0%);fill-opacity:1;" d="M 29.25 146.898438 L 37.597656 146.898438 L 37.597656 148.003906 L 29.25 148.003906 Z M 29.25 146.898438 "/>
<path style=" stroke:none;fill-rule:nonzero;fill:rgb(0%,0%,0%);fill-opacity:1;" d="M 40.664062 150.523438 L 42.8125 150.523438 L 42.8125 143.105469 L 40.472656 143.574219 L 40.472656 142.378906 L 42.800781 141.910156 L 44.113281 141.910156 L 44.113281 150.523438 L 46.261719 150.523438 L 46.261719 151.628906 L 40.664062 151.628906 Z M 40.664062 150.523438 "/>
<path style=" stroke:none;fill-rule:nonzero;fill:rgb(0%,0%,0%);fill-opacity:1;" d="M 51.730469 142.777344 C 51.054688 142.777344 50.542969 143.109375 50.203125 143.777344 C 49.863281 144.441406 49.691406 145.441406 49.691406 146.78125 C 49.691406 148.113281 49.863281 149.113281 50.203125 149.777344 C 50.542969 150.445312 51.054688 150.777344 51.730469 150.777344 C 52.410156 150.777344 52.921875 150.445312 53.261719 149.777344 C 53.605469 149.113281 53.777344 148.113281 53.777344 146.78125 C 53.777344 145.441406 53.605469 144.441406 53.261719 143.777344 C 52.921875 143.109375 52.410156 142.777344 51.730469 142.777344 Z M 51.730469 141.734375 C 52.820312 141.734375 53.652344 142.164062 54.226562 143.027344 C 54.804688 143.890625 55.089844 145.140625 55.089844 146.78125 C 55.089844 148.417969 54.804688 149.664062 54.226562 150.527344 C 53.652344 151.390625 52.820312 151.820312 51.730469 151.820312 C 50.640625 151.820312 49.808594 151.390625 49.234375 150.527344 C 48.660156 149.664062 48.371094 148.417969 48.371094 146.78125 C 48.371094 145.140625 48.660156 143.890625 49.234375 143.027344 C 49.808594 142.164062 50.640625 141.734375 51.730469 141.734375 Z M 51.730469 141.734375 "/>
<path style=" stroke:none;fill-rule:nonzero;fill:rgb(0%,0%,0%);fill-opacity:1;" d="M 60.214844 142.777344 C 59.535156 142.777344 59.027344 143.109375 58.6875 143.777344 C 58.34375 144.441406 58.175781 145.441406 58.175781 146.78125 C 58.175781 148.113281 58.34375 149.113281 58.6875 149.777344 C 59.027344 150.445312 59.535156 150.777344 60.214844 150.777344 C 60.894531 150.777344 61.40625 150.445312 61.746094 149.777344 C 62.089844 149.113281 62.257812 148.113281 62.257812 146.78125 C 62.257812 145.441406 62.089844 144.441406 61.746094 143.777344 C 61.40625 143.109375 60.894531 142.777344 60.214844 142.777344 Z M 60.214844 141.734375 C 61.304688 141.734375 62.136719 142.164062 62.710938 143.027344 C 63.285156 143.890625 63.574219 145.140625 63.574219 146.78125 C 63.574219 148.417969 63.285156 149.664062 62.710938 150.527344 C 62.136719 151.390625 61.304688 151.820312 60.214844 151.820312 C 59.125 151.820312 58.292969 151.390625 57.71875 150.527344 C 57.140625 149.664062 56.855469 148.417969 56.855469 146.78125 C 56.855469 145.140625 57.140625 143.890625 57.71875 143.027344 C 58.292969 142.164062 59.125 141.734375 60.214844 141.734375 Z M 60.214844 141.734375 "/>
<path style=" stroke:none;fill-rule:nonzero;fill:rgb(0%,0%,0%);fill-opacity:1;" d="M 68.695312 142.777344 C 68.019531 142.777344 67.511719 143.109375 67.167969 143.777344 C 66.828125 144.441406 66.660156 145.441406 66.660156 146.78125 C 66.660156 148.113281 66.828125 149.113281 67.167969 149.777344 C 67.511719 150.445312 68.019531 150.777344 68.695312 150.777344 C 69.378906 150.777344 69.890625 150.445312 70.230469 149.777344 C 70.570312 149.113281 70.742188 148.113281 70.742188 146.78125 C 70.742188 145.441406 70.570312 144.441406 70.230469 143.777344 C 69.890625 143.109375 69.378906 142.777344 68.695312 142.777344 Z M 68.695312 141.734375 C 69.785156 141.734375 70.617188 142.164062 71.195312 143.027344 C 71.769531 143.890625 72.054688 145.140625 72.054688 146.78125 C 72.054688 148.417969 71.769531 149.664062 71.195312 150.527344 C 70.617188 151.390625 69.785156 151.820312 68.695312 151.820312 C 67.605469 151.820312 66.773438 151.390625 66.199219 150.527344 C 65.625 149.664062 65.335938 148.417969 65.335938 146.78125 C 65.335938 145.140625 65.625 143.890625 66.199219 143.027344 C 66.773438 142.164062 67.605469 141.734375 68.695312 141.734375 Z M 68.695312 141.734375 "/>
<path style="fill:none;stroke-width:0.8;stroke-linecap:butt;stroke-linejoin:round;stroke:rgb(0%,0%,0%);stroke-opacity:1;stroke-miterlimit:4;" d="M 0.00019455 -0.000000000000014211 L -3.500782 -0.000000000000014211 " transform="matrix(1.333333,0,0,1.333333,82.277084,88)"/>
<path style=" stroke:none;fill-rule:nonzero;fill:rgb(0%,0%,0%);fill-opacity:1;" d="M 68.699219 84.210938 C 68.023438 84.210938 67.511719 84.542969 67.171875 85.210938 C 66.832031 85.875 66.660156 86.878906 66.660156 88.214844 C 66.660156 89.546875 66.832031 90.546875 67.171875 91.214844 C 67.511719 91.878906 68.023438 92.214844 68.699219 92.214844 C 69.378906 92.214844 69.890625 91.878906 70.230469 91.214844 C 70.574219 90.546875 70.742188 89.546875 70.742188 88.214844 C 70.742188 86.878906 70.574219 85.875 70.230469 85.210938 C 69.890625 84.542969 69.378906 84.210938 68.699219 84.210938 Z M 68.699219 83.167969 C 69.789062 83.167969 70.621094 83.601562 71.195312 84.464844 C 71.769531 85.324219 72.058594 86.574219 72.058594 88.214844 C 72.058594 89.851562 71.769531 91.101562 71.195312 91.964844 C 70.621094 92.824219 69.789062 93.253906 68.699219 93.253906 C 67.609375 93.253906 66.777344 92.824219 66.203125 91.964844 C 65.628906 91.101562 65.339844 89.851562 65.339844 88.214844 C 65.339844 86.574219 65.628906 85.324219 66.203125 84.464844 C 66.777344 83.601562 67.609375 83.167969 68.699219 83.167969 Z M 68.699219 83.167969 "/>
<path style="fill:none;stroke-width:0.8;stroke-linecap:butt;stroke-linejoin:round;stroke:rgb(0%,0%,0%);stroke-opacity:1;stroke-miterlimit:4;" d="M 0.00019455 -0.00133514 L -3.500782 -0.00133514 " transform="matrix(1.333333,0,0,1.333333,82.277084,29.435374)"/>
<path style=" stroke:none;fill-rule:nonzero;fill:rgb(0%,0%,0%);fill-opacity:1;" d="M 40.664062 33.394531 L 42.8125 33.394531 L 42.8125 25.976562 L 40.476562 26.445312 L 40.476562 25.25 L 42.800781 24.78125 L 44.113281 24.78125 L 44.113281 33.394531 L 46.261719 33.394531 L 46.261719 34.5 L 40.664062 34.5 Z M 40.664062 33.394531 "/>
<path style=" stroke:none;fill-rule:nonzero;fill:rgb(0%,0%,0%);fill-opacity:1;" d="M 51.730469 25.648438 C 51.054688 25.648438 50.546875 25.980469 50.203125 26.648438 C 49.863281 27.3125 49.695312 28.3125 49.695312 29.652344 C 49.695312 30.984375 49.863281 31.980469 50.203125 32.648438 C 50.546875 33.316406 51.054688 33.648438 51.730469 33.648438 C 52.414062 33.648438 52.925781 33.316406 53.265625 32.648438 C 53.605469 31.980469 53.777344 30.984375 53.777344 29.652344 C 53.777344 28.3125 53.605469 27.3125 53.265625 26.648438 C 52.925781 25.980469 52.414062 25.648438 51.730469 25.648438 Z M 51.730469 24.605469 C 52.820312 24.605469 53.652344 25.035156 54.230469 25.898438 C 54.804688 26.761719 55.089844 28.011719 55.089844 29.652344 C 55.089844 31.289062 54.804688 32.535156 54.230469 33.398438 C 53.652344 34.261719 52.820312 34.691406 51.730469 34.691406 C 50.640625 34.691406 49.808594 34.261719 49.234375 33.398438 C 48.660156 32.535156 48.371094 31.289062 48.371094 29.652344 C 48.371094 28.011719 48.660156 26.761719 49.234375 25.898438 C 49.808594 25.035156 50.640625 24.605469 51.730469 24.605469 Z M 51.730469 24.605469 "/>
<path style=" stroke:none;fill-rule:nonzero;fill:rgb(0%,0%,0%);fill-opacity:1;" d="M 60.214844 25.648438 C 59.539062 25.648438 59.027344 25.980469 58.6875 26.648438 C 58.347656 27.3125 58.175781 28.3125 58.175781 29.652344 C 58.175781 30.984375 58.347656 31.980469 58.6875 32.648438 C 59.027344 33.316406 59.539062 33.648438 60.214844 33.648438 C 60.894531 33.648438 61.40625 33.316406 61.746094 32.648438 C 62.089844 31.980469 62.261719 30.984375 62.261719 29.652344 C 62.261719 28.3125 62.089844 27.3125 61.746094 26.648438 C 61.40625 25.980469 60.894531 25.648438 60.214844 25.648438 Z M 60.214844 24.605469 C 61.304688 24.605469 62.136719 25.035156 62.710938 25.898438 C 63.285156 26.761719 63.574219 28.011719 63.574219 29.652344 C 63.574219 31.289062 63.285156 32.535156 62.710938 33.398438 C 62.136719 34.261719 61.304688 34.691406 60.214844 34.691406 C 59.125 34.691406 58.292969 34.261719 57.71875 33.398438 C 57.144531 32.535156 56.855469 31.289062 56.855469 29.652344 C 56.855469 28.011719 57.144531 26.761719 57.71875 25.898438 C 58.292969 25.035156 59.125 24.605469 60.214844 24.605469 Z M 60.214844 24.605469 "/>
<path style=" stroke:none;fill-rule:nonzero;fill:rgb(0%,0%,0%);fill-opacity:1;" d="M 68.695312 25.648438 C 68.019531 25.648438 67.511719 25.980469 67.171875 26.648438 C 66.828125 27.3125 66.660156 28.3125 66.660156 29.652344 C 66.660156 30.984375 66.828125 31.980469 67.171875 32.648438 C 67.511719 33.316406 68.019531 33.648438 68.695312 33.648438 C 69.378906 33.648438 69.890625 33.316406 70.230469 32.648438 C 70.570312 31.980469 70.742188 30.984375 70.742188 29.652344 C 70.742188 28.3125 70.570312 27.3125 70.230469 26.648438 C 69.890625 25.980469 69.378906 25.648438 68.695312 25.648438 Z M 68.695312 24.605469 C 69.789062 24.605469 70.621094 25.035156 71.195312 25.898438 C 71.769531 26.761719 72.058594 28.011719 72.058594 29.652344 C 72.058594 31.289062 71.769531 32.535156 71.195312 33.398438 C 70.621094 34.261719 69.789062 34.691406 68.695312 34.691406 C 67.609375 34.691406 66.777344 34.261719 66.203125 33.398438 C 65.625 32.535156 65.339844 31.289062 65.339844 29.652344 C 65.339844 28.011719 65.625 26.761719 66.203125 25.898438 C 66.777344 25.035156 67.609375 24.605469 68.695312 24.605469 Z M 68.695312 24.605469 "/>
<path style=" stroke:none;fill-rule:nonzero;fill:rgb(0%,0%,0%);fill-opacity:1;" d="M 12.441406 102.867188 L 15.988281 105.507812 L 19.730469 102.734375 L 19.730469 104.144531 L 16.867188 106.269531 L 19.730469 108.390625 L 19.730469 109.804688 L 15.917969 106.972656 L 12.441406 109.5625 L 12.441406 108.148438 L 15.039062 106.214844 L 12.441406 104.285156 Z M 12.441406 102.867188 "/>
<path style=" stroke:none;fill-rule:nonzero;fill:rgb(0%,0%,0%);fill-opacity:1;" d="M 18.625 99.738281 L 18.625 95.148438 L 19.730469 95.148438 L 19.730469 101.320312 L 18.625 101.320312 C 18.109375 100.820312 17.414062 100.140625 16.546875 99.28125 C 15.675781 98.417969 15.113281 97.875 14.859375 97.65625 C 14.386719 97.234375 13.988281 96.941406 13.660156 96.773438 C 13.332031 96.605469 13.011719 96.523438 12.695312 96.523438 C 12.175781 96.523438 11.757812 96.703125 11.429688 97.066406 C 11.105469 97.429688 10.941406 97.898438 10.941406 98.480469 C 10.941406 98.894531 11.011719 99.332031 11.15625 99.789062 C 11.300781 100.246094 11.515625 100.734375 11.808594 101.253906 L 10.480469 101.253906 C 10.265625 100.726562 10.105469 100.230469 9.996094 99.773438 C 9.890625 99.3125 9.835938 98.890625 9.835938 98.507812 C 9.835938 97.5 10.085938 96.699219 10.589844 96.097656 C 11.09375 95.5 11.765625 95.199219 12.609375 95.199219 C 13.007812 95.199219 13.386719 95.277344 13.746094 95.425781 C 14.101562 95.574219 14.523438 95.847656 15.011719 96.242188 C 15.136719 96.351562 15.5 96.695312 16.101562 97.277344 C 16.703125 97.859375 17.542969 98.679688 18.625 99.738281 Z M 18.625 99.738281 "/>
<path style="fill:none;stroke-width:1.5;stroke-linecap:square;stroke-linejoin:round;stroke:rgb(100%,49.803922%,5.490196%);stroke-opacity:1;stroke-miterlimit:4;" d="M 76.96582 66.087891 L 95.276367 65.876953 L 111.386719 66.172852 L 125.566406 65.759766 L 138.043945 66.336914 L 149.024414 65.52832 L 158.686523 66.662109 L 167.188477 65.074219 L 174.670898 67.297852 L 181.256836 64.183594 L 187.051758 68.540039 L 192.149414 62.443359 L 196.637695 70.980469 L 200.586914 59.027344 L 204.061523 75.761719 L 207.120117 52.333008 L 209.80957 85.133789 L 212.176758 39.213867 L 214.262695 103.5 L 216.09668 13.5 L 217.708008 139.5 " transform="matrix(1.333333,0,0,1.333333,0,0.000000000000014211)"/>
<path style="fill-rule:nonzero;fill:rgb(100%,49.803922%,5.490196%);fill-opacity:1;stroke-width:1;stroke-linecap:butt;stroke-linejoin:round;stroke:rgb(100%,49.803922%,5.490196%);stroke-opacity:1;stroke-miterlimit:4;" d="M 0.000198364 3.000046 C 0.797073 3.000046 1.558792 2.68364 2.121292 2.12114 C 2.683792 1.55864 3.000198 0.796921 3.000198 0.0000457764 C 3.000198 -0.796829 2.683792 -1.558548 2.121292 -2.121048 C 1.558792 -2.683548 0.797073 -2.999954 0.000198364 -2.999954 C -0.796677 -2.999954 -1.558395 -2.683548 -2.120895 -2.121048 C -2.683395 -1.558548 -2.999802 -0.796829 -2.999802 0.0000457764 C -2.999802 0.796921 -2.683395 1.55864 -2.120895 2.12114 C -1.558395 2.68364 -0.796677 3.000046 0.000198364 3.000046 Z M 0.000198364 3.000046 " transform="matrix(1.333333,0,0,1.333333,102.620829,88.117126)"/>
<path style="fill-rule:nonzero;fill:rgb(100%,49.803922%,5.490196%);fill-opacity:1;stroke-width:1;stroke-linecap:butt;stroke-linejoin:round;stroke:rgb(100%,49.803922%,5.490196%);stroke-opacity:1;stroke-miterlimit:4;" d="M 0.00136566 2.999939 C 0.795311 2.999939 1.559959 2.683533 2.122459 2.121033 C 2.684959 1.558533 3.001366 0.796814 3.001366 -0.0000610352 C 3.001366 -0.796936 2.684959 -1.558655 2.122459 -2.121155 C 1.559959 -2.683655 0.795311 -3.000061 0.00136566 -3.000061 C -0.795509 -3.000061 -1.560158 -2.683655 -2.122658 -2.121155 C -2.685158 -1.558655 -2.998634 -0.796936 -2.998634 -0.0000610352 C -2.998634 0.796814 -2.685158 1.558533 -2.122658 2.121033 C -1.560158 2.683533 -0.795509 2.999939 0.00136566 2.999939 Z M 0.00136566 2.999939 " transform="matrix(1.333333,0,0,1.333333,127.033335,87.836019)"/>
<path style="fill-rule:nonzero;fill:rgb(100%,49.803922%,5.490196%);fill-opacity:1;stroke-width:1;stroke-linecap:butt;stroke-linejoin:round;stroke:rgb(100%,49.803922%,5.490196%);stroke-opacity:1;stroke-miterlimit:4;" d="M -0.000534058 3.000671 C 0.796341 3.000671 1.55806 2.684265 2.12056 2.121765 C 2.68306 1.559265 2.999466 0.794617 2.999466 0.000671387 C 2.999466 -0.796204 2.68306 -1.557922 2.12056 -2.120422 C 1.55806 -2.682922 0.796341 -2.999329 -0.000534058 -2.999329 C -0.794479 -2.999329 -1.559128 -2.682922 -2.121628 -2.120422 C -2.684128 -1.557922 -3.000534 -0.796204 -3.000534 0.000671387 C -3.000534 0.794617 -2.684128 1.559265 -2.121628 2.121765 C -1.559128 2.684265 -0.794479 3.000671 -0.000534058 3.000671 Z M -0.000534058 3.000671 " transform="matrix(1.333333,0,0,1.333333,148.516337,88.229574)"/>
<path style="fill-rule:nonzero;fill:rgb(100%,49.803922%,5.490196%);fill-opacity:1;stroke-width:1;stroke-linecap:butt;stroke-linejoin:round;stroke:rgb(100%,49.803922%,5.490196%);stroke-opacity:1;stroke-miterlimit:4;" d="M 0.00037384 3.000816 C 0.794319 3.000816 1.558968 2.68441 2.121468 2.12191 C 2.683968 1.55941 3.000374 0.794762 3.000374 0.000816345 C 3.000374 -0.796059 2.683968 -1.557777 2.121468 -2.120277 C 1.558968 -2.682777 0.794319 -2.999184 0.00037384 -2.999184 C -0.796501 -2.999184 -1.55822 -2.682777 -2.12072 -2.120277 C -2.68322 -1.557777 -2.999626 -0.796059 -2.999626 0.000816345 C -2.999626 0.794762 -2.68322 1.55941 -2.12072 2.12191 C -1.55822 2.68441 -0.796501 3.000816 0.00037384 3.000816 Z M 0.00037384 3.000816 " transform="matrix(1.333333,0,0,1.333333,167.421377,87.678599)"/>
<path style="fill-rule:nonzero;fill:rgb(100%,49.803922%,5.490196%);fill-opacity:1;stroke-width:1;stroke-linecap:butt;stroke-linejoin:round;stroke:rgb(100%,49.803922%,5.490196%);stroke-opacity:1;stroke-miterlimit:4;" d="M 0.000595093 2.999443 C 0.79454 2.999443 1.559189 2.683037 2.121689 2.120537 C 2.684189 1.558037 3.000595 0.796318 3.000595 -0.000556946 C 3.000595 -0.794502 2.684189 -1.559151 2.121689 -2.121651 C 1.559189 -2.684151 0.79454 -3.000557 0.000595093 -3.000557 C -0.79628 -3.000557 -1.557999 -2.684151 -2.120499 -2.121651 C -2.682999 -1.559151 -2.999405 -0.794502 -2.999405 -0.000556946 C -2.999405 0.796318 -2.682999 1.558037 -2.120499 2.120537 C -1.557999 2.683037 -0.79628 2.999443 0.000595093 2.999443 Z M 0.000595093 2.999443 " transform="matrix(1.333333,0,0,1.333333,184.0578,88.449961)"/>
<path style="fill-rule:nonzero;fill:rgb(100%,49.803922%,5.490196%);fill-opacity:1;stroke-width:1;stroke-linecap:butt;stroke-linejoin:round;stroke:rgb(100%,49.803922%,5.490196%);stroke-opacity:1;stroke-miterlimit:4;" d="M 0.00100708 3.000786 C 0.794952 3.000786 1.559601 2.68438 2.122101 2.12188 C 2.684601 1.55938 3.001007 0.794731 3.001007 0.000785828 C 3.001007 -0.796089 2.684601 -1.557808 2.122101 -2.120308 C 1.559601 -2.682808 0.794952 -2.999214 0.00100708 -2.999214 C -0.795868 -2.999214 -1.557587 -2.682808 -2.120087 -2.120308 C -2.682587 -1.557808 -2.998993 -0.796089 -2.998993 0.000785828 C -2.998993 0.794731 -2.682587 1.55938 -2.120087 2.12188 C -1.557587 2.68438 -0.795868 3.000786 0.00100708 3.000786 Z M 0.00100708 3.000786 " transform="matrix(1.333333,0,0,1.333333,198.697876,87.370046)"/>
<path style="fill-rule:nonzero;fill:rgb(100%,49.803922%,5.490196%);fill-opacity:1;stroke-width:1;stroke-linecap:butt;stroke-linejoin:round;stroke:rgb(100%,49.803922%,5.490196%);stroke-opacity:1;stroke-miterlimit:4;" d="M 0.000671387 3.000664 C 0.794617 3.000664 1.559265 2.684258 2.121765 2.121758 C 2.684265 1.559258 3.000671 0.794609 3.000671 0.000663757 C 3.000671 -0.796211 2.684265 -1.55793 2.121765 -2.12043 C 1.559265 -2.68293 0.794617 -2.999336 0.000671387 -2.999336 C -0.796204 -2.999336 -1.557922 -2.68293 -2.120422 -2.12043 C -2.682922 -1.55793 -2.999329 -0.796211 -2.999329 0.000663757 C -2.999329 0.794609 -2.682922 1.559258 -2.120422 2.121758 C -1.557922 2.684258 -0.796204 3.000664 0.000671387 3.000664 Z M 0.000671387 3.000664 " transform="matrix(1.333333,0,0,1.333333,211.581136,88.881927)"/>
<path style="fill-rule:nonzero;fill:rgb(100%,49.803922%,5.490196%);fill-opacity:1;stroke-width:1;stroke-linecap:butt;stroke-linejoin:round;stroke:rgb(100%,49.803922%,5.490196%);stroke-opacity:1;stroke-miterlimit:4;" d="M -0.000320435 3.000244 C 0.796555 3.000244 1.558273 2.683838 2.120773 2.121338 C 2.683273 1.558838 2.99968 0.794189 2.99968 0.000244141 C 2.99968 -0.796631 2.683273 -1.55835 2.120773 -2.12085 C 1.558273 -2.68335 0.796555 -2.999756 -0.000320435 -2.999756 C -0.794266 -2.999756 -1.558914 -2.68335 -2.121414 -2.12085 C -2.683914 -1.55835 -3.00032 -0.796631 -3.00032 0.000244141 C -3.00032 0.794189 -2.683914 1.558838 -2.121414 2.121338 C -1.558914 2.683838 -0.794266 3.000244 -0.000320435 3.000244 Z M -0.000320435 3.000244 " transform="matrix(1.333333,0,0,1.333333,222.918396,86.765299)"/>
<path style="fill-rule:nonzero;fill:rgb(100%,49.803922%,5.490196%);fill-opacity:1;stroke-width:1;stroke-linecap:butt;stroke-linejoin:round;stroke:rgb(100%,49.803922%,5.490196%);stroke-opacity:1;stroke-miterlimit:4;" d="M -0.000488281 3.001419 C 0.796387 3.001419 1.558105 2.685013 2.120605 2.122513 C 2.683105 1.560013 2.999512 0.795364 2.999512 0.00141907 C 2.999512 -0.795456 2.683105 -1.560104 2.120605 -2.122604 C 1.558105 -2.685104 0.796387 -2.998581 -0.000488281 -2.998581 C -0.794434 -2.998581 -1.559082 -2.685104 -2.121582 -2.122604 C -2.684082 -1.560104 -3.000488 -0.795456 -3.000488 0.00141907 C -3.000488 0.795364 -2.684082 1.560013 -2.121582 2.122513 C -1.559082 2.685013 -0.794434 3.001419 -0.000488281 3.001419 Z M -0.000488281 3.001419 " transform="matrix(1.333333,0,0,1.333333,232.895182,89.728577)"/>
<path style="fill-rule:nonzero;fill:rgb(100%,49.803922%,5.490196%);fill-opacity:1;stroke-width:1;stroke-linecap:butt;stroke-linejoin:round;stroke:rgb(100%,49.803922%,5.490196%);stroke-opacity:1;stroke-miterlimit:4;" d="M 0.000762939 2.998604 C 0.794708 2.998604 1.559357 2.685127 2.121857 2.122627 C 2.684357 1.560127 3.000763 0.795479 3.000763 -0.00139618 C 3.000763 -0.795341 2.684357 -1.55999 2.121857 -2.12249 C 1.559357 -2.68499 0.794708 -3.001396 0.000762939 -3.001396 C -0.796112 -3.001396 -1.557831 -2.68499 -2.120331 -2.12249 C -2.682831 -1.55999 -2.999237 -0.795341 -2.999237 -0.00139618 C -2.999237 0.795479 -2.682831 1.560127 -2.120331 2.122627 C -1.557831 2.685127 -0.796112 2.998604 0.000762939 2.998604 Z M 0.000762939 2.998604 " transform="matrix(1.333333,0,0,1.333333,241.674764,85.579987)"/>
<path style="fill-rule:nonzero;fill:rgb(100%,49.803922%,5.490196%);fill-opacity:1;stroke-width:1;stroke-linecap:butt;stroke-linejoin:round;stroke:rgb(100%,49.803922%,5.490196%);stroke-opacity:1;stroke-miterlimit:4;" d="M 0.00115967 2.999023 C 0.795105 2.999023 1.559753 2.682617 2.122253 2.120117 C 2.684753 1.557617 3.00116 0.795898 3.00116 -0.000976563 C 3.00116 -0.794922 2.684753 -1.55957 2.122253 -2.12207 C 1.559753 -2.68457 0.795105 -3.000977 0.00115967 -3.000977 C -0.795715 -3.000977 -1.557434 -2.68457 -2.119934 -2.12207 C -2.685364 -1.55957 -2.99884 -0.794922 -2.99884 -0.000976563 C -2.99884 0.795898 -2.685364 1.557617 -2.119934 2.120117 C -1.557434 2.682617 -0.795715 2.999023 0.00115967 2.999023 Z M 0.00115967 2.999023 " transform="matrix(1.333333,0,0,1.333333,249.400798,91.388021)"/>
<path style="fill-rule:nonzero;fill:rgb(100%,49.803922%,5.490196%);fill-opacity:1;stroke-width:1;stroke-linecap:butt;stroke-linejoin:round;stroke:rgb(100%,49.803922%,5.490196%);stroke-opacity:1;stroke-miterlimit:4;" d="M -0.000366211 3.000778 C 0.796509 3.000778 1.558228 2.684372 2.120728 2.121872 C 2.683228 1.559372 2.999634 0.794724 2.999634 0.000778198 C 2.999634 -0.796097 2.683228 -1.557816 2.120728 -2.120316 C 1.558228 -2.682816 0.796509 -2.999222 -0.000366211 -2.999222 C -0.794312 -2.999222 -1.55896 -2.682816 -2.12146 -2.120316 C -2.68396 -1.557816 -3.000366 -0.796097 -3.000366 0.000778198 C -3.000366 0.794724 -2.68396 1.559372 -2.12146 2.121872 C -1.55896 2.684372 -0.794312 3.000778 -0.000366211 3.000778 Z M -0.000366211 3.000778 " transform="matrix(1.333333,0,0,1.333333,256.199707,83.256775)"/>
<path style="fill-rule:nonzero;fill:rgb(100%,49.803922%,5.490196%);fill-opacity:1;stroke-width:1;stroke-linecap:butt;stroke-linejoin:round;stroke:rgb(100%,49.803922%,5.490196%);stroke-opacity:1;stroke-miterlimit:4;" d="M 0.000640869 3.000084 C 0.794586 3.000084 1.559235 2.683678 2.121735 2.121178 C 2.684235 1.558678 3.000641 0.796959 3.000641 0.0000839233 C 3.000641 -0.796791 2.684235 -1.55851 2.121735 -2.12101 C 1.559235 -2.68351 0.794586 -2.999916 0.000640869 -2.999916 C -0.796234 -2.999916 -1.557953 -2.68351 -2.120453 -2.12101 C -2.682953 -1.55851 -2.999359 -0.796791 -2.999359 0.0000839233 C -2.999359 0.796959 -2.682953 1.558678 -2.120453 2.121178 C -1.557953 2.683678 -0.796234 3.000084 0.000640869 3.000084 Z M 0.000640869 3.000084 " transform="matrix(1.333333,0,0,1.333333,262.182739,94.640513)"/>
<path style="fill-rule:nonzero;fill:rgb(100%,49.803922%,5.490196%);fill-opacity:1;stroke-width:1;stroke-linecap:butt;stroke-linejoin:round;stroke:rgb(100%,49.803922%,5.490196%);stroke-opacity:1;stroke-miterlimit:4;" d="M 0.00105286 2.999886 C 0.794998 2.999886 1.559647 2.683479 2.122147 2.120979 C 2.684647 1.558479 3.001053 0.796761 3.001053 -0.000114441 C 3.001053 -0.796989 2.684647 -1.558708 2.122147 -2.121208 C 1.559647 -2.683708 0.794998 -3.000114 0.00105286 -3.000114 C -0.795822 -3.000114 -1.557541 -2.683708 -2.120041 -2.121208 C -2.682541 -1.558708 -2.998947 -0.796989 -2.998947 -0.000114441 C -2.998947 0.796761 -2.682541 1.558479 -2.120041 2.120979 C -1.557541 2.683479 -0.795822 2.999886 0.00105286 2.999886 Z M 0.00105286 2.999886 " transform="matrix(1.333333,0,0,1.333333,267.447815,78.703278)"/>
<path style="fill-rule:nonzero;fill:rgb(100%,49.803922%,5.490196%);fill-opacity:1;stroke-width:1;stroke-linecap:butt;stroke-linejoin:round;stroke:rgb(100%,49.803922%,5.490196%);stroke-opacity:1;stroke-miterlimit:4;" d="M 0.000717163 3.00016 C 0.794662 3.00016 1.559311 2.683754 2.121811 2.121254 C 2.684311 1.558754 3.000717 0.797035 3.000717 0.000160217 C 3.000717 -0.796715 2.684311 -1.558434 2.121811 -2.120934 C 1.559311 -2.683434 0.794662 -2.99984 0.000717163 -2.99984 C -0.796158 -2.99984 -1.557877 -2.683434 -2.120377 -2.120934 C -2.682877 -1.558434 -2.999283 -0.796715 -2.999283 0.000160217 C -2.999283 0.797035 -2.682877 1.558754 -2.120377 2.121254 C -1.557877 2.683754 -0.796158 3.00016 0.000717163 3.00016 Z M 0.000717163 3.00016 " transform="matrix(1.333333,0,0,1.333333,272.081075,101.015411)"/>
<path style="fill-rule:nonzero;fill:rgb(100%,49.803922%,5.490196%);fill-opacity:1;stroke-width:1;stroke-linecap:butt;stroke-linejoin:round;stroke:rgb(100%,49.803922%,5.490196%);stroke-opacity:1;stroke-miterlimit:4;" d="M 0.00135803 2.999187 C 0.795303 2.999187 1.559952 2.682781 2.122452 2.120281 C 2.684952 1.557781 3.001358 0.796062 3.001358 -0.000812531 C 3.001358 -0.794758 2.684952 -1.559406 2.122452 -2.121906 C 1.559952 -2.684406 0.795303 -3.000813 0.00135803 -3.000813 C -0.795517 -3.000813 -1.560165 -2.684406 -2.122665 -2.121906 C -2.685165 -1.559406 -2.998642 -0.794758 -2.998642 -0.000812531 C -2.998642 0.796062 -2.685165 1.557781 -2.122665 2.120281 C -1.560165 2.682781 -0.795517 2.999187 0.00135803 2.999187 Z M 0.00135803 2.999187 " transform="matrix(1.333333,0,0,1.333333,276.158346,69.778427)"/>
<path style="fill-rule:nonzero;fill:rgb(100%,49.803922%,5.490196%);fill-opacity:1;stroke-width:1;stroke-linecap:butt;stroke-linejoin:round;stroke:rgb(100%,49.803922%,5.490196%);stroke-opacity:1;stroke-miterlimit:4;" d="M -0.000183105 3.001137 C 0.796692 3.001137 1.558411 2.684731 2.120911 2.122231 C 2.683411 1.559731 2.999817 0.795082 2.999817 0.00113678 C 2.999817 -0.795738 2.683411 -1.557457 2.120911 -2.119957 C 1.558411 -2.682457 0.796692 -2.998863 -0.000183105 -2.998863 C -0.797058 -2.998863 -1.558777 -2.682457 -2.121277 -2.119957 C -2.683777 -1.557457 -3.000183 -0.795738 -3.000183 0.00113678 C -3.000183 0.795082 -2.683777 1.559731 -2.121277 2.122231 C -1.558777 2.684731 -0.797058 3.001137 -0.000183105 3.001137 Z M -0.000183105 3.001137 " transform="matrix(1.333333,0,0,1.333333,279.746338,113.510203)"/>
<path style="fill-rule:nonzero;fill:rgb(100%,49.803922%,5.490196%);fill-opacity:1;stroke-width:1;stroke-linecap:butt;stroke-linejoin:round;stroke:rgb(100%,49.803922%,5.490196%);stroke-opacity:1;stroke-miterlimit:4;" d="M -0.00108337 2.99958 C 0.795792 2.99958 1.55751 2.683174 2.12001 2.120674 C 2.68251 1.558174 2.998917 0.796455 2.998917 -0.000419617 C 2.998917 -0.794365 2.68251 -1.559013 2.12001 -2.121513 C 1.55751 -2.684013 0.795792 -3.00042 -0.00108337 -3.00042 C -0.795029 -3.00042 -1.559677 -2.684013 -2.122177 -2.121513 C -2.684677 -1.559013 -3.001083 -0.794365 -3.001083 -0.000419617 C -3.001083 0.796455 -2.684677 1.558174 -2.122177 2.120674 C -1.559677 2.683174 -0.795029 2.99958 -0.00108337 2.99958 Z M -0.00108337 2.99958 " transform="matrix(1.333333,0,0,1.333333,282.903788,52.285716)"/>
<path style="fill-rule:nonzero;fill:rgb(100%,49.803922%,5.490196%);fill-opacity:1;stroke-width:1;stroke-linecap:butt;stroke-linejoin:round;stroke:rgb(100%,49.803922%,5.490196%);stroke-opacity:1;stroke-miterlimit:4;" d="M 0.000946045 3 C 0.794891 3 1.55954 2.683594 2.12204 2.121094 C 2.68454 1.558594 3.000946 0.796875 3.000946 -0.000000000000014211 C 3.000946 -0.796875 2.68454 -1.558594 2.12204 -2.121094 C 1.55954 -2.683594 0.794891 -3 0.000946045 -3 C -0.795929 -3 -1.557648 -2.683594 -2.120148 -2.121094 C -2.682648 -1.558594 -2.999054 -0.796875 -2.999054 -0.000000000000014211 C -2.999054 0.796875 -2.682648 1.558594 -2.120148 2.121094 C -1.557648 2.683594 -0.795929 3 0.000946045 3 Z M 0.000946045 3 " transform="matrix(1.333333,0,0,1.333333,285.682332,138)"/>
<path style="fill-rule:nonzero;fill:rgb(100%,49.803922%,5.490196%);fill-opacity:1;stroke-width:1;stroke-linecap:butt;stroke-linejoin:round;stroke:rgb(100%,49.803922%,5.490196%);stroke-opacity:1;stroke-miterlimit:4;" d="M 0.00109863 3 C 0.795044 3 1.559692 2.683594 2.122192 2.121094 C 2.684692 1.558594 3.001099 0.796875 3.001099 -0.000000000000010658 C 3.001099 -0.796875 2.684692 -1.558594 2.122192 -2.121094 C 1.559692 -2.683594 0.795044 -3 0.00109863 -3 C -0.795776 -3 -1.557495 -2.683594 -2.119995 -2.121094 C -2.682495 -1.558594 -2.998901 -0.796875 -2.998901 -0.000000000000010658 C -2.998901 0.796875 -2.682495 1.558594 -2.119995 2.121094 C -1.557495 2.683594 -0.795776 3 0.00109863 3 Z M 0.00109863 3 " transform="matrix(1.333333,0,0,1.333333,288.127441,18)"/>
<path style="fill-rule:nonzero;fill:rgb(100%,49.803922%,5.490196%);fill-opacity:1;stroke-width:1;stroke-linecap:butt;stroke-linejoin:round;stroke:rgb(100%,49.803922%,5.490196%);stroke-opacity:1;stroke-miterlimit:4;" d="M -0.00135803 3 C 0.795517 3 1.560165 2.683594 2.122665 2.121094 C 2.685165 1.558594 2.998642 0.796875 2.998642 0 C 2.998642 -0.796875 2.685165 -1.558594 2.122665 -2.121094 C 1.560165 -2.683594 0.795517 -3 -0.00135803 -3 C -0.795303 -3 -1.559952 -2.683594 -2.122452 -2.121094 C -2.684952 -1.558594 -3.001358 -0.796875 -3.001358 0 C -3.001358 0.796875 -2.684952 1.558594 -2.122452 2.121094 C -1.559952 2.683594 -0.795303 3 -0.00135803 3 Z M -0.00135803 3 " transform="matrix(1.333333,0,0,1.333333,290.279154,186)"/>
<g clip-path="url(#clip1)" clip-rule="nonzero">
<path style="fill:none;stroke-width:1.5;stroke-linecap:butt;stroke-linejoin:round;stroke:rgb(12.156863%,46.666667%,70.588237%);stroke-opacity:1;stroke-miterlimit:4;" d="M 116.188477 65.961914 L 107.481445 65.961914 L 104.428711 65.964844 L 101.378906 65.964844 L 98.326172 65.967773 L 95.276367 65.967773 L 92.393555 65.970703 L 89.170898 65.970703 L 86.121094 65.973633 L 83.068359 65.973633 L 80.018555 65.976562 L 76.96582 65.979492 L 73.913086 65.979492 L 71.572266 65.982422 L 70.863281 65.982422 L 67.810547 65.985352 L 67.49707 65.988281 L 64.760742 65.991211 L 64.646484 65.991211 L 62.967773 65.99707 L 62.408203 66 L 62.967773 66.00293 L 64.646484 66.008789 L 64.760742 66.008789 L 67.49707 66.011719 L 67.810547 66.014648 L 70.863281 66.017578 L 71.572266 66.017578 L 73.913086 66.020508 L 76.96582 66.020508 L 80.018555 66.023437 L 83.068359 66.026367 L 86.121094 66.026367 L 89.170898 66.029297 L 92.393555 66.029297 L 95.276367 66.032227 L 98.326172 66.032227 L 101.378906 66.035156 L 104.428711 66.035156 L 107.481445 66.038086 L 116.188477 66.038086 L 116.636719 66.041016 L 125.791992 66.041016 L 128.841797 66.043945 L 137.99707 66.043945 L 141.049805 66.046875 L 156.058594 66.046875 L 156.307617 66.049805 L 177.667969 66.049805 L 180.717773 66.052734 L 257.006836 66.052734 " transform="matrix(1.333333,0,0,1.333333,0,0.000000000000014211)"/>
</g>
<g clip-path="url(#clip2)" clip-rule="nonzero">
<path style="fill:none;stroke-width:1.5;stroke-linecap:butt;stroke-linejoin:round;stroke:rgb(12.156863%,46.666667%,70.588237%);stroke-opacity:1;stroke-miterlimit:4;" d="M 61.708008 66.052734 L 64.760742 66.055664 L 73.350586 66.055664 L 73.913086 66.058594 L 83.068359 66.058594 L 86.121094 66.061523 L 95.276367 66.061523 L 98.326172 66.064453 L 111.366211 66.064453 L 113.583984 66.067383 L 128.841797 66.067383 L 131.894531 66.070312 L 150.202148 66.070312 L 153.254883 66.073242 L 184.297852 66.073242 L 186.823242 66.076172 L 257.006836 66.076172 " transform="matrix(1.333333,0,0,1.333333,0,0.000000000000014211)"/>
<path style="fill:none;stroke-width:1.5;stroke-linecap:butt;stroke-linejoin:round;stroke:rgb(12.156863%,46.666667%,70.588237%);stroke-opacity:1;stroke-miterlimit:4;" d="M 61.708008 66.076172 L 67.810547 66.076172 L 70.863281 66.079102 L 83.068359 66.079102 L 86.121094 66.082031 L 100.804688 66.082031 L 101.378906 66.084961 L 119.686523 66.084961 L 122.739258 66.087891 L 147.152344 66.087891 L 150.202148 66.09082 L 188.630859 66.09082 L 189.873047 66.09375 L 257.006836 66.09375 " transform="matrix(1.333333,0,0,1.333333,0,0.000000000000014211)"/>
<path style="fill:none;stroke-width:1.5;stroke-linecap:butt;stroke-linejoin:round;stroke:rgb(12.156863%,46.666667%,70.588237%);stroke-opacity:1;stroke-miterlimit:4;" d="M 61.708008 66.09375 L 73.913086 66.09375 L 76.96582 66.09668 L 92.223633 66.09668 L 95.276367 66.099609 L 114.55957 66.099609 L 116.636719 66.102539 L 144.099609 66.102539 L 147.152344 66.105469 L 192.925781 66.105469 L 195.975586 66.108398 L 257.006836 66.108398 " transform="matrix(1.333333,0,0,1.333333,0,0.000000000000014211)"/>
<path style="fill:none;stroke-width:1.5;stroke-linecap:butt;stroke-linejoin:round;stroke:rgb(12.156863%,46.666667%,70.588237%);stroke-opacity:1;stroke-miterlimit:4;" d="M 61.708008 66.108398 L 76.96582 66.108398 L 80.018555 66.111328 L 98.326172 66.111328 L 101.378906 66.114258 L 125.791992 66.114258 L 128.841797 66.117187 L 167.024414 66.117187 L 168.512695 66.120117 L 257.006836 66.120117 " transform="matrix(1.333333,0,0,1.333333,0,0.000000000000014211)"/>
</g>
<g clip-path="url(#clip3)" clip-rule="nonzero">
<path style="fill:none;stroke-width:1.5;stroke-linecap:butt;stroke-linejoin:round;stroke:rgb(12.156863%,46.666667%,70.588237%);stroke-opacity:1;stroke-miterlimit:4;" d="M 61.708008 66.120117 L 70.863281 66.120117 L 73.913086 66.123047 L 95.276367 66.123047 L 98.326172 66.125977 L 124.728516 66.125977 L 125.791992 66.128906 L 168.512695 66.128906 L 171.56543 66.131836 L 229.543945 66.131836 " transform="matrix(1.333333,0,0,1.333333,0,0.000000000000014211)"/>
</g>
<g clip-path="url(#clip4)" clip-rule="nonzero">
<path style="fill:none;stroke-width:1.5;stroke-linecap:butt;stroke-linejoin:round;stroke:rgb(12.156863%,46.666667%,70.588237%);stroke-opacity:1;stroke-miterlimit:4;" d="M 229.543945 66.131836 L 257.006836 66.131836 " transform="matrix(1.333333,0,0,1.333333,0,0.000000000000014211)"/>
</g>
<g clip-path="url(#clip5)" clip-rule="nonzero">
<path style="fill:none;stroke-width:1.5;stroke-linecap:butt;stroke-linejoin:round;stroke:rgb(12.156863%,46.666667%,70.588237%);stroke-opacity:1;stroke-miterlimit:4;" d="M 61.708008 66.131836 L 62.408203 66.131836 " transform="matrix(1.333333,0,0,1.333333,0,0.000000000000014211)"/>
</g>
<path style="fill:none;stroke-width:0.8;stroke-linecap:square;stroke-linejoin:miter;stroke:rgb(0%,0%,0%);stroke-opacity:1;stroke-miterlimit:4;" d="M 61.708008 145.798828 L 61.708008 7.201172 " transform="matrix(1.333333,0,0,1.333333,0,0.000000000000014211)"/>
<path style="fill:none;stroke-width:0.8;stroke-linecap:square;stroke-linejoin:miter;stroke:rgb(0%,0%,0%);stroke-opacity:1;stroke-miterlimit:4;" d="M 257.006836 145.798828 L 257.006836 7.201172 " transform="matrix(1.333333,0,0,1.333333,0,0.000000000000014211)"/>
<path style="fill:none;stroke-width:0.8;stroke-linecap:square;stroke-linejoin:miter;stroke:rgb(0%,0%,0%);stroke-opacity:1;stroke-miterlimit:4;" d="M 61.708008 145.798828 L 257.006836 145.798828 " transform="matrix(1.333333,0,0,1.333333,0,0.000000000000014211)"/>
<path style="fill:none;stroke-width:0.8;stroke-linecap:square;stroke-linejoin:miter;stroke:rgb(0%,0%,0%);stroke-opacity:1;stroke-miterlimit:4;" d="M 61.708008 7.201172 L 257.006836 7.201172 " transform="matrix(1.333333,0,0,1.333333,0,0.000000000000014211)"/>
</g>
</svg>
