<?xml version="1.0" encoding="UTF-8"?>
<svg xmlns="http://www.w3.org/2000/svg" xmlns:xlink="http://www.w3.org/1999/xlink" width="348.591675" height="244.474996" viewBox="0 0 348.591675 244.474996" version="1.1">
<defs>
<clipPath id="clip1">
  <path d="M 66.859375 9.601562 L 68 9.601562 L 68 194.398438 L 66.859375 194.398438 Z M 66.859375 9.601562 "/>
</clipPath>
<clipPath id="clip2">
  <path d="M 152 9.601562 L 155 9.601562 L 155 194.398438 L 152 194.398438 Z M 152 9.601562 "/>
</clipPath>
<clipPath id="clip3">
  <path d="M 239 9.601562 L 242 9.601562 L 242 194.398438 L 239 194.398438 Z M 239 9.601562 "/>
</clipPath>
<clipPath id="clip4">
  <path d="M 326 9.601562 L 327.257812 9.601562 L 327.257812 194.398438 L 326 194.398438 Z M 326 9.601562 "/>
</clipPath>
<clipPath id="clip5">
  <path d="M 66.859375 190 L 327.257812 190 L 327.257812 193 L 66.859375 193 Z M 66.859375 190 "/>
</clipPath>
<clipPath id="clip6">
  <path d="M 66.859375 150 L 327.257812 150 L 327.257812 153 L 66.859375 153 Z M 66.859375 150 "/>
</clipPath>
<clipPath id="clip7">
  <path d="M 66.859375 110 L 327.257812 110 L 327.257812 112 L 66.859375 112 Z M 66.859375 110 "/>
</clipPath>
<clipPath id="clip8">
  <path d="M 66.859375 70 L 327.257812 70 L 327.257812 72 L 66.859375 72 Z M 66.859375 70 "/>
</clipPath>
<clipPath id="clip9">
  <path d="M 66.859375 29 L 327.257812 29 L 327.257812 32 L 66.859375 32 Z M 66.859375 29 "/>
</clipPath>
<clipPath id="clip10">
  <path d="M 66.859375 25 L 129 25 L 129 185 L 66.859375 185 Z M 66.859375 25 "/>
</clipPath>
<filter id="alpha" filterUnits="objectBoundingBox" x="0%" y="0%" width="100%" height="100%">
  <feColorMatrix type="matrix" in="SourceGraphic" values="0 0 0 0 1 0 0 0 0 1 0 0 0 0 1 0 0 0 1 0"/>
</filter>
<mask id="mask0">
  <g filter="url(#alpha)">
<rect x="0" y="0" width="348.591675" height="244.474996" style="fill:rgb(0%,0%,0%);fill-opacity:0.8;stroke:none;"/>
  </g>
</mask>
<clipPath id="clip11">
  <rect x="0" y="0" width="349" height="245"/>
</clipPath>
<g id="surface5" clip-path="url(#clip11)">
<path style="fill-rule:nonzero;fill:rgb(100%,100%,100%);fill-opacity:1;stroke-width:1;stroke-linecap:butt;stroke-linejoin:miter;stroke:rgb(80.000001%,80.000001%,80.000001%);stroke-opacity:1;stroke-miterlimit:4;" d="M 128.176758 73.913086 L 238.444336 73.913086 C 239.777344 73.913086 240.442383 73.245117 240.442383 71.912109 L 240.442383 14.200195 C 240.442383 12.867187 239.777344 12.199219 238.444336 12.199219 L 128.176758 12.199219 C 126.84375 12.199219 126.175781 12.867187 126.175781 14.200195 L 126.175781 71.912109 C 126.175781 73.245117 126.84375 73.913086 128.176758 73.913086 Z M 128.176758 73.913086 " transform="matrix(1.333333,0,0,1.333333,0,0.000000000000014211)"/>
</g>
</defs>
<g id="surface1">
<path style=" stroke:none;fill-rule:nonzero;fill:rgb(100%,100%,100%);fill-opacity:1;" d="M 0 244.476562 L 348.589844 244.476562 L 348.589844 0 L 0 0 Z M 0 244.476562 "/>
<path style=" stroke:none;fill-rule:nonzero;fill:rgb(100%,100%,100%);fill-opacity:1;" d="M 66.859375 194.398438 L 327.257812 194.398438 L 327.257812 9.601562 L 66.859375 9.601562 Z M 66.859375 194.398438 "/>
<g clip-path="url(#clip1)" clip-rule="nonzero">
<path style="fill:none;stroke-width:0.8;stroke-linecap:square;stroke-linejoin:round;stroke:rgb(69.01961%,69.01961%,69.01961%);stroke-opacity:1;stroke-miterlimit:4;" d="M 50.144531 145.798828 L 50.144531 7.201172 " transform="matrix(1.333333,0,0,1.333333,0,0.000000000000014211)"/>
</g>
<path style="fill:none;stroke-width:0.8;stroke-linecap:butt;stroke-linejoin:round;stroke:rgb(0%,0%,0%);stroke-opacity:1;stroke-miterlimit:4;" d="M 0.000782013 -0.00117493 L 0.000782013 3.499802 " transform="matrix(1.333333,0,0,1.333333,66.858332,194.400004)"/>
<path style=" stroke:none;fill-rule:nonzero;fill:rgb(0%,0%,0%);fill-opacity:1;" d="M 52.847656 212.65625 L 54.992188 212.65625 L 54.992188 205.238281 L 52.65625 205.707031 L 52.65625 204.511719 L 54.980469 204.042969 L 56.296875 204.042969 L 56.296875 212.65625 L 58.445312 212.65625 L 58.445312 213.761719 L 52.847656 213.761719 Z M 52.847656 212.65625 "/>
<path style=" stroke:none;fill-rule:nonzero;fill:rgb(0%,0%,0%);fill-opacity:1;" d="M 63.914062 204.910156 C 63.234375 204.910156 62.726562 205.242188 62.386719 205.910156 C 62.042969 206.574219 61.875 207.574219 61.875 208.914062 C 61.875 210.246094 62.042969 211.242188 62.386719 211.910156 C 62.726562 212.578125 63.234375 212.910156 63.914062 212.910156 C 64.59375 212.910156 65.105469 212.578125 65.445312 211.910156 C 65.789062 211.242188 65.957031 210.246094 65.957031 208.914062 C 65.957031 207.574219 65.789062 206.574219 65.445312 205.910156 C 65.105469 205.242188 64.59375 204.910156 63.914062 204.910156 Z M 63.914062 203.867188 C 65.003906 203.867188 65.835938 204.296875 66.410156 205.160156 C 66.984375 206.023438 67.273438 207.273438 67.273438 208.914062 C 67.273438 210.546875 66.984375 211.796875 66.410156 212.660156 C 65.835938 213.523438 65.003906 213.953125 63.914062 213.953125 C 62.824219 213.953125 61.992188 213.523438 61.417969 212.660156 C 60.839844 211.796875 60.554688 210.546875 60.554688 208.914062 C 60.554688 207.273438 60.839844 206.023438 61.417969 205.160156 C 61.992188 204.296875 62.824219 203.867188 63.914062 203.867188 Z M 63.914062 203.867188 "/>
<path style=" stroke:none;fill-rule:nonzero;fill:rgb(0%,0%,0%);fill-opacity:1;" d="M 69.273438 205.34375 L 75.117188 205.34375 L 75.117188 206.121094 L 69.273438 206.121094 Z M 69.273438 205.34375 "/>
<path style=" stroke:none;fill-rule:nonzero;fill:rgb(0%,0%,0%);fill-opacity:1;" d="M 77.898438 207.882812 L 81.109375 207.882812 L 81.109375 208.660156 L 76.789062 208.660156 L 76.789062 207.882812 C 77.140625 207.523438 77.613281 207.039062 78.21875 206.429688 C 78.820312 205.820312 79.199219 205.425781 79.355469 205.25 C 79.648438 204.917969 79.855469 204.636719 79.972656 204.410156 C 80.089844 204.179688 80.148438 203.953125 80.148438 203.730469 C 80.148438 203.371094 80.019531 203.074219 79.769531 202.847656 C 79.515625 202.621094 79.183594 202.503906 78.777344 202.503906 C 78.488281 202.503906 78.183594 202.554688 77.863281 202.65625 C 77.542969 202.757812 77.199219 202.90625 76.835938 203.113281 L 76.835938 202.183594 C 77.207031 202.03125 77.550781 201.921875 77.875 201.84375 C 78.195312 201.769531 78.492188 201.730469 78.757812 201.730469 C 79.464844 201.730469 80.023438 201.90625 80.445312 202.261719 C 80.863281 202.613281 81.074219 203.082031 81.074219 203.671875 C 81.074219 203.953125 81.019531 204.21875 80.914062 204.46875 C 80.8125 204.71875 80.621094 205.011719 80.34375 205.355469 C 80.269531 205.441406 80.027344 205.695312 79.617188 206.117188 C 79.210938 206.539062 78.636719 207.128906 77.898438 207.882812 Z M 77.898438 207.882812 "/>
<g clip-path="url(#clip2)" clip-rule="nonzero">
<path style="fill:none;stroke-width:0.8;stroke-linecap:square;stroke-linejoin:round;stroke:rgb(69.01961%,69.01961%,69.01961%);stroke-opacity:1;stroke-miterlimit:4;" d="M 115.245117 145.798828 L 115.245117 7.201172 " transform="matrix(1.333333,0,0,1.333333,0,0.000000000000014211)"/>
</g>
<path style="fill:none;stroke-width:0.8;stroke-linecap:butt;stroke-linejoin:round;stroke:rgb(0%,0%,0%);stroke-opacity:1;stroke-miterlimit:4;" d="M 0.00136566 -0.00117493 L 0.00136566 3.499802 " transform="matrix(1.333333,0,0,1.333333,153.658335,194.400004)"/>
<path style=" stroke:none;fill-rule:nonzero;fill:rgb(0%,0%,0%);fill-opacity:1;" d="M 139.644531 212.667969 L 141.792969 212.667969 L 141.792969 205.25 L 139.457031 205.71875 L 139.457031 204.519531 L 141.78125 204.050781 L 143.097656 204.050781 L 143.097656 212.667969 L 145.242188 212.667969 L 145.242188 213.773438 L 139.644531 213.773438 Z M 139.644531 212.667969 "/>
<path style=" stroke:none;fill-rule:nonzero;fill:rgb(0%,0%,0%);fill-opacity:1;" d="M 150.710938 204.917969 C 150.035156 204.917969 149.527344 205.253906 149.183594 205.917969 C 148.84375 206.585938 148.675781 207.585938 148.675781 208.921875 C 148.675781 210.253906 148.84375 211.253906 149.183594 211.921875 C 149.527344 212.589844 150.035156 212.921875 150.710938 212.921875 C 151.394531 212.921875 151.90625 212.589844 152.246094 211.921875 C 152.585938 211.253906 152.757812 210.253906 152.757812 208.921875 C 152.757812 207.585938 152.585938 206.585938 152.246094 205.917969 C 151.90625 205.253906 151.394531 204.917969 150.710938 204.917969 Z M 150.710938 203.878906 C 151.800781 203.878906 152.636719 204.308594 153.210938 205.171875 C 153.785156 206.03125 154.074219 207.28125 154.074219 208.921875 C 154.074219 210.558594 153.785156 211.808594 153.210938 212.671875 C 152.636719 213.53125 151.800781 213.964844 150.710938 213.964844 C 149.625 213.964844 148.792969 213.53125 148.214844 212.671875 C 147.640625 211.808594 147.355469 210.558594 147.355469 208.921875 C 147.355469 207.28125 147.640625 206.03125 148.214844 205.171875 C 148.792969 204.308594 149.625 203.878906 150.710938 203.878906 Z M 150.710938 203.878906 "/>
<path style=" stroke:none;fill-rule:nonzero;fill:rgb(0%,0%,0%);fill-opacity:1;" d="M 156.074219 205.355469 L 161.917969 205.355469 L 161.917969 206.128906 L 156.074219 206.128906 Z M 156.074219 205.355469 "/>
<path style=" stroke:none;fill-rule:nonzero;fill:rgb(0%,0%,0%);fill-opacity:1;" d="M 164.0625 207.894531 L 165.566406 207.894531 L 165.566406 202.703125 L 163.929688 203.03125 L 163.929688 202.191406 L 165.558594 201.863281 L 166.480469 201.863281 L 166.480469 207.894531 L 167.980469 207.894531 L 167.980469 208.667969 L 164.0625 208.667969 Z M 164.0625 207.894531 "/>
<g clip-path="url(#clip3)" clip-rule="nonzero">
<path style="fill:none;stroke-width:0.8;stroke-linecap:square;stroke-linejoin:round;stroke:rgb(69.01961%,69.01961%,69.01961%);stroke-opacity:1;stroke-miterlimit:4;" d="M 180.342773 145.798828 L 180.342773 7.201172 " transform="matrix(1.333333,0,0,1.333333,0,0.000000000000014211)"/>
</g>
<path style="fill:none;stroke-width:0.8;stroke-linecap:butt;stroke-linejoin:round;stroke:rgb(0%,0%,0%);stroke-opacity:1;stroke-miterlimit:4;" d="M -0.000976562 -0.00117493 L -0.000976562 3.499802 " transform="matrix(1.333333,0,0,1.333333,240.458333,194.400004)"/>
<path style=" stroke:none;fill-rule:nonzero;fill:rgb(0%,0%,0%);fill-opacity:1;" d="M 230.378906 212.65625 L 232.527344 212.65625 L 232.527344 205.238281 L 230.191406 205.707031 L 230.191406 204.511719 L 232.515625 204.042969 L 233.828125 204.042969 L 233.828125 212.65625 L 235.976562 212.65625 L 235.976562 213.761719 L 230.378906 213.761719 Z M 230.378906 212.65625 "/>
<path style=" stroke:none;fill-rule:nonzero;fill:rgb(0%,0%,0%);fill-opacity:1;" d="M 241.445312 204.910156 C 240.769531 204.910156 240.261719 205.242188 239.917969 205.910156 C 239.578125 206.574219 239.40625 207.574219 239.40625 208.914062 C 239.40625 210.246094 239.578125 211.242188 239.917969 211.910156 C 240.261719 212.578125 240.769531 212.910156 241.445312 212.910156 C 242.128906 212.910156 242.636719 212.578125 242.980469 211.910156 C 243.320312 211.242188 243.492188 210.246094 243.492188 208.914062 C 243.492188 207.574219 243.320312 206.574219 242.980469 205.910156 C 242.636719 205.242188 242.128906 204.910156 241.445312 204.910156 Z M 241.445312 203.867188 C 242.535156 203.867188 243.367188 204.296875 243.945312 205.160156 C 244.519531 206.023438 244.804688 207.273438 244.804688 208.914062 C 244.804688 210.546875 244.519531 211.796875 243.945312 212.660156 C 243.367188 213.523438 242.535156 213.953125 241.445312 213.953125 C 240.355469 213.953125 239.523438 213.523438 238.949219 212.660156 C 238.375 211.796875 238.085938 210.546875 238.085938 208.914062 C 238.085938 207.273438 238.375 206.023438 238.949219 205.160156 C 239.523438 204.296875 240.355469 203.867188 241.445312 203.867188 Z M 241.445312 203.867188 "/>
<path style=" stroke:none;fill-rule:nonzero;fill:rgb(0%,0%,0%);fill-opacity:1;" d="M 248.785156 202.460938 C 248.3125 202.460938 247.957031 202.695312 247.714844 203.160156 C 247.476562 203.625 247.359375 204.328125 247.359375 205.261719 C 247.359375 206.195312 247.476562 206.894531 247.714844 207.363281 C 247.957031 207.828125 248.3125 208.0625 248.785156 208.0625 C 249.261719 208.0625 249.621094 207.828125 249.859375 207.363281 C 250.097656 206.894531 250.21875 206.195312 250.21875 205.261719 C 250.21875 204.328125 250.097656 203.625 249.859375 203.160156 C 249.621094 202.695312 249.261719 202.460938 248.785156 202.460938 Z M 248.785156 201.730469 C 249.546875 201.730469 250.132812 202.03125 250.535156 202.636719 C 250.9375 203.238281 251.136719 204.113281 251.136719 205.261719 C 251.136719 206.410156 250.9375 207.28125 250.535156 207.886719 C 250.132812 208.488281 249.546875 208.792969 248.785156 208.792969 C 248.023438 208.792969 247.441406 208.488281 247.039062 207.886719 C 246.636719 207.28125 246.433594 206.410156 246.433594 205.261719 C 246.433594 204.113281 246.636719 203.238281 247.039062 202.636719 C 247.441406 202.03125 248.023438 201.730469 248.785156 201.730469 Z M 248.785156 201.730469 "/>
<g clip-path="url(#clip4)" clip-rule="nonzero">
<path style="fill:none;stroke-width:0.8;stroke-linecap:square;stroke-linejoin:round;stroke:rgb(69.01961%,69.01961%,69.01961%);stroke-opacity:1;stroke-miterlimit:4;" d="M 245.443359 145.798828 L 245.443359 7.201172 " transform="matrix(1.333333,0,0,1.333333,0,0.000000000000014211)"/>
</g>
<path style="fill:none;stroke-width:0.8;stroke-linecap:butt;stroke-linejoin:round;stroke:rgb(0%,0%,0%);stroke-opacity:1;stroke-miterlimit:4;" d="M -0.000396729 -0.00117493 L -0.000396729 3.499802 " transform="matrix(1.333333,0,0,1.333333,327.258341,194.400004)"/>
<path style=" stroke:none;fill-rule:nonzero;fill:rgb(0%,0%,0%);fill-opacity:1;" d="M 317.179688 212.667969 L 319.328125 212.667969 L 319.328125 205.25 L 316.988281 205.71875 L 316.988281 204.519531 L 319.316406 204.050781 L 320.628906 204.050781 L 320.628906 212.667969 L 322.777344 212.667969 L 322.777344 213.773438 L 317.179688 213.773438 Z M 317.179688 212.667969 "/>
<path style=" stroke:none;fill-rule:nonzero;fill:rgb(0%,0%,0%);fill-opacity:1;" d="M 328.246094 204.917969 C 327.570312 204.917969 327.058594 205.253906 326.71875 205.917969 C 326.378906 206.585938 326.207031 207.585938 326.207031 208.921875 C 326.207031 210.253906 326.378906 211.253906 326.71875 211.921875 C 327.058594 212.589844 327.570312 212.921875 328.246094 212.921875 C 328.925781 212.921875 329.4375 212.589844 329.777344 211.921875 C 330.121094 211.253906 330.292969 210.253906 330.292969 208.921875 C 330.292969 207.585938 330.121094 206.585938 329.777344 205.917969 C 329.4375 205.253906 328.925781 204.917969 328.246094 204.917969 Z M 328.246094 203.878906 C 329.335938 203.878906 330.167969 204.308594 330.742188 205.171875 C 331.320312 206.03125 331.605469 207.28125 331.605469 208.921875 C 331.605469 210.558594 331.320312 211.808594 330.742188 212.671875 C 330.167969 213.53125 329.335938 213.964844 328.246094 213.964844 C 327.15625 213.964844 326.324219 213.53125 325.75 212.671875 C 325.175781 211.808594 324.886719 210.558594 324.886719 208.921875 C 324.886719 207.28125 325.175781 206.03125 325.75 205.171875 C 326.324219 204.308594 327.15625 203.878906 328.246094 203.878906 Z M 328.246094 203.878906 "/>
<path style=" stroke:none;fill-rule:nonzero;fill:rgb(0%,0%,0%);fill-opacity:1;" d="M 333.777344 207.894531 L 335.28125 207.894531 L 335.28125 202.703125 L 333.644531 203.03125 L 333.644531 202.191406 L 335.269531 201.863281 L 336.191406 201.863281 L 336.191406 207.894531 L 337.695312 207.894531 L 337.695312 208.667969 L 333.777344 208.667969 Z M 333.777344 207.894531 "/>
<path style="fill:none;stroke-width:0.6;stroke-linecap:butt;stroke-linejoin:round;stroke:rgb(0%,0%,0%);stroke-opacity:1;stroke-miterlimit:4;" d="M 0.000404358 -0.00117493 L 0.000404358 1.999802 " transform="matrix(1.333333,0,0,1.333333,92.987742,194.400004)"/>
<path style="fill:none;stroke-width:0.6;stroke-linecap:butt;stroke-linejoin:round;stroke:rgb(0%,0%,0%);stroke-opacity:1;stroke-miterlimit:4;" d="M 0.000732422 -0.00117493 L 0.000732422 1.999802 " transform="matrix(1.333333,0,0,1.333333,108.272461,194.400004)"/>
<path style="fill:none;stroke-width:0.6;stroke-linecap:butt;stroke-linejoin:round;stroke:rgb(0%,0%,0%);stroke-opacity:1;stroke-miterlimit:4;" d="M 0.000038147 -0.00117493 L 0.000038147 1.999802 " transform="matrix(1.333333,0,0,1.333333,119.117137,194.400004)"/>
<path style="fill:none;stroke-width:0.6;stroke-linecap:butt;stroke-linejoin:round;stroke:rgb(0%,0%,0%);stroke-opacity:1;stroke-miterlimit:4;" d="M -0.00119019 -0.00117493 L -0.00119019 1.999802 " transform="matrix(1.333333,0,0,1.333333,127.528931,194.400004)"/>
<path style="fill:none;stroke-width:0.6;stroke-linecap:butt;stroke-linejoin:round;stroke:rgb(0%,0%,0%);stroke-opacity:1;stroke-miterlimit:4;" d="M 0.000358582 -0.00117493 L 0.000358582 1.999802 " transform="matrix(1.333333,0,0,1.333333,134.401866,194.400004)"/>
<path style="fill:none;stroke-width:0.6;stroke-linecap:butt;stroke-linejoin:round;stroke:rgb(0%,0%,0%);stroke-opacity:1;stroke-miterlimit:4;" d="M -0.0014267 -0.00117493 L -0.0014267 1.999802 " transform="matrix(1.333333,0,0,1.333333,140.21284,194.400004)"/>
<path style="fill:none;stroke-width:0.6;stroke-linecap:butt;stroke-linejoin:round;stroke:rgb(0%,0%,0%);stroke-opacity:1;stroke-miterlimit:4;" d="M -0.000335693 -0.00117493 L -0.000335693 1.999802 " transform="matrix(1.333333,0,0,1.333333,145.246541,194.400004)"/>
<path style="fill:none;stroke-width:0.6;stroke-linecap:butt;stroke-linejoin:round;stroke:rgb(0%,0%,0%);stroke-opacity:1;stroke-miterlimit:4;" d="M 0.000686646 -0.00117493 L 0.000686646 1.999802 " transform="matrix(1.333333,0,0,1.333333,149.686584,194.400004)"/>
<path style="fill:none;stroke-width:0.6;stroke-linecap:butt;stroke-linejoin:round;stroke:rgb(0%,0%,0%);stroke-opacity:1;stroke-miterlimit:4;" d="M 0.000991821 -0.00117493 L 0.000991821 1.999802 " transform="matrix(1.333333,0,0,1.333333,179.78774,194.400004)"/>
<path style="fill:none;stroke-width:0.6;stroke-linecap:butt;stroke-linejoin:round;stroke:rgb(0%,0%,0%);stroke-opacity:1;stroke-miterlimit:4;" d="M 0.00132751 -0.00117493 L 0.00132751 1.999802 " transform="matrix(1.333333,0,0,1.333333,195.072449,194.400004)"/>
<path style="fill:none;stroke-width:0.6;stroke-linecap:butt;stroke-linejoin:round;stroke:rgb(0%,0%,0%);stroke-opacity:1;stroke-miterlimit:4;" d="M 0.00062561 -0.00117493 L 0.00062561 1.999802 " transform="matrix(1.333333,0,0,1.333333,205.917135,194.400004)"/>
<path style="fill:none;stroke-width:0.6;stroke-linecap:butt;stroke-linejoin:round;stroke:rgb(0%,0%,0%);stroke-opacity:1;stroke-miterlimit:4;" d="M -0.000610352 -0.00117493 L -0.000610352 1.999802 " transform="matrix(1.333333,0,0,1.333333,214.328939,194.400004)"/>
<path style="fill:none;stroke-width:0.6;stroke-linecap:butt;stroke-linejoin:round;stroke:rgb(0%,0%,0%);stroke-opacity:1;stroke-miterlimit:4;" d="M 0.000946045 -0.00117493 L 0.000946045 1.999802 " transform="matrix(1.333333,0,0,1.333333,221.201864,194.400004)"/>
<path style="fill:none;stroke-width:0.6;stroke-linecap:butt;stroke-linejoin:round;stroke:rgb(0%,0%,0%);stroke-opacity:1;stroke-miterlimit:4;" d="M -0.000839233 -0.00117493 L -0.000839233 1.999802 " transform="matrix(1.333333,0,0,1.333333,227.012838,194.400004)"/>
<path style="fill:none;stroke-width:0.6;stroke-linecap:butt;stroke-linejoin:round;stroke:rgb(0%,0%,0%);stroke-opacity:1;stroke-miterlimit:4;" d="M 0.000244141 -0.00117493 L 0.000244141 1.999802 " transform="matrix(1.333333,0,0,1.333333,232.046549,194.400004)"/>
<path style="fill:none;stroke-width:0.6;stroke-linecap:butt;stroke-linejoin:round;stroke:rgb(0%,0%,0%);stroke-opacity:1;stroke-miterlimit:4;" d="M 0.00126648 -0.00117493 L 0.00126648 1.999802 " transform="matrix(1.333333,0,0,1.333333,236.486593,194.400004)"/>
<path style="fill:none;stroke-width:0.6;stroke-linecap:butt;stroke-linejoin:round;stroke:rgb(0%,0%,0%);stroke-opacity:1;stroke-miterlimit:4;" d="M -0.00134277 -0.00117493 L -0.00134277 1.999802 " transform="matrix(1.333333,0,0,1.333333,266.587728,194.400004)"/>
<path style="fill:none;stroke-width:0.6;stroke-linecap:butt;stroke-linejoin:round;stroke:rgb(0%,0%,0%);stroke-opacity:1;stroke-miterlimit:4;" d="M -0.00102234 -0.00117493 L -0.00102234 1.999802 " transform="matrix(1.333333,0,0,1.333333,281.872457,194.400004)"/>
<path style="fill:none;stroke-width:0.6;stroke-linecap:butt;stroke-linejoin:round;stroke:rgb(0%,0%,0%);stroke-opacity:1;stroke-miterlimit:4;" d="M 0.00120544 -0.00117493 L 0.00120544 1.999802 " transform="matrix(1.333333,0,0,1.333333,292.717143,194.400004)"/>
<path style="fill:none;stroke-width:0.6;stroke-linecap:butt;stroke-linejoin:round;stroke:rgb(0%,0%,0%);stroke-opacity:1;stroke-miterlimit:4;" d="M -0.0000152588 -0.00117493 L -0.0000152588 1.999802 " transform="matrix(1.333333,0,0,1.333333,301.128927,194.400004)"/>
<path style="fill:none;stroke-width:0.6;stroke-linecap:butt;stroke-linejoin:round;stroke:rgb(0%,0%,0%);stroke-opacity:1;stroke-miterlimit:4;" d="M -0.00138855 -0.00117493 L -0.00138855 1.999802 " transform="matrix(1.333333,0,0,1.333333,308.001851,194.400004)"/>
<path style="fill:none;stroke-width:0.6;stroke-linecap:butt;stroke-linejoin:round;stroke:rgb(0%,0%,0%);stroke-opacity:1;stroke-miterlimit:4;" d="M -0.000259399 -0.00117493 L -0.000259399 1.999802 " transform="matrix(1.333333,0,0,1.333333,313.812846,194.400004)"/>
<path style="fill:none;stroke-width:0.6;stroke-linecap:butt;stroke-linejoin:round;stroke:rgb(0%,0%,0%);stroke-opacity:1;stroke-miterlimit:4;" d="M 0.000839233 -0.00117493 L 0.000839233 1.999802 " transform="matrix(1.333333,0,0,1.333333,318.846537,194.400004)"/>
<path style="fill:none;stroke-width:0.6;stroke-linecap:butt;stroke-linejoin:round;stroke:rgb(0%,0%,0%);stroke-opacity:1;stroke-miterlimit:4;" d="M -0.00106812 -0.00117493 L -0.00106812 1.999802 " transform="matrix(1.333333,0,0,1.333333,323.28658,194.400004)"/>
<path style=" stroke:none;fill-rule:nonzero;fill:rgb(0%,0%,0%);fill-opacity:1;" d="M 165.878906 222.738281 L 165.878906 224.808594 L 168.34375 224.808594 L 168.34375 225.742188 L 165.878906 225.742188 L 165.878906 229.699219 C 165.878906 230.292969 165.957031 230.675781 166.121094 230.847656 C 166.285156 231.015625 166.613281 231.101562 167.113281 231.101562 L 168.34375 231.101562 L 168.34375 232.101562 L 167.113281 232.101562 C 166.191406 232.101562 165.550781 231.929688 165.199219 231.585938 C 164.847656 231.238281 164.671875 230.609375 164.671875 229.699219 L 164.671875 225.742188 L 163.792969 225.742188 L 163.792969 224.808594 L 164.671875 224.808594 L 164.671875 222.738281 Z M 165.878906 222.738281 "/>
<path style=" stroke:none;fill-rule:nonzero;fill:rgb(0%,0%,0%);fill-opacity:1;" d="M 169.917969 224.808594 L 171.117188 224.808594 L 171.117188 232.101562 L 169.917969 232.101562 Z M 169.917969 221.972656 L 171.117188 221.972656 L 171.117188 223.488281 L 169.917969 223.488281 Z M 169.917969 221.972656 "/>
<path style=" stroke:none;fill-rule:nonzero;fill:rgb(0%,0%,0%);fill-opacity:1;" d="M 179.300781 226.210938 C 179.601562 225.671875 179.960938 225.273438 180.375 225.019531 C 180.792969 224.761719 181.28125 224.636719 181.847656 224.636719 C 182.605469 224.636719 183.191406 224.902344 183.605469 225.433594 C 184.019531 225.964844 184.222656 226.71875 184.222656 227.699219 L 184.222656 232.101562 L 183.019531 232.101562 L 183.019531 227.738281 C 183.019531 227.039062 182.894531 226.523438 182.648438 226.183594 C 182.398438 225.847656 182.023438 225.675781 181.515625 225.675781 C 180.894531 225.675781 180.402344 225.882812 180.042969 226.296875 C 179.683594 226.707031 179.503906 227.269531 179.503906 227.980469 L 179.503906 232.101562 L 178.300781 232.101562 L 178.300781 227.738281 C 178.300781 227.035156 178.175781 226.515625 177.929688 226.179688 C 177.679688 225.84375 177.300781 225.675781 176.78125 225.675781 C 176.167969 225.675781 175.683594 225.882812 175.320312 226.296875 C 174.960938 226.710938 174.78125 227.273438 174.78125 227.980469 L 174.78125 232.101562 L 173.578125 232.101562 L 173.578125 224.808594 L 174.78125 224.808594 L 174.78125 225.945312 C 175.054688 225.496094 175.382812 225.167969 175.765625 224.953125 C 176.148438 224.742188 176.601562 224.636719 177.125 224.636719 C 177.65625 224.636719 178.105469 224.769531 178.476562 225.039062 C 178.847656 225.308594 179.125 225.699219 179.300781 226.210938 Z M 179.300781 226.210938 "/>
<path style=" stroke:none;fill-rule:nonzero;fill:rgb(0%,0%,0%);fill-opacity:1;" d="M 192.851562 228.15625 L 192.851562 228.742188 L 187.339844 228.742188 C 187.394531 229.566406 187.644531 230.195312 188.085938 230.628906 C 188.53125 231.058594 189.152344 231.273438 189.945312 231.273438 C 190.40625 231.273438 190.851562 231.21875 191.28125 231.105469 C 191.714844 230.992188 192.144531 230.824219 192.570312 230.597656 L 192.570312 231.730469 C 192.140625 231.914062 191.699219 232.050781 191.246094 232.148438 C 190.796875 232.242188 190.339844 232.292969 189.875 232.292969 C 188.710938 232.292969 187.789062 231.953125 187.109375 231.277344 C 186.429688 230.597656 186.089844 229.683594 186.089844 228.527344 C 186.089844 227.335938 186.414062 226.386719 187.058594 225.6875 C 187.703125 224.984375 188.570312 224.636719 189.667969 224.636719 C 190.648438 224.636719 191.421875 224.953125 191.992188 225.582031 C 192.5625 226.214844 192.851562 227.070312 192.851562 228.15625 Z M 191.652344 227.804688 C 191.644531 227.148438 191.460938 226.628906 191.101562 226.238281 C 190.742188 225.847656 190.269531 225.648438 189.679688 225.648438 C 189.011719 225.648438 188.476562 225.839844 188.074219 226.214844 C 187.671875 226.59375 187.441406 227.125 187.382812 227.8125 Z M 191.652344 227.804688 "/>
<path style=" stroke:none;fill-rule:nonzero;fill:rgb(0%,0%,0%);fill-opacity:1;" d="M 201.929688 221.984375 C 201.351562 222.984375 200.917969 223.96875 200.636719 224.949219 C 200.351562 225.925781 200.210938 226.914062 200.210938 227.917969 C 200.210938 228.917969 200.355469 229.910156 200.640625 230.894531 C 200.921875 231.878906 201.355469 232.867188 201.929688 233.859375 L 200.890625 233.859375 C 200.238281 232.839844 199.753906 231.835938 199.429688 230.851562 C 199.105469 229.867188 198.941406 228.890625 198.941406 227.917969 C 198.941406 226.949219 199.105469 225.972656 199.425781 224.992188 C 199.746094 224.011719 200.234375 223.007812 200.890625 221.984375 Z M 201.929688 221.984375 "/>
<path style=" stroke:none;fill-rule:nonzero;fill:rgb(0%,0%,0%);fill-opacity:1;" d="M 208.902344 225.023438 L 208.902344 226.160156 C 208.566406 225.984375 208.214844 225.855469 207.847656 225.769531 C 207.484375 225.679688 207.109375 225.636719 206.714844 225.636719 C 206.121094 225.636719 205.675781 225.726562 205.378906 225.910156 C 205.082031 226.09375 204.933594 226.367188 204.933594 226.730469 C 204.933594 227.007812 205.039062 227.226562 205.25 227.386719 C 205.464844 227.542969 205.890625 227.695312 206.535156 227.835938 L 206.945312 227.929688 C 207.796875 228.109375 208.398438 228.367188 208.757812 228.699219 C 209.117188 229.03125 209.296875 229.496094 209.296875 230.089844 C 209.296875 230.765625 209.027344 231.304688 208.492188 231.699219 C 207.953125 232.09375 207.21875 232.292969 206.28125 232.292969 C 205.890625 232.292969 205.484375 232.253906 205.058594 232.175781 C 204.636719 232.101562 204.191406 231.988281 203.722656 231.835938 L 203.722656 230.597656 C 204.164062 230.828125 204.601562 231 205.03125 231.117188 C 205.460938 231.230469 205.886719 231.289062 206.308594 231.289062 C 206.871094 231.289062 207.304688 231.191406 207.609375 230.996094 C 207.910156 230.804688 208.0625 230.53125 208.0625 230.179688 C 208.0625 229.855469 207.953125 229.605469 207.734375 229.433594 C 207.515625 229.257812 207.035156 229.09375 206.292969 228.929688 L 205.875 228.832031 C 205.132812 228.679688 204.597656 228.4375 204.269531 228.113281 C 203.9375 227.789062 203.773438 227.347656 203.773438 226.785156 C 203.773438 226.097656 204.015625 225.566406 204.503906 225.195312 C 204.988281 224.820312 205.679688 224.636719 206.574219 224.636719 C 207.015625 224.636719 207.433594 224.667969 207.820312 224.734375 C 208.214844 224.796875 208.574219 224.894531 208.902344 225.023438 Z M 208.902344 225.023438 "/>
<path style=" stroke:none;fill-rule:nonzero;fill:rgb(0%,0%,0%);fill-opacity:1;" d="M 217.441406 228.15625 L 217.441406 228.742188 L 211.929688 228.742188 C 211.984375 229.566406 212.234375 230.195312 212.675781 230.628906 C 213.121094 231.058594 213.742188 231.273438 214.535156 231.273438 C 214.996094 231.273438 215.441406 231.21875 215.871094 231.105469 C 216.304688 230.992188 216.734375 230.824219 217.160156 230.597656 L 217.160156 231.730469 C 216.730469 231.914062 216.289062 232.050781 215.835938 232.148438 C 215.386719 232.242188 214.929688 232.292969 214.464844 232.292969 C 213.300781 232.292969 212.378906 231.953125 211.699219 231.277344 C 211.019531 230.597656 210.679688 229.683594 210.679688 228.527344 C 210.679688 227.335938 211.003906 226.386719 211.648438 225.6875 C 212.292969 224.984375 213.160156 224.636719 214.257812 224.636719 C 215.238281 224.636719 216.011719 224.953125 216.582031 225.582031 C 217.152344 226.214844 217.441406 227.070312 217.441406 228.15625 Z M 216.242188 227.804688 C 216.234375 227.148438 216.050781 226.628906 215.691406 226.238281 C 215.332031 225.847656 214.859375 225.648438 214.269531 225.648438 C 213.601562 225.648438 213.066406 225.839844 212.664062 226.214844 C 212.261719 226.59375 212.03125 227.125 211.972656 227.8125 Z M 216.242188 227.804688 "/>
<path style=" stroke:none;fill-rule:nonzero;fill:rgb(0%,0%,0%);fill-opacity:1;" d="M 224.652344 225.089844 L 224.652344 226.210938 C 224.3125 226.023438 223.976562 225.882812 223.632812 225.789062 C 223.292969 225.695312 222.949219 225.648438 222.601562 225.648438 C 221.824219 225.648438 221.222656 225.898438 220.789062 226.390625 C 220.363281 226.882812 220.148438 227.570312 220.148438 228.460938 C 220.148438 229.351562 220.363281 230.042969 220.789062 230.539062 C 221.222656 231.027344 221.824219 231.273438 222.601562 231.273438 C 222.949219 231.273438 223.292969 231.226562 223.632812 231.136719 C 223.976562 231.042969 224.3125 230.902344 224.652344 230.714844 L 224.652344 231.824219 C 224.320312 231.976562 223.972656 232.09375 223.613281 232.171875 C 223.257812 232.253906 222.875 232.292969 222.472656 232.292969 C 221.375 232.292969 220.5 231.945312 219.851562 231.257812 C 219.207031 230.566406 218.882812 229.632812 218.882812 228.460938 C 218.882812 227.273438 219.210938 226.339844 219.863281 225.660156 C 220.519531 224.976562 221.414062 224.636719 222.550781 224.636719 C 222.917969 224.636719 223.277344 224.671875 223.628906 224.75 C 223.980469 224.824219 224.324219 224.9375 224.652344 225.089844 Z M 224.652344 225.089844 "/>
<path style=" stroke:none;fill-rule:nonzero;fill:rgb(0%,0%,0%);fill-opacity:1;" d="M 226.546875 221.984375 L 227.589844 221.984375 C 228.238281 223.007812 228.726562 224.011719 229.050781 224.992188 C 229.375 225.972656 229.535156 226.949219 229.535156 227.917969 C 229.535156 228.890625 229.375 229.867188 229.050781 230.851562 C 228.726562 231.835938 228.238281 232.839844 227.589844 233.859375 L 226.546875 233.859375 C 227.125 232.867188 227.554688 231.878906 227.839844 230.894531 C 228.125 229.910156 228.265625 228.917969 228.265625 227.917969 C 228.265625 226.914062 228.125 225.925781 227.839844 224.949219 C 227.554688 223.96875 227.125 222.984375 226.546875 221.984375 Z M 226.546875 221.984375 "/>
<g clip-path="url(#clip5)" clip-rule="nonzero">
<path style="fill:none;stroke-width:0.8;stroke-linecap:square;stroke-linejoin:round;stroke:rgb(69.01961%,69.01961%,69.01961%);stroke-opacity:1;stroke-miterlimit:4;" d="M 50.144531 143.803711 L 245.443359 143.803711 " transform="matrix(1.333333,0,0,1.333333,0,0.000000000000014211)"/>
</g>
<path style="fill:none;stroke-width:0.8;stroke-linecap:butt;stroke-linejoin:round;stroke:rgb(0%,0%,0%);stroke-opacity:1;stroke-miterlimit:4;" d="M 0.000782013 0.00137329 L -3.500195 0.00137329 " transform="matrix(1.333333,0,0,1.333333,66.858332,191.73645)"/>
<path style=" stroke:none;fill-rule:nonzero;fill:rgb(0%,0%,0%);fill-opacity:1;" d="M 32.074219 187.949219 C 31.398438 187.949219 30.890625 188.28125 30.546875 188.949219 C 30.207031 189.613281 30.039062 190.613281 30.039062 191.953125 C 30.039062 193.285156 30.207031 194.285156 30.546875 194.949219 C 30.890625 195.617188 31.398438 195.949219 32.074219 195.949219 C 32.757812 195.949219 33.269531 195.617188 33.609375 194.949219 C 33.949219 194.285156 34.121094 193.285156 34.121094 191.953125 C 34.121094 190.613281 33.949219 189.613281 33.609375 188.949219 C 33.269531 188.28125 32.757812 187.949219 32.074219 187.949219 Z M 32.074219 186.90625 C 33.164062 186.90625 33.996094 187.335938 34.574219 188.199219 C 35.148438 189.0625 35.433594 190.3125 35.433594 191.953125 C 35.433594 193.589844 35.148438 194.835938 34.574219 195.699219 C 33.996094 196.5625 33.164062 196.992188 32.074219 196.992188 C 30.984375 196.992188 30.152344 196.5625 29.578125 195.699219 C 29.003906 194.835938 28.714844 193.589844 28.714844 191.953125 C 28.714844 190.3125 29.003906 189.0625 29.578125 188.199219 C 30.152344 187.335938 30.984375 186.90625 32.074219 186.90625 Z M 32.074219 186.90625 "/>
<path style=" stroke:none;fill-rule:nonzero;fill:rgb(0%,0%,0%);fill-opacity:1;" d="M 37.746094 195.148438 L 39.121094 195.148438 L 39.121094 196.800781 L 37.746094 196.800781 Z M 37.746094 195.148438 "/>
<path style=" stroke:none;fill-rule:nonzero;fill:rgb(0%,0%,0%);fill-opacity:1;" d="M 43.117188 195.695312 L 47.707031 195.695312 L 47.707031 196.800781 L 41.535156 196.800781 L 41.535156 195.695312 C 42.035156 195.179688 42.714844 194.484375 43.574219 193.617188 C 44.4375 192.746094 44.980469 192.183594 45.199219 191.929688 C 45.621094 191.460938 45.914062 191.058594 46.082031 190.730469 C 46.25 190.402344 46.332031 190.082031 46.332031 189.765625 C 46.332031 189.246094 46.152344 188.828125 45.789062 188.503906 C 45.425781 188.175781 44.957031 188.011719 44.375 188.011719 C 43.960938 188.011719 43.527344 188.085938 43.066406 188.226562 C 42.609375 188.371094 42.121094 188.585938 41.601562 188.878906 L 41.601562 187.550781 C 42.128906 187.335938 42.625 187.175781 43.082031 187.070312 C 43.546875 186.960938 43.964844 186.90625 44.347656 186.90625 C 45.355469 186.90625 46.15625 187.160156 46.757812 187.664062 C 47.355469 188.164062 47.65625 188.835938 47.65625 189.679688 C 47.65625 190.078125 47.578125 190.457031 47.429688 190.816406 C 47.28125 191.171875 47.007812 191.59375 46.613281 192.082031 C 46.503906 192.207031 46.160156 192.570312 45.578125 193.171875 C 44.996094 193.773438 44.175781 194.617188 43.117188 195.695312 Z M 43.117188 195.695312 "/>
<path style=" stroke:none;fill-rule:nonzero;fill:rgb(0%,0%,0%);fill-opacity:1;" d="M 54.082031 188.226562 L 50.761719 193.417969 L 54.082031 193.417969 Z M 53.734375 187.082031 L 55.390625 187.082031 L 55.390625 193.417969 L 56.777344 193.417969 L 56.777344 194.511719 L 55.390625 194.511719 L 55.390625 196.800781 L 54.082031 196.800781 L 54.082031 194.511719 L 49.695312 194.511719 L 49.695312 193.242188 Z M 53.734375 187.082031 "/>
<g clip-path="url(#clip6)" clip-rule="nonzero">
<path style="fill:none;stroke-width:0.8;stroke-linecap:square;stroke-linejoin:round;stroke:rgb(69.01961%,69.01961%,69.01961%);stroke-opacity:1;stroke-miterlimit:4;" d="M 50.144531 113.610352 L 245.443359 113.610352 " transform="matrix(1.333333,0,0,1.333333,0,0.000000000000014211)"/>
</g>
<path style="fill:none;stroke-width:0.8;stroke-linecap:butt;stroke-linejoin:round;stroke:rgb(0%,0%,0%);stroke-opacity:1;stroke-miterlimit:4;" d="M 0.000782013 0.000495911 L -3.500195 0.000495911 " transform="matrix(1.333333,0,0,1.333333,66.858332,151.479808)"/>
<path style=" stroke:none;fill-rule:nonzero;fill:rgb(0%,0%,0%);fill-opacity:1;" d="M 32.074219 147.691406 C 31.398438 147.691406 30.890625 148.023438 30.546875 148.691406 C 30.207031 149.355469 30.039062 150.359375 30.039062 151.695312 C 30.039062 153.027344 30.207031 154.027344 30.546875 154.691406 C 30.890625 155.359375 31.398438 155.691406 32.074219 155.691406 C 32.757812 155.691406 33.269531 155.359375 33.609375 154.691406 C 33.949219 154.027344 34.121094 153.027344 34.121094 151.695312 C 34.121094 150.359375 33.949219 149.355469 33.609375 148.691406 C 33.269531 148.023438 32.757812 147.691406 32.074219 147.691406 Z M 32.074219 146.648438 C 33.164062 146.648438 33.996094 147.082031 34.574219 147.941406 C 35.148438 148.804688 35.433594 150.054688 35.433594 151.695312 C 35.433594 153.332031 35.148438 154.582031 34.574219 155.441406 C 33.996094 156.304688 33.164062 156.734375 32.074219 156.734375 C 30.984375 156.734375 30.152344 156.304688 29.578125 155.441406 C 29.003906 154.582031 28.714844 153.332031 28.714844 151.695312 C 28.714844 150.054688 29.003906 148.804688 29.578125 147.941406 C 30.152344 147.082031 30.984375 146.648438 32.074219 146.648438 Z M 32.074219 146.648438 "/>
<path style=" stroke:none;fill-rule:nonzero;fill:rgb(0%,0%,0%);fill-opacity:1;" d="M 37.746094 154.890625 L 39.121094 154.890625 L 39.121094 156.546875 L 37.746094 156.546875 Z M 37.746094 154.890625 "/>
<path style=" stroke:none;fill-rule:nonzero;fill:rgb(0%,0%,0%);fill-opacity:1;" d="M 43.117188 155.4375 L 47.707031 155.4375 L 47.707031 156.546875 L 41.535156 156.546875 L 41.535156 155.4375 C 42.035156 154.921875 42.714844 154.230469 43.574219 153.359375 C 44.4375 152.488281 44.980469 151.925781 45.199219 151.675781 C 45.621094 151.203125 45.914062 150.800781 46.082031 150.472656 C 46.25 150.148438 46.332031 149.824219 46.332031 149.507812 C 46.332031 148.992188 46.152344 148.570312 45.789062 148.246094 C 45.425781 147.917969 44.957031 147.753906 44.375 147.753906 C 43.960938 147.753906 43.527344 147.828125 43.066406 147.96875 C 42.609375 148.113281 42.121094 148.332031 41.601562 148.621094 L 41.601562 147.292969 C 42.128906 147.082031 42.625 146.921875 43.082031 146.8125 C 43.546875 146.703125 43.964844 146.648438 44.347656 146.648438 C 45.355469 146.648438 46.15625 146.902344 46.757812 147.40625 C 47.355469 147.910156 47.65625 148.582031 47.65625 149.421875 C 47.65625 149.824219 47.578125 150.203125 47.429688 150.558594 C 47.28125 150.917969 47.007812 151.339844 46.613281 151.824219 C 46.503906 151.949219 46.160156 152.316406 45.578125 152.917969 C 44.996094 153.519531 44.175781 154.359375 43.117188 155.4375 Z M 43.117188 155.4375 "/>
<path style=" stroke:none;fill-rule:nonzero;fill:rgb(0%,0%,0%);fill-opacity:1;" d="M 53.445312 151.160156 C 52.855469 151.160156 52.386719 151.363281 52.039062 151.769531 C 51.695312 152.171875 51.523438 152.722656 51.523438 153.425781 C 51.523438 154.125 51.695312 154.679688 52.039062 155.085938 C 52.386719 155.492188 52.855469 155.691406 53.445312 155.691406 C 54.035156 155.691406 54.5 155.492188 54.847656 155.085938 C 55.191406 154.679688 55.363281 154.125 55.363281 153.425781 C 55.363281 152.722656 55.191406 152.171875 54.847656 151.769531 C 54.5 151.363281 54.035156 151.160156 53.445312 151.160156 Z M 56.054688 147.039062 L 56.054688 148.238281 C 55.722656 148.082031 55.390625 147.960938 55.054688 147.878906 C 54.71875 147.796875 54.386719 147.753906 54.054688 147.753906 C 53.1875 147.753906 52.523438 148.050781 52.066406 148.636719 C 51.609375 149.222656 51.347656 150.105469 51.28125 151.292969 C 51.535156 150.914062 51.859375 150.625 52.242188 150.421875 C 52.632812 150.222656 53.058594 150.121094 53.519531 150.121094 C 54.496094 150.121094 55.269531 150.417969 55.835938 151.011719 C 56.402344 151.601562 56.6875 152.40625 56.6875 153.425781 C 56.6875 154.425781 56.390625 155.226562 55.800781 155.832031 C 55.210938 156.433594 54.425781 156.734375 53.445312 156.734375 C 52.320312 156.734375 51.460938 156.304688 50.863281 155.441406 C 50.269531 154.582031 49.972656 153.332031 49.972656 151.695312 C 49.972656 150.160156 50.335938 148.933594 51.066406 148.019531 C 51.796875 147.105469 52.773438 146.648438 54.003906 146.648438 C 54.332031 146.648438 54.667969 146.683594 55.003906 146.746094 C 55.339844 146.8125 55.6875 146.910156 56.054688 147.039062 Z M 56.054688 147.039062 "/>
<g clip-path="url(#clip7)" clip-rule="nonzero">
<path style="fill:none;stroke-width:0.8;stroke-linecap:square;stroke-linejoin:round;stroke:rgb(69.01961%,69.01961%,69.01961%);stroke-opacity:1;stroke-miterlimit:4;" d="M 50.144531 83.416992 L 245.443359 83.416992 " transform="matrix(1.333333,0,0,1.333333,0,0.000000000000014211)"/>
</g>
<path style="fill:none;stroke-width:0.8;stroke-linecap:butt;stroke-linejoin:round;stroke:rgb(0%,0%,0%);stroke-opacity:1;stroke-miterlimit:4;" d="M 0.000782013 -0.000389099 L -3.500195 -0.000389099 " transform="matrix(1.333333,0,0,1.333333,66.858332,111.223175)"/>
<path style=" stroke:none;fill-rule:nonzero;fill:rgb(0%,0%,0%);fill-opacity:1;" d="M 32.074219 107.433594 C 31.398438 107.433594 30.890625 107.769531 30.546875 108.433594 C 30.207031 109.101562 30.039062 110.101562 30.039062 111.4375 C 30.039062 112.769531 30.207031 113.769531 30.546875 114.4375 C 30.890625 115.101562 31.398438 115.4375 32.074219 115.4375 C 32.757812 115.4375 33.269531 115.101562 33.609375 114.4375 C 33.949219 113.769531 34.121094 112.769531 34.121094 111.4375 C 34.121094 110.101562 33.949219 109.101562 33.609375 108.433594 C 33.269531 107.769531 32.757812 107.433594 32.074219 107.433594 Z M 32.074219 106.394531 C 33.164062 106.394531 33.996094 106.824219 34.574219 107.6875 C 35.148438 108.546875 35.433594 109.796875 35.433594 111.4375 C 35.433594 113.074219 35.148438 114.324219 34.574219 115.1875 C 33.996094 116.046875 33.164062 116.476562 32.074219 116.476562 C 30.984375 116.476562 30.152344 116.046875 29.578125 115.1875 C 29.003906 114.324219 28.714844 113.074219 28.714844 111.4375 C 28.714844 109.796875 29.003906 108.546875 29.578125 107.6875 C 30.152344 106.824219 30.984375 106.394531 32.074219 106.394531 Z M 32.074219 106.394531 "/>
<path style=" stroke:none;fill-rule:nonzero;fill:rgb(0%,0%,0%);fill-opacity:1;" d="M 37.746094 114.632812 L 39.121094 114.632812 L 39.121094 116.289062 L 37.746094 116.289062 Z M 37.746094 114.632812 "/>
<path style=" stroke:none;fill-rule:nonzero;fill:rgb(0%,0%,0%);fill-opacity:1;" d="M 43.117188 115.183594 L 47.707031 115.183594 L 47.707031 116.289062 L 41.535156 116.289062 L 41.535156 115.183594 C 42.035156 114.664062 42.714844 113.972656 43.574219 113.101562 C 44.4375 112.234375 44.980469 111.671875 45.199219 111.417969 C 45.621094 110.945312 45.914062 110.546875 46.082031 110.21875 C 46.25 109.890625 46.332031 109.566406 46.332031 109.25 C 46.332031 108.734375 46.152344 108.3125 45.789062 107.988281 C 45.425781 107.664062 44.957031 107.5 44.375 107.5 C 43.960938 107.5 43.527344 107.570312 43.066406 107.714844 C 42.609375 107.855469 42.121094 108.074219 41.601562 108.367188 L 41.601562 107.035156 C 42.128906 106.824219 42.625 106.664062 43.082031 106.554688 C 43.546875 106.445312 43.964844 106.394531 44.347656 106.394531 C 45.355469 106.394531 46.15625 106.644531 46.757812 107.148438 C 47.355469 107.652344 47.65625 108.324219 47.65625 109.164062 C 47.65625 109.566406 47.578125 109.945312 47.429688 110.304688 C 47.28125 110.660156 47.007812 111.082031 46.613281 111.566406 C 46.503906 111.695312 46.160156 112.058594 45.578125 112.660156 C 44.996094 113.261719 44.175781 114.101562 43.117188 115.183594 Z M 43.117188 115.183594 "/>
<path style=" stroke:none;fill-rule:nonzero;fill:rgb(0%,0%,0%);fill-opacity:1;" d="M 53.28125 111.671875 C 52.65625 111.671875 52.164062 111.839844 51.804688 112.175781 C 51.449219 112.507812 51.269531 112.96875 51.269531 113.554688 C 51.269531 114.140625 51.449219 114.601562 51.804688 114.933594 C 52.164062 115.269531 52.65625 115.4375 53.28125 115.4375 C 53.90625 115.4375 54.398438 115.269531 54.757812 114.933594 C 55.117188 114.59375 55.296875 114.136719 55.296875 113.554688 C 55.296875 112.96875 55.117188 112.507812 54.761719 112.175781 C 54.402344 111.839844 53.910156 111.671875 53.28125 111.671875 Z M 51.964844 111.113281 C 51.402344 110.976562 50.960938 110.710938 50.644531 110.328125 C 50.332031 109.9375 50.175781 109.46875 50.175781 108.910156 C 50.175781 108.136719 50.453125 107.519531 51.003906 107.070312 C 51.558594 106.617188 52.316406 106.394531 53.28125 106.394531 C 54.246094 106.394531 55.007812 106.617188 55.558594 107.070312 C 56.109375 107.519531 56.386719 108.136719 56.386719 108.910156 C 56.386719 109.46875 56.226562 109.9375 55.914062 110.328125 C 55.597656 110.710938 55.160156 110.976562 54.601562 111.113281 C 55.234375 111.261719 55.730469 111.550781 56.082031 111.980469 C 56.4375 112.410156 56.613281 112.933594 56.613281 113.554688 C 56.613281 114.496094 56.324219 115.21875 55.75 115.722656 C 55.175781 116.226562 54.351562 116.476562 53.28125 116.476562 C 52.207031 116.476562 51.386719 116.226562 50.808594 115.722656 C 50.234375 115.21875 49.945312 114.496094 49.945312 113.554688 C 49.945312 112.933594 50.125 112.410156 50.480469 111.980469 C 50.835938 111.550781 51.332031 111.261719 51.964844 111.113281 Z M 51.484375 109.035156 C 51.484375 109.539062 51.640625 109.933594 51.953125 110.214844 C 52.269531 110.496094 52.710938 110.636719 53.28125 110.636719 C 53.84375 110.636719 54.285156 110.496094 54.605469 110.214844 C 54.925781 109.933594 55.082031 109.539062 55.082031 109.035156 C 55.082031 108.53125 54.925781 108.140625 54.605469 107.859375 C 54.285156 107.574219 53.84375 107.433594 53.28125 107.433594 C 52.710938 107.433594 52.269531 107.574219 51.953125 107.859375 C 51.640625 108.140625 51.484375 108.53125 51.484375 109.035156 Z M 51.484375 109.035156 "/>
<g clip-path="url(#clip8)" clip-rule="nonzero">
<path style="fill:none;stroke-width:0.8;stroke-linecap:square;stroke-linejoin:round;stroke:rgb(69.01961%,69.01961%,69.01961%);stroke-opacity:1;stroke-miterlimit:4;" d="M 50.144531 53.223633 L 245.443359 53.223633 " transform="matrix(1.333333,0,0,1.333333,0,0.000000000000014211)"/>
</g>
<path style="fill:none;stroke-width:0.8;stroke-linecap:butt;stroke-linejoin:round;stroke:rgb(0%,0%,0%);stroke-opacity:1;stroke-miterlimit:4;" d="M 0.000782013 -0.00127029 L -3.500195 -0.00127029 " transform="matrix(1.333333,0,0,1.333333,66.858332,70.966537)"/>
<path style=" stroke:none;fill-rule:nonzero;fill:rgb(0%,0%,0%);fill-opacity:1;" d="M 32.074219 67.179688 C 31.398438 67.179688 30.890625 67.511719 30.546875 68.179688 C 30.207031 68.84375 30.039062 69.84375 30.039062 71.183594 C 30.039062 72.515625 30.207031 73.511719 30.546875 74.179688 C 30.890625 74.847656 31.398438 75.179688 32.074219 75.179688 C 32.757812 75.179688 33.269531 74.847656 33.609375 74.179688 C 33.949219 73.511719 34.121094 72.515625 34.121094 71.183594 C 34.121094 69.84375 33.949219 68.84375 33.609375 68.179688 C 33.269531 67.511719 32.757812 67.179688 32.074219 67.179688 Z M 32.074219 66.136719 C 33.164062 66.136719 33.996094 66.566406 34.574219 67.429688 C 35.148438 68.292969 35.433594 69.542969 35.433594 71.183594 C 35.433594 72.816406 35.148438 74.066406 34.574219 74.929688 C 33.996094 75.792969 33.164062 76.222656 32.074219 76.222656 C 30.984375 76.222656 30.152344 75.792969 29.578125 74.929688 C 29.003906 74.066406 28.714844 72.816406 28.714844 71.183594 C 28.714844 69.542969 29.003906 68.292969 29.578125 67.429688 C 30.152344 66.566406 30.984375 66.136719 32.074219 66.136719 Z M 32.074219 66.136719 "/>
<path style=" stroke:none;fill-rule:nonzero;fill:rgb(0%,0%,0%);fill-opacity:1;" d="M 37.746094 74.378906 L 39.121094 74.378906 L 39.121094 76.03125 L 37.746094 76.03125 Z M 37.746094 74.378906 "/>
<path style=" stroke:none;fill-rule:nonzero;fill:rgb(0%,0%,0%);fill-opacity:1;" d="M 45.96875 70.789062 C 46.597656 70.925781 47.089844 71.207031 47.441406 71.632812 C 47.796875 72.058594 47.972656 72.582031 47.972656 73.207031 C 47.972656 74.164062 47.644531 74.90625 46.984375 75.433594 C 46.324219 75.960938 45.386719 76.222656 44.171875 76.222656 C 43.765625 76.222656 43.34375 76.179688 42.914062 76.101562 C 42.480469 76.019531 42.035156 75.898438 41.574219 75.738281 L 41.574219 74.46875 C 41.9375 74.683594 42.339844 74.84375 42.769531 74.949219 C 43.207031 75.058594 43.660156 75.113281 44.132812 75.113281 C 44.957031 75.113281 45.585938 74.949219 46.015625 74.625 C 46.449219 74.300781 46.664062 73.828125 46.664062 73.207031 C 46.664062 72.632812 46.464844 72.1875 46.0625 71.863281 C 45.660156 71.539062 45.101562 71.378906 44.386719 71.378906 L 43.253906 71.378906 L 43.253906 70.296875 L 44.441406 70.296875 C 45.085938 70.296875 45.582031 70.167969 45.921875 69.910156 C 46.265625 69.652344 46.4375 69.277344 46.4375 68.792969 C 46.4375 68.292969 46.261719 67.910156 45.90625 67.644531 C 45.554688 67.375 45.046875 67.242188 44.386719 67.242188 C 44.027344 67.242188 43.640625 67.28125 43.226562 67.359375 C 42.816406 67.4375 42.363281 67.558594 41.867188 67.722656 L 41.867188 66.554688 C 42.367188 66.414062 42.835938 66.308594 43.269531 66.242188 C 43.707031 66.171875 44.117188 66.136719 44.503906 66.136719 C 45.503906 66.136719 46.292969 66.363281 46.875 66.816406 C 47.457031 67.269531 47.746094 67.882812 47.746094 68.65625 C 47.746094 69.195312 47.59375 69.648438 47.285156 70.019531 C 46.976562 70.390625 46.539062 70.648438 45.96875 70.789062 Z M 45.96875 70.789062 "/>
<path style=" stroke:none;fill-rule:nonzero;fill:rgb(0%,0%,0%);fill-opacity:1;" d="M 53.28125 67.179688 C 52.601562 67.179688 52.09375 67.511719 51.753906 68.179688 C 51.410156 68.84375 51.242188 69.84375 51.242188 71.183594 C 51.242188 72.515625 51.410156 73.511719 51.753906 74.179688 C 52.09375 74.847656 52.601562 75.179688 53.28125 75.179688 C 53.960938 75.179688 54.472656 74.847656 54.8125 74.179688 C 55.15625 73.511719 55.324219 72.515625 55.324219 71.183594 C 55.324219 69.84375 55.15625 68.84375 54.8125 68.179688 C 54.472656 67.511719 53.960938 67.179688 53.28125 67.179688 Z M 53.28125 66.136719 C 54.371094 66.136719 55.203125 66.566406 55.777344 67.429688 C 56.351562 68.292969 56.640625 69.542969 56.640625 71.183594 C 56.640625 72.816406 56.351562 74.066406 55.777344 74.929688 C 55.203125 75.792969 54.371094 76.222656 53.28125 76.222656 C 52.191406 76.222656 51.359375 75.792969 50.785156 74.929688 C 50.207031 74.066406 49.921875 72.816406 49.921875 71.183594 C 49.921875 69.542969 50.207031 68.292969 50.785156 67.429688 C 51.359375 66.566406 52.191406 66.136719 53.28125 66.136719 Z M 53.28125 66.136719 "/>
<g clip-path="url(#clip9)" clip-rule="nonzero">
<path style="fill:none;stroke-width:0.8;stroke-linecap:square;stroke-linejoin:round;stroke:rgb(69.01961%,69.01961%,69.01961%);stroke-opacity:1;stroke-miterlimit:4;" d="M 50.144531 23.033203 L 245.443359 23.033203 " transform="matrix(1.333333,0,0,1.333333,0,0.000000000000014211)"/>
</g>
<path style="fill:none;stroke-width:0.8;stroke-linecap:butt;stroke-linejoin:round;stroke:rgb(0%,0%,0%);stroke-opacity:1;stroke-miterlimit:4;" d="M 0.000782013 0.000778198 L -3.500195 0.000778198 " transform="matrix(1.333333,0,0,1.333333,66.858332,30.7099)"/>
<path style=" stroke:none;fill-rule:nonzero;fill:rgb(0%,0%,0%);fill-opacity:1;" d="M 32.074219 26.921875 C 31.398438 26.921875 30.890625 27.253906 30.546875 27.921875 C 30.207031 28.585938 30.039062 29.589844 30.039062 30.925781 C 30.039062 32.257812 30.207031 33.257812 30.546875 33.921875 C 30.890625 34.589844 31.398438 34.921875 32.074219 34.921875 C 32.757812 34.921875 33.269531 34.589844 33.609375 33.921875 C 33.949219 33.257812 34.121094 32.257812 34.121094 30.925781 C 34.121094 29.589844 33.949219 28.585938 33.609375 27.921875 C 33.269531 27.253906 32.757812 26.921875 32.074219 26.921875 Z M 32.074219 25.878906 C 33.164062 25.878906 33.996094 26.3125 34.574219 27.171875 C 35.148438 28.035156 35.433594 29.285156 35.433594 30.925781 C 35.433594 32.5625 35.148438 33.8125 34.574219 34.671875 C 33.996094 35.535156 33.164062 35.964844 32.074219 35.964844 C 30.984375 35.964844 30.152344 35.535156 29.578125 34.671875 C 29.003906 33.8125 28.714844 32.5625 28.714844 30.925781 C 28.714844 29.285156 29.003906 28.035156 29.578125 27.171875 C 30.152344 26.3125 30.984375 25.878906 32.074219 25.878906 Z M 32.074219 25.878906 "/>
<path style=" stroke:none;fill-rule:nonzero;fill:rgb(0%,0%,0%);fill-opacity:1;" d="M 37.746094 34.121094 L 39.121094 34.121094 L 39.121094 35.777344 L 37.746094 35.777344 Z M 37.746094 34.121094 "/>
<path style=" stroke:none;fill-rule:nonzero;fill:rgb(0%,0%,0%);fill-opacity:1;" d="M 45.96875 30.535156 C 46.597656 30.667969 47.089844 30.949219 47.441406 31.375 C 47.796875 31.800781 47.972656 32.324219 47.972656 32.949219 C 47.972656 33.910156 47.644531 34.652344 46.984375 35.175781 C 46.324219 35.703125 45.386719 35.964844 44.171875 35.964844 C 43.765625 35.964844 43.34375 35.925781 42.914062 35.84375 C 42.480469 35.765625 42.035156 35.644531 41.574219 35.480469 L 41.574219 34.214844 C 41.9375 34.425781 42.339844 34.585938 42.769531 34.695312 C 43.207031 34.800781 43.660156 34.855469 44.132812 34.855469 C 44.957031 34.855469 45.585938 34.695312 46.015625 34.371094 C 46.449219 34.042969 46.664062 33.570312 46.664062 32.949219 C 46.664062 32.375 46.464844 31.929688 46.0625 31.605469 C 45.660156 31.28125 45.101562 31.121094 44.386719 31.121094 L 43.253906 31.121094 L 43.253906 30.039062 L 44.441406 30.039062 C 45.085938 30.039062 45.582031 29.910156 45.921875 29.652344 C 46.265625 29.394531 46.4375 29.023438 46.4375 28.535156 C 46.4375 28.039062 46.261719 27.65625 45.90625 27.386719 C 45.554688 27.121094 45.046875 26.984375 44.386719 26.984375 C 44.027344 26.984375 43.640625 27.027344 43.226562 27.105469 C 42.816406 27.183594 42.363281 27.304688 41.867188 27.46875 L 41.867188 26.296875 C 42.367188 26.15625 42.835938 26.054688 43.269531 25.984375 C 43.707031 25.914062 44.117188 25.878906 44.503906 25.878906 C 45.503906 25.878906 46.292969 26.105469 46.875 26.5625 C 47.457031 27.015625 47.746094 27.625 47.746094 28.398438 C 47.746094 28.9375 47.59375 29.390625 47.285156 29.761719 C 46.976562 30.132812 46.539062 30.390625 45.96875 30.535156 Z M 45.96875 30.535156 "/>
<path style=" stroke:none;fill-rule:nonzero;fill:rgb(0%,0%,0%);fill-opacity:1;" d="M 51.601562 34.667969 L 56.191406 34.667969 L 56.191406 35.777344 L 50.019531 35.777344 L 50.019531 34.667969 C 50.519531 34.152344 51.199219 33.460938 52.058594 32.589844 C 52.921875 31.71875 53.460938 31.15625 53.683594 30.90625 C 54.105469 30.433594 54.398438 30.03125 54.566406 29.703125 C 54.734375 29.375 54.816406 29.054688 54.816406 28.738281 C 54.816406 28.222656 54.636719 27.800781 54.273438 27.476562 C 53.910156 27.148438 53.4375 26.984375 52.855469 26.984375 C 52.445312 26.984375 52.007812 27.058594 51.550781 27.199219 C 51.09375 27.34375 50.605469 27.5625 50.082031 27.851562 L 50.082031 26.523438 C 50.613281 26.3125 51.105469 26.152344 51.566406 26.042969 C 52.027344 25.933594 52.449219 25.878906 52.832031 25.878906 C 53.839844 25.878906 54.640625 26.132812 55.238281 26.636719 C 55.839844 27.140625 56.136719 27.8125 56.136719 28.652344 C 56.136719 29.050781 56.0625 29.433594 55.914062 29.789062 C 55.765625 30.148438 55.492188 30.570312 55.097656 31.054688 C 54.988281 31.179688 54.644531 31.546875 54.0625 32.144531 C 53.480469 32.746094 52.660156 33.589844 51.601562 34.667969 Z M 51.601562 34.667969 "/>
<path style=" stroke:none;fill-rule:nonzero;fill:rgb(0%,0%,0%);fill-opacity:1;" d="M 9.601562 113.621094 L 9.601562 112.421875 L 19.730469 112.421875 L 19.730469 113.621094 Z M 9.601562 113.621094 "/>
<path style=" stroke:none;fill-rule:nonzero;fill:rgb(0%,0%,0%);fill-opacity:1;" d="M 13.277344 107.089844 C 13.277344 107.734375 13.53125 108.242188 14.03125 108.613281 C 14.53125 108.988281 15.21875 109.175781 16.089844 109.175781 C 16.964844 109.175781 17.652344 108.988281 18.152344 108.617188 C 18.652344 108.246094 18.902344 107.738281 18.902344 107.089844 C 18.902344 106.453125 18.652344 105.945312 18.148438 105.574219 C 17.644531 105.199219 16.960938 105.015625 16.089844 105.015625 C 15.226562 105.015625 14.542969 105.199219 14.039062 105.574219 C 13.53125 105.945312 13.277344 106.453125 13.277344 107.089844 Z M 12.265625 107.089844 C 12.265625 106.050781 12.601562 105.230469 13.28125 104.636719 C 13.957031 104.042969 14.894531 103.742188 16.089844 103.742188 C 17.285156 103.742188 18.222656 104.042969 18.902344 104.636719 C 19.582031 105.230469 19.921875 106.050781 19.921875 107.089844 C 19.921875 108.136719 19.582031 108.957031 18.902344 109.550781 C 18.222656 110.140625 17.285156 110.4375 16.089844 110.4375 C 14.894531 110.4375 13.957031 110.140625 13.28125 109.550781 C 12.601562 108.957031 12.265625 108.136719 12.265625 107.089844 Z M 12.265625 107.089844 "/>
<path style=" stroke:none;fill-rule:nonzero;fill:rgb(0%,0%,0%);fill-opacity:1;" d="M 12.652344 97.109375 L 13.789062 97.109375 C 13.613281 97.449219 13.484375 97.800781 13.398438 98.164062 C 13.308594 98.527344 13.265625 98.90625 13.265625 99.296875 C 13.265625 99.894531 13.359375 100.339844 13.539062 100.636719 C 13.722656 100.933594 13.996094 101.082031 14.359375 101.082031 C 14.636719 101.082031 14.855469 100.976562 15.015625 100.761719 C 15.171875 100.550781 15.324219 100.121094 15.464844 99.480469 L 15.558594 99.070312 C 15.742188 98.21875 15.996094 97.613281 16.328125 97.257812 C 16.660156 96.898438 17.125 96.71875 17.71875 96.71875 C 18.398438 96.71875 18.933594 96.988281 19.328125 97.523438 C 19.722656 98.058594 19.921875 98.796875 19.921875 99.734375 C 19.921875 100.125 19.882812 100.53125 19.804688 100.953125 C 19.730469 101.378906 19.617188 101.824219 19.464844 102.292969 L 18.226562 102.292969 C 18.457031 101.847656 18.628906 101.414062 18.746094 100.984375 C 18.859375 100.554688 18.917969 100.128906 18.917969 99.707031 C 18.917969 99.144531 18.820312 98.710938 18.628906 98.40625 C 18.433594 98.101562 18.160156 97.949219 17.808594 97.949219 C 17.484375 97.949219 17.234375 98.058594 17.0625 98.28125 C 16.890625 98.496094 16.722656 98.976562 16.558594 99.722656 L 16.460938 100.136719 C 16.308594 100.878906 16.066406 101.414062 15.742188 101.746094 C 15.421875 102.074219 14.976562 102.238281 14.414062 102.238281 C 13.726562 102.238281 13.195312 101.996094 12.824219 101.511719 C 12.453125 101.023438 12.265625 100.335938 12.265625 99.441406 C 12.265625 99 12.296875 98.582031 12.363281 98.191406 C 12.425781 97.800781 12.523438 97.441406 12.652344 97.109375 Z M 12.652344 97.109375 "/>
<path style=" stroke:none;fill-rule:nonzero;fill:rgb(0%,0%,0%);fill-opacity:1;" d="M 12.652344 90.164062 L 13.789062 90.164062 C 13.613281 90.5 13.484375 90.851562 13.398438 91.21875 C 13.308594 91.582031 13.265625 91.960938 13.265625 92.351562 C 13.265625 92.945312 13.359375 93.390625 13.539062 93.6875 C 13.722656 93.988281 13.996094 94.136719 14.359375 94.136719 C 14.636719 94.136719 14.855469 94.027344 15.015625 93.816406 C 15.171875 93.605469 15.324219 93.175781 15.464844 92.53125 L 15.558594 92.121094 C 15.742188 91.273438 15.996094 90.667969 16.328125 90.308594 C 16.660156 89.953125 17.125 89.773438 17.71875 89.773438 C 18.398438 89.773438 18.933594 90.039062 19.328125 90.578125 C 19.722656 91.113281 19.921875 91.851562 19.921875 92.789062 C 19.921875 93.175781 19.882812 93.585938 19.804688 94.007812 C 19.730469 94.433594 19.617188 94.878906 19.464844 95.34375 L 18.226562 95.34375 C 18.457031 94.902344 18.628906 94.464844 18.746094 94.039062 C 18.859375 93.609375 18.917969 93.183594 18.917969 92.761719 C 18.917969 92.195312 18.820312 91.761719 18.628906 91.460938 C 18.433594 91.15625 18.160156 91.003906 17.808594 91.003906 C 17.484375 91.003906 17.234375 91.113281 17.0625 91.332031 C 16.890625 91.550781 16.722656 92.03125 16.558594 92.773438 L 16.460938 93.191406 C 16.308594 93.933594 16.066406 94.46875 15.742188 94.800781 C 15.421875 95.128906 14.976562 95.292969 14.414062 95.292969 C 13.726562 95.292969 13.195312 95.050781 12.824219 94.5625 C 12.453125 94.078125 12.265625 93.386719 12.265625 92.492188 C 12.265625 92.050781 12.296875 91.636719 12.363281 91.246094 C 12.425781 90.855469 12.523438 90.492188 12.652344 90.164062 Z M 12.652344 90.164062 "/>
<path style="fill:none;stroke-width:1.5;stroke-linecap:square;stroke-linejoin:round;stroke:rgb(12.156863%,46.666667%,70.588237%);stroke-opacity:1;stroke-miterlimit:4;" d="M 114.887695 127.766602 L 121.693359 135.070312 L 127.013672 135.741211 L 131.513672 134.821289 L 135.430664 132.626953 " transform="matrix(1.333333,0,0,1.333333,0,0.000000000000014211)"/>
<path style="fill:none;stroke-width:1.5;stroke-linecap:butt;stroke-linejoin:round;stroke:rgb(74.901962%,0%,74.901962%);stroke-opacity:1;stroke-dasharray:5.55,2.4;stroke-miterlimit:4;" d="M 112.731445 57.486328 L 132.295898 110.803711 L 143.833008 117.213867 L 151.930664 131.777344 L 158.25 134.950195 L 163.391602 134.024414 L 167.745117 136.725586 L 171.530273 137.791992 L 174.832031 138.583008 L 177.805664 137.288086 L 180.503906 137.566406 L 182.953125 134.264648 L 185.206055 134.663086 L 187.294922 132.383789 L 189.257812 136.168945 " transform="matrix(1.333333,0,0,1.333333,0,0.000000000000014211)"/>
<g clip-path="url(#clip10)" clip-rule="nonzero">
<path style="fill:none;stroke-width:1.5;stroke-linecap:butt;stroke-linejoin:round;stroke:rgb(0%,50.196081%,0%);stroke-opacity:1;stroke-dasharray:9.6,2.4,1.5,2.4;stroke-miterlimit:4;" d="M 41.630859 19.584961 L 51.049805 84.987305 L 58.022461 128.777344 L 63.708984 129.369141 L 68.384766 137.633789 L 72.533203 134.481445 L 76.239258 132.023438 L 79.728516 128.326172 L 82.582031 128.947266 L 85.303711 134.548828 L 87.609375 133.87207 L 89.730469 133.104492 L 91.825195 132.84082 L 93.624023 137.698242 L 95.296875 135.266602 " transform="matrix(1.333333,0,0,1.333333,0,0.000000000000014211)"/>
</g>
<path style="fill:none;stroke-width:1.5;stroke-linecap:butt;stroke-linejoin:round;stroke:rgb(100%,0%,0%);stroke-opacity:1;stroke-dasharray:1.5,2.475;stroke-miterlimit:4;" d="M 54.685547 13.5 L 75.457031 100.924805 L 87.084961 126.035156 L 95.560547 129.489258 L 101.557617 134.677734 L 106.464844 137.15332 L 110.645508 136.379883 L 114.430664 138.369141 L 117.65332 131.589844 L 120.550781 139.201172 L 123.181641 139.5 L 125.589844 138.459961 L 127.787109 138.316406 L 129.832031 138.662109 L 131.733398 135.18457 " transform="matrix(1.333333,0,0,1.333333,0,0.000000000000014211)"/>
<path style="fill:none;stroke-width:0.8;stroke-linecap:square;stroke-linejoin:miter;stroke:rgb(0%,0%,0%);stroke-opacity:1;stroke-miterlimit:4;" d="M 50.144531 145.798828 L 50.144531 7.201172 " transform="matrix(1.333333,0,0,1.333333,0,0.000000000000014211)"/>
<path style="fill:none;stroke-width:0.8;stroke-linecap:square;stroke-linejoin:miter;stroke:rgb(0%,0%,0%);stroke-opacity:1;stroke-miterlimit:4;" d="M 245.443359 145.798828 L 245.443359 7.201172 " transform="matrix(1.333333,0,0,1.333333,0,0.000000000000014211)"/>
<path style="fill:none;stroke-width:0.8;stroke-linecap:square;stroke-linejoin:miter;stroke:rgb(0%,0%,0%);stroke-opacity:1;stroke-miterlimit:4;" d="M 50.144531 145.798828 L 245.443359 145.798828 " transform="matrix(1.333333,0,0,1.333333,0,0.000000000000014211)"/>
<path style="fill:none;stroke-width:0.8;stroke-linecap:square;stroke-linejoin:miter;stroke:rgb(0%,0%,0%);stroke-opacity:1;stroke-miterlimit:4;" d="M 50.144531 7.201172 L 245.443359 7.201172 " transform="matrix(1.333333,0,0,1.333333,0,0.000000000000014211)"/>
<use xlink:href="#surface5" mask="url(#mask0)"/>
<path style="fill:none;stroke-width:1.5;stroke-linecap:square;stroke-linejoin:round;stroke:rgb(12.156863%,46.666667%,70.588237%);stroke-opacity:1;stroke-miterlimit:4;" d="M 130.177734 20.299805 L 150.175781 20.299805 " transform="matrix(1.333333,0,0,1.333333,0,0.000000000000014211)"/>
<path style=" stroke:none;fill-rule:nonzero;fill:rgb(0%,0%,0%);fill-opacity:1;" d="M 216.957031 28 C 216.957031 27.132812 216.777344 26.460938 216.417969 25.984375 C 216.0625 25.503906 215.558594 25.265625 214.914062 25.265625 C 214.269531 25.265625 213.769531 25.503906 213.414062 25.984375 C 213.054688 26.460938 212.875 27.132812 212.875 28 C 212.875 28.863281 213.054688 29.535156 213.414062 30.011719 C 213.769531 30.492188 214.269531 30.730469 214.914062 30.730469 C 215.558594 30.730469 216.0625 30.492188 216.417969 30.011719 C 216.777344 29.535156 216.957031 28.863281 216.957031 28 Z M 218.152344 30.828125 C 218.152344 32.066406 217.878906 32.992188 217.328125 33.597656 C 216.777344 34.203125 215.933594 34.503906 214.796875 34.503906 C 214.375 34.503906 213.976562 34.472656 213.605469 34.410156 C 213.230469 34.347656 212.867188 34.25 212.515625 34.121094 L 212.515625 32.957031 C 212.867188 33.148438 213.214844 33.285156 213.558594 33.378906 C 213.902344 33.46875 214.25 33.515625 214.605469 33.515625 C 215.390625 33.515625 215.980469 33.308594 216.371094 32.898438 C 216.761719 32.492188 216.957031 31.871094 216.957031 31.042969 L 216.957031 30.449219 C 216.710938 30.878906 216.390625 31.199219 216.007812 31.414062 C 215.621094 31.625 215.15625 31.730469 214.617188 31.730469 C 213.726562 31.730469 213.003906 31.390625 212.457031 30.710938 C 211.910156 30.027344 211.636719 29.125 211.636719 28 C 211.636719 26.871094 211.910156 25.96875 212.457031 25.289062 C 213.003906 24.605469 213.726562 24.265625 214.617188 24.265625 C 215.15625 24.265625 215.621094 24.371094 216.007812 24.582031 C 216.390625 24.796875 216.710938 25.117188 216.957031 25.546875 L 216.957031 24.441406 L 218.152344 24.441406 Z M 218.152344 30.828125 "/>
<path style=" stroke:none;fill-rule:nonzero;fill:rgb(0%,0%,0%);fill-opacity:1;" d="M 225.417969 25.546875 L 225.417969 21.601562 L 226.617188 21.601562 L 226.617188 31.730469 L 225.417969 31.730469 L 225.417969 30.636719 C 225.167969 31.070312 224.851562 31.394531 224.464844 31.605469 C 224.082031 31.816406 223.621094 31.921875 223.082031 31.921875 C 222.203125 31.921875 221.484375 31.570312 220.929688 30.867188 C 220.378906 30.164062 220.101562 29.238281 220.101562 28.089844 C 220.101562 26.945312 220.378906 26.023438 220.929688 25.320312 C 221.484375 24.617188 222.203125 24.265625 223.082031 24.265625 C 223.621094 24.265625 224.082031 24.371094 224.464844 24.582031 C 224.851562 24.789062 225.167969 25.113281 225.417969 25.546875 Z M 221.339844 28.089844 C 221.339844 28.972656 221.519531 29.664062 221.882812 30.164062 C 222.246094 30.664062 222.742188 30.917969 223.375 30.917969 C 224.007812 30.917969 224.507812 30.664062 224.871094 30.164062 C 225.238281 29.664062 225.417969 28.972656 225.417969 28.089844 C 225.417969 27.210938 225.238281 26.519531 224.871094 26.019531 C 224.507812 25.515625 224.007812 25.265625 223.375 25.265625 C 222.742188 25.265625 222.246094 25.515625 221.882812 26.019531 C 221.519531 26.519531 221.339844 27.210938 221.339844 28.089844 Z M 221.339844 28.089844 "/>
<path style="fill:none;stroke-width:1.5;stroke-linecap:butt;stroke-linejoin:round;stroke:rgb(74.901962%,0%,74.901962%);stroke-opacity:1;stroke-dasharray:5.55,2.4;stroke-miterlimit:4;" d="M 130.177734 34.977539 L 150.175781 34.977539 " transform="matrix(1.333333,0,0,1.333333,0,0.000000000000014211)"/>
<path style=" stroke:none;fill-rule:nonzero;fill:rgb(0%,0%,0%);fill-opacity:1;" d="M 216.804688 44.226562 L 216.804688 45.359375 C 216.46875 45.183594 216.117188 45.054688 215.753906 44.96875 C 215.386719 44.882812 215.011719 44.835938 214.617188 44.835938 C 214.023438 44.835938 213.578125 44.929688 213.28125 45.109375 C 212.984375 45.292969 212.835938 45.566406 212.835938 45.929688 C 212.835938 46.210938 212.941406 46.425781 213.152344 46.585938 C 213.367188 46.742188 213.792969 46.894531 214.4375 47.039062 L 214.847656 47.128906 C 215.699219 47.3125 216.300781 47.566406 216.660156 47.898438 C 217.019531 48.230469 217.199219 48.695312 217.199219 49.289062 C 217.199219 49.96875 216.929688 50.503906 216.394531 50.898438 C 215.859375 51.292969 215.121094 51.492188 214.183594 51.492188 C 213.792969 51.492188 213.386719 51.453125 212.960938 51.378906 C 212.539062 51.300781 212.09375 51.1875 211.625 51.035156 L 211.625 49.796875 C 212.066406 50.027344 212.503906 50.203125 212.933594 50.316406 C 213.363281 50.429688 213.789062 50.488281 214.210938 50.488281 C 214.773438 50.488281 215.207031 50.390625 215.511719 50.199219 C 215.816406 50.003906 215.964844 49.734375 215.964844 49.382812 C 215.964844 49.054688 215.855469 48.808594 215.636719 48.632812 C 215.417969 48.460938 214.9375 48.292969 214.195312 48.132812 L 213.777344 48.035156 C 213.039062 47.878906 212.5 47.636719 212.171875 47.316406 C 211.839844 46.992188 211.675781 46.546875 211.675781 45.984375 C 211.675781 45.296875 211.921875 44.769531 212.40625 44.394531 C 212.890625 44.023438 213.582031 43.835938 214.476562 43.835938 C 214.917969 43.835938 215.335938 43.867188 215.726562 43.933594 C 216.117188 43.996094 216.476562 44.09375 216.804688 44.226562 Z M 216.804688 44.226562 "/>
<path style=" stroke:none;fill-rule:nonzero;fill:rgb(0%,0%,0%);fill-opacity:1;" d="M 223.902344 47.570312 C 223.902344 46.703125 223.722656 46.03125 223.367188 45.554688 C 223.007812 45.078125 222.507812 44.835938 221.859375 44.835938 C 221.21875 44.835938 220.71875 45.078125 220.359375 45.554688 C 220 46.03125 219.820312 46.703125 219.820312 47.570312 C 219.820312 48.433594 220 49.105469 220.359375 49.582031 C 220.71875 50.0625 221.21875 50.300781 221.859375 50.300781 C 222.507812 50.300781 223.007812 50.0625 223.367188 49.582031 C 223.722656 49.105469 223.902344 48.433594 223.902344 47.570312 Z M 225.101562 50.398438 C 225.101562 51.636719 224.824219 52.5625 224.273438 53.167969 C 223.722656 53.773438 222.878906 54.074219 221.742188 54.074219 C 221.320312 54.074219 220.925781 54.042969 220.550781 53.980469 C 220.175781 53.917969 219.816406 53.820312 219.464844 53.691406 L 219.464844 52.527344 C 219.816406 52.71875 220.160156 52.859375 220.503906 52.949219 C 220.847656 53.039062 221.199219 53.085938 221.554688 53.085938 C 222.339844 53.085938 222.925781 52.878906 223.316406 52.472656 C 223.707031 52.0625 223.902344 51.441406 223.902344 50.613281 L 223.902344 50.019531 C 223.65625 50.449219 223.339844 50.769531 222.953125 50.984375 C 222.566406 51.195312 222.105469 51.300781 221.566406 51.300781 C 220.671875 51.300781 219.953125 50.960938 219.40625 50.28125 C 218.859375 49.597656 218.585938 48.695312 218.585938 47.570312 C 218.585938 46.441406 218.859375 45.539062 219.40625 44.859375 C 219.953125 44.175781 220.671875 43.835938 221.566406 43.835938 C 222.105469 43.835938 222.566406 43.941406 222.953125 44.152344 C 223.339844 44.367188 223.65625 44.6875 223.902344 45.117188 L 223.902344 44.011719 L 225.101562 44.011719 Z M 225.101562 50.398438 "/>
<path style=" stroke:none;fill-rule:nonzero;fill:rgb(0%,0%,0%);fill-opacity:1;" d="M 232.367188 45.117188 L 232.367188 41.171875 L 233.5625 41.171875 L 233.5625 51.300781 L 232.367188 51.300781 L 232.367188 50.207031 C 232.113281 50.640625 231.796875 50.964844 231.414062 51.175781 C 231.027344 51.386719 230.566406 51.492188 230.027344 51.492188 C 229.148438 51.492188 228.429688 51.140625 227.875 50.4375 C 227.324219 49.734375 227.046875 48.808594 227.046875 47.664062 C 227.046875 46.515625 227.324219 45.59375 227.875 44.890625 C 228.429688 44.1875 229.148438 43.835938 230.027344 43.835938 C 230.566406 43.835938 231.027344 43.941406 231.414062 44.152344 C 231.796875 44.363281 232.113281 44.683594 232.367188 45.117188 Z M 228.285156 47.664062 C 228.285156 48.542969 228.464844 49.234375 228.828125 49.734375 C 229.191406 50.238281 229.6875 50.488281 230.324219 50.488281 C 230.957031 50.488281 231.453125 50.238281 231.820312 49.734375 C 232.183594 49.234375 232.367188 48.542969 232.367188 47.664062 C 232.367188 46.78125 232.183594 46.089844 231.820312 45.589844 C 231.453125 45.089844 230.957031 44.835938 230.324219 44.835938 C 229.6875 44.835938 229.191406 45.089844 228.828125 45.589844 C 228.464844 46.089844 228.285156 46.78125 228.285156 47.664062 Z M 228.285156 47.664062 "/>
<path style="fill:none;stroke-width:1.5;stroke-linecap:butt;stroke-linejoin:round;stroke:rgb(0%,50.196081%,0%);stroke-opacity:1;stroke-dasharray:9.6,2.4,1.5,2.4;stroke-miterlimit:4;" d="M 130.177734 49.655273 L 150.175781 49.655273 " transform="matrix(1.333333,0,0,1.333333,0,0.000000000000014211)"/>
<path style=" stroke:none;fill-rule:nonzero;fill:rgb(0%,0%,0%);fill-opacity:1;" d="M 217.394531 67.234375 C 217.394531 66.351562 217.210938 65.660156 216.851562 65.160156 C 216.488281 64.660156 215.988281 64.410156 215.355469 64.410156 C 214.722656 64.410156 214.222656 64.660156 213.859375 65.160156 C 213.496094 65.660156 213.316406 66.351562 213.316406 67.234375 C 213.316406 68.113281 213.496094 68.804688 213.859375 69.304688 C 214.222656 69.808594 214.722656 70.058594 215.355469 70.058594 C 215.988281 70.058594 216.488281 69.808594 216.851562 69.304688 C 217.210938 68.804688 217.394531 68.113281 217.394531 67.234375 Z M 213.316406 64.6875 C 213.570312 64.253906 213.886719 63.933594 214.269531 63.722656 C 214.65625 63.511719 215.113281 63.40625 215.648438 63.40625 C 216.535156 63.40625 217.253906 63.757812 217.804688 64.460938 C 218.359375 65.164062 218.636719 66.085938 218.636719 67.234375 C 218.636719 68.378906 218.359375 69.304688 217.804688 70.007812 C 217.253906 70.710938 216.535156 71.0625 215.648438 71.0625 C 215.113281 71.0625 214.65625 70.957031 214.269531 70.746094 C 213.886719 70.535156 213.570312 70.210938 213.316406 69.777344 L 213.316406 70.871094 L 212.113281 70.871094 L 212.113281 60.742188 L 213.316406 60.742188 Z M 213.316406 64.6875 "/>
<path style=" stroke:none;fill-rule:nonzero;fill:rgb(0%,0%,0%);fill-opacity:1;" d="M 223.9375 67.207031 C 222.96875 67.207031 222.296875 67.320312 221.925781 67.539062 C 221.550781 67.761719 221.363281 68.136719 221.363281 68.671875 C 221.363281 69.097656 221.503906 69.433594 221.785156 69.683594 C 222.066406 69.933594 222.445312 70.058594 222.925781 70.058594 C 223.589844 70.058594 224.125 69.824219 224.527344 69.351562 C 224.925781 68.882812 225.128906 68.253906 225.128906 67.476562 L 225.128906 67.207031 Z M 226.324219 66.710938 L 226.324219 70.871094 L 225.128906 70.871094 L 225.128906 69.765625 C 224.855469 70.207031 224.511719 70.535156 224.105469 70.746094 C 223.695312 70.957031 223.199219 71.0625 222.605469 71.0625 C 221.863281 71.0625 221.269531 70.851562 220.824219 70.433594 C 220.386719 70.015625 220.164062 69.453125 220.164062 68.75 C 220.164062 67.929688 220.441406 67.3125 220.988281 66.894531 C 221.539062 66.480469 222.359375 66.269531 223.445312 66.269531 L 225.128906 66.269531 L 225.128906 66.152344 C 225.128906 65.601562 224.945312 65.175781 224.585938 64.871094 C 224.222656 64.570312 223.710938 64.421875 223.058594 64.421875 C 222.640625 64.421875 222.234375 64.472656 221.839844 64.570312 C 221.445312 64.671875 221.066406 64.820312 220.699219 65.019531 L 220.699219 63.914062 C 221.136719 63.742188 221.5625 63.617188 221.976562 63.535156 C 222.386719 63.449219 222.789062 63.40625 223.179688 63.40625 C 224.234375 63.40625 225.023438 63.679688 225.542969 64.226562 C 226.066406 64.773438 226.324219 65.601562 226.324219 66.710938 Z M 226.324219 66.710938 "/>
<path style=" stroke:none;fill-rule:nonzero;fill:rgb(0%,0%,0%);fill-opacity:1;" d="M 229.976562 61.511719 L 229.976562 63.582031 L 232.445312 63.582031 L 232.445312 64.511719 L 229.976562 64.511719 L 229.976562 68.472656 C 229.976562 69.066406 230.058594 69.445312 230.222656 69.617188 C 230.382812 69.785156 230.714844 69.871094 231.214844 69.871094 L 232.445312 69.871094 L 232.445312 70.871094 L 231.214844 70.871094 C 230.289062 70.871094 229.652344 70.699219 229.300781 70.355469 C 228.949219 70.011719 228.773438 69.382812 228.773438 68.472656 L 228.773438 64.511719 L 227.894531 64.511719 L 227.894531 63.582031 L 228.773438 63.582031 L 228.773438 61.511719 Z M 229.976562 61.511719 "/>
<path style=" stroke:none;fill-rule:nonzero;fill:rgb(0%,0%,0%);fill-opacity:1;" d="M 239.269531 63.859375 L 239.269531 64.980469 C 238.929688 64.792969 238.589844 64.652344 238.25 64.558594 C 237.910156 64.46875 237.566406 64.421875 237.21875 64.421875 C 236.441406 64.421875 235.835938 64.667969 235.40625 65.160156 C 234.976562 65.652344 234.761719 66.34375 234.761719 67.234375 C 234.761719 68.125 234.976562 68.816406 235.40625 69.308594 C 235.835938 69.800781 236.441406 70.046875 237.21875 70.046875 C 237.566406 70.046875 237.910156 70 238.25 69.90625 C 238.589844 69.8125 238.929688 69.671875 239.269531 69.484375 L 239.269531 70.59375 C 238.933594 70.75 238.585938 70.867188 238.230469 70.945312 C 237.871094 71.023438 237.492188 71.0625 237.085938 71.0625 C 235.988281 71.0625 235.117188 70.71875 234.46875 70.027344 C 233.824219 69.335938 233.5 68.40625 233.5 67.234375 C 233.5 66.042969 233.824219 65.109375 234.480469 64.429688 C 235.132812 63.746094 236.027344 63.40625 237.167969 63.40625 C 237.535156 63.40625 237.894531 63.445312 238.246094 63.519531 C 238.597656 63.597656 238.9375 63.710938 239.269531 63.859375 Z M 239.269531 63.859375 "/>
<path style=" stroke:none;fill-rule:nonzero;fill:rgb(0%,0%,0%);fill-opacity:1;" d="M 247.414062 66.472656 L 247.414062 70.871094 L 246.214844 70.871094 L 246.214844 66.511719 C 246.214844 65.820312 246.082031 65.304688 245.8125 64.960938 C 245.542969 64.621094 245.136719 64.449219 244.601562 64.449219 C 243.953125 64.449219 243.445312 64.652344 243.070312 65.066406 C 242.695312 65.476562 242.507812 66.039062 242.507812 66.753906 L 242.507812 70.871094 L 241.304688 70.871094 L 241.304688 60.742188 L 242.507812 60.742188 L 242.507812 64.714844 C 242.796875 64.277344 243.132812 63.949219 243.523438 63.730469 C 243.910156 63.515625 244.359375 63.40625 244.867188 63.40625 C 245.707031 63.40625 246.339844 63.664062 246.769531 64.183594 C 247.199219 64.703125 247.414062 65.464844 247.414062 66.472656 Z M 247.414062 66.472656 "/>
<path style=" stroke:none;fill-rule:nonzero;fill:rgb(0%,0%,0%);fill-opacity:1;" d="M 258.6875 63.796875 L 258.6875 64.929688 C 258.351562 64.753906 258 64.625 257.632812 64.539062 C 257.269531 64.453125 256.890625 64.410156 256.5 64.410156 C 255.90625 64.410156 255.460938 64.5 255.164062 64.679688 C 254.867188 64.863281 254.71875 65.136719 254.71875 65.503906 C 254.71875 65.78125 254.824219 65.996094 255.035156 66.15625 C 255.25 66.316406 255.675781 66.464844 256.320312 66.609375 L 256.730469 66.699219 C 257.578125 66.882812 258.183594 67.140625 258.542969 67.472656 C 258.898438 67.804688 259.078125 68.265625 259.078125 68.859375 C 259.078125 69.539062 258.8125 70.074219 258.273438 70.472656 C 257.738281 70.867188 257.003906 71.0625 256.066406 71.0625 C 255.675781 71.0625 255.269531 71.023438 254.84375 70.949219 C 254.421875 70.871094 253.972656 70.757812 253.507812 70.605469 L 253.507812 69.367188 C 253.949219 69.597656 254.386719 69.773438 254.816406 69.886719 C 255.242188 70 255.667969 70.058594 256.09375 70.058594 C 256.65625 70.058594 257.089844 69.960938 257.390625 69.769531 C 257.695312 69.574219 257.847656 69.304688 257.847656 68.953125 C 257.847656 68.628906 257.738281 68.378906 257.519531 68.203125 C 257.300781 68.03125 256.820312 67.863281 256.078125 67.703125 L 255.660156 67.605469 C 254.917969 67.449219 254.382812 67.210938 254.050781 66.886719 C 253.722656 66.5625 253.558594 66.117188 253.558594 65.554688 C 253.558594 64.867188 253.800781 64.339844 254.289062 63.964844 C 254.773438 63.59375 255.464844 63.40625 256.359375 63.40625 C 256.800781 63.40625 257.214844 63.4375 257.605469 63.503906 C 258 63.566406 258.359375 63.664062 258.6875 63.796875 Z M 258.6875 63.796875 "/>
<path style=" stroke:none;fill-rule:nonzero;fill:rgb(0%,0%,0%);fill-opacity:1;" d="M 260.988281 63.582031 L 262.183594 63.582031 L 262.183594 70.871094 L 260.988281 70.871094 Z M 260.988281 60.742188 L 262.183594 60.742188 L 262.183594 62.261719 L 260.988281 62.261719 Z M 260.988281 60.742188 "/>
<path style=" stroke:none;fill-rule:nonzero;fill:rgb(0%,0%,0%);fill-opacity:1;" d="M 264.171875 63.582031 L 269.859375 63.582031 L 269.859375 64.675781 L 265.355469 69.917969 L 269.859375 69.917969 L 269.859375 70.871094 L 264.007812 70.871094 L 264.007812 69.777344 L 268.515625 64.539062 L 264.171875 64.539062 Z M 264.171875 63.582031 "/>
<path style=" stroke:none;fill-rule:nonzero;fill:rgb(0%,0%,0%);fill-opacity:1;" d="M 277.925781 66.925781 L 277.925781 67.511719 L 272.417969 67.511719 C 272.472656 68.335938 272.71875 68.964844 273.164062 69.398438 C 273.609375 69.828125 274.226562 70.046875 275.023438 70.046875 C 275.484375 70.046875 275.929688 69.988281 276.359375 69.878906 C 276.792969 69.765625 277.222656 69.59375 277.648438 69.367188 L 277.648438 70.503906 C 277.21875 70.683594 276.777344 70.824219 276.324219 70.917969 C 275.875 71.015625 275.414062 71.0625 274.953125 71.0625 C 273.789062 71.0625 272.867188 70.722656 272.1875 70.046875 C 271.507812 69.371094 271.167969 68.453125 271.167969 67.296875 C 271.167969 66.105469 271.492188 65.160156 272.136719 64.457031 C 272.78125 63.757812 273.648438 63.40625 274.742188 63.40625 C 275.722656 63.40625 276.5 63.722656 277.070312 64.355469 C 277.640625 64.984375 277.925781 65.84375 277.925781 66.925781 Z M 276.730469 66.574219 C 276.722656 65.921875 276.539062 65.398438 276.179688 65.007812 C 275.820312 64.617188 275.347656 64.421875 274.757812 64.421875 C 274.089844 64.421875 273.554688 64.609375 273.152344 64.988281 C 272.75 65.367188 272.519531 65.898438 272.457031 66.582031 Z M 276.730469 66.574219 "/>
<path style=" stroke:none;fill-rule:nonzero;fill:rgb(0%,0%,0%);fill-opacity:1;" d="M 280.050781 64.820312 L 288.394531 64.820312 L 288.394531 65.914062 L 280.050781 65.914062 Z M 280.050781 67.476562 L 288.394531 67.476562 L 288.394531 68.582031 L 280.050781 68.582031 Z M 280.050781 67.476562 "/>
<path style=" stroke:none;fill-rule:nonzero;fill:rgb(0%,0%,0%);fill-opacity:1;" d="M 291.460938 69.765625 L 293.609375 69.765625 L 293.609375 62.351562 L 291.273438 62.820312 L 291.273438 61.621094 L 293.597656 61.152344 L 294.914062 61.152344 L 294.914062 69.765625 L 297.058594 69.765625 L 297.058594 70.871094 L 291.460938 70.871094 Z M 291.460938 69.765625 "/>
<path style=" stroke:none;fill-rule:nonzero;fill:rgb(0%,0%,0%);fill-opacity:1;" d="M 302.527344 62.019531 C 301.851562 62.019531 301.34375 62.351562 301 63.019531 C 300.660156 63.683594 300.492188 64.683594 300.492188 66.023438 C 300.492188 67.355469 300.660156 68.355469 301 69.019531 C 301.34375 69.6875 301.851562 70.019531 302.527344 70.019531 C 303.210938 70.019531 303.722656 69.6875 304.0625 69.019531 C 304.402344 68.355469 304.574219 67.355469 304.574219 66.023438 C 304.574219 64.683594 304.402344 63.683594 304.0625 63.019531 C 303.722656 62.351562 303.210938 62.019531 302.527344 62.019531 Z M 302.527344 60.976562 C 303.621094 60.976562 304.453125 61.410156 305.027344 62.269531 C 305.601562 63.132812 305.890625 64.382812 305.890625 66.023438 C 305.890625 67.660156 305.601562 68.910156 305.027344 69.769531 C 304.453125 70.632812 303.621094 71.0625 302.527344 71.0625 C 301.441406 71.0625 300.609375 70.632812 300.03125 69.769531 C 299.457031 68.910156 299.171875 67.660156 299.171875 66.023438 C 299.171875 64.382812 299.457031 63.132812 300.03125 62.269531 C 300.609375 61.410156 301.441406 60.976562 302.527344 60.976562 Z M 302.527344 60.976562 "/>
<path style=" stroke:none;fill-rule:nonzero;fill:rgb(0%,0%,0%);fill-opacity:1;" d="M 311.011719 62.019531 C 310.335938 62.019531 309.828125 62.351562 309.484375 63.019531 C 309.144531 63.683594 308.972656 64.683594 308.972656 66.023438 C 308.972656 67.355469 309.144531 68.355469 309.484375 69.019531 C 309.828125 69.6875 310.335938 70.019531 311.011719 70.019531 C 311.695312 70.019531 312.203125 69.6875 312.546875 69.019531 C 312.886719 68.355469 313.058594 67.355469 313.058594 66.023438 C 313.058594 64.683594 312.886719 63.683594 312.546875 63.019531 C 312.203125 62.351562 311.695312 62.019531 311.011719 62.019531 Z M 311.011719 60.976562 C 312.101562 60.976562 312.933594 61.410156 313.511719 62.269531 C 314.085938 63.132812 314.371094 64.382812 314.371094 66.023438 C 314.371094 67.660156 314.085938 68.910156 313.511719 69.769531 C 312.933594 70.632812 312.101562 71.0625 311.011719 71.0625 C 309.921875 71.0625 309.089844 70.632812 308.515625 69.769531 C 307.941406 68.910156 307.652344 67.660156 307.652344 66.023438 C 307.652344 64.382812 307.941406 63.132812 308.515625 62.269531 C 309.089844 61.410156 309.921875 60.976562 311.011719 60.976562 Z M 311.011719 60.976562 "/>
<path style="fill:none;stroke-width:1.5;stroke-linecap:butt;stroke-linejoin:round;stroke:rgb(100%,0%,0%);stroke-opacity:1;stroke-dasharray:1.5,2.475;stroke-miterlimit:4;" d="M 130.177734 64.333008 L 150.175781 64.333008 " transform="matrix(1.333333,0,0,1.333333,0,0.000000000000014211)"/>
<path style=" stroke:none;fill-rule:nonzero;fill:rgb(0%,0%,0%);fill-opacity:1;" d="M 217.394531 86.804688 C 217.394531 85.921875 217.210938 85.234375 216.851562 84.730469 C 216.488281 84.230469 215.988281 83.980469 215.355469 83.980469 C 214.722656 83.980469 214.222656 84.230469 213.859375 84.730469 C 213.496094 85.234375 213.316406 85.921875 213.316406 86.804688 C 213.316406 87.683594 213.496094 88.375 213.859375 88.878906 C 214.222656 89.378906 214.722656 89.628906 215.355469 89.628906 C 215.988281 89.628906 216.488281 89.378906 216.851562 88.878906 C 217.210938 88.375 217.394531 87.683594 217.394531 86.804688 Z M 213.316406 84.257812 C 213.570312 83.824219 213.886719 83.503906 214.269531 83.292969 C 214.65625 83.082031 215.113281 82.976562 215.648438 82.976562 C 216.535156 82.976562 217.253906 83.328125 217.804688 84.03125 C 218.359375 84.734375 218.636719 85.660156 218.636719 86.804688 C 218.636719 87.949219 218.359375 88.875 217.804688 89.578125 C 217.253906 90.28125 216.535156 90.632812 215.648438 90.632812 C 215.113281 90.632812 214.65625 90.527344 214.269531 90.316406 C 213.886719 90.105469 213.570312 89.785156 213.316406 89.351562 L 213.316406 90.445312 L 212.113281 90.445312 L 212.113281 80.3125 L 213.316406 80.3125 Z M 213.316406 84.257812 "/>
<path style=" stroke:none;fill-rule:nonzero;fill:rgb(0%,0%,0%);fill-opacity:1;" d="M 223.9375 86.777344 C 222.96875 86.777344 222.296875 86.890625 221.925781 87.109375 C 221.550781 87.332031 221.363281 87.710938 221.363281 88.242188 C 221.363281 88.667969 221.503906 89.007812 221.785156 89.257812 C 222.066406 89.503906 222.445312 89.628906 222.925781 89.628906 C 223.589844 89.628906 224.125 89.394531 224.527344 88.921875 C 224.925781 88.453125 225.128906 87.828125 225.128906 87.046875 L 225.128906 86.777344 Z M 226.324219 86.285156 L 226.324219 90.445312 L 225.128906 90.445312 L 225.128906 89.335938 C 224.855469 89.777344 224.511719 90.105469 224.105469 90.316406 C 223.695312 90.527344 223.199219 90.632812 222.605469 90.632812 C 221.863281 90.632812 221.269531 90.421875 220.824219 90.003906 C 220.386719 89.585938 220.164062 89.023438 220.164062 88.320312 C 220.164062 87.5 220.441406 86.882812 220.988281 86.464844 C 221.539062 86.050781 222.359375 85.839844 223.445312 85.839844 L 225.128906 85.839844 L 225.128906 85.722656 C 225.128906 85.171875 224.945312 84.746094 224.585938 84.445312 C 224.222656 84.140625 223.710938 83.992188 223.058594 83.992188 C 222.640625 83.992188 222.234375 84.042969 221.839844 84.140625 C 221.445312 84.242188 221.066406 84.390625 220.699219 84.589844 L 220.699219 83.484375 C 221.136719 83.3125 221.5625 83.1875 221.976562 83.105469 C 222.386719 83.019531 222.789062 82.976562 223.179688 82.976562 C 224.234375 82.976562 225.023438 83.25 225.542969 83.796875 C 226.066406 84.34375 226.324219 85.171875 226.324219 86.285156 Z M 226.324219 86.285156 "/>
<path style=" stroke:none;fill-rule:nonzero;fill:rgb(0%,0%,0%);fill-opacity:1;" d="M 229.976562 81.082031 L 229.976562 83.152344 L 232.445312 83.152344 L 232.445312 84.082031 L 229.976562 84.082031 L 229.976562 88.042969 C 229.976562 88.636719 230.058594 89.019531 230.222656 89.1875 C 230.382812 89.355469 230.714844 89.441406 231.214844 89.441406 L 232.445312 89.441406 L 232.445312 90.445312 L 231.214844 90.445312 C 230.289062 90.445312 229.652344 90.273438 229.300781 89.925781 C 228.949219 89.582031 228.773438 88.953125 228.773438 88.042969 L 228.773438 84.082031 L 227.894531 84.082031 L 227.894531 83.152344 L 228.773438 83.152344 L 228.773438 81.082031 Z M 229.976562 81.082031 "/>
<path style=" stroke:none;fill-rule:nonzero;fill:rgb(0%,0%,0%);fill-opacity:1;" d="M 239.269531 83.429688 L 239.269531 84.550781 C 238.929688 84.363281 238.589844 84.222656 238.25 84.132812 C 237.910156 84.039062 237.566406 83.992188 237.21875 83.992188 C 236.441406 83.992188 235.835938 84.238281 235.40625 84.730469 C 234.976562 85.222656 234.761719 85.914062 234.761719 86.804688 C 234.761719 87.695312 234.976562 88.386719 235.40625 88.878906 C 235.835938 89.371094 236.441406 89.617188 237.21875 89.617188 C 237.566406 89.617188 237.910156 89.570312 238.25 89.476562 C 238.589844 89.382812 238.929688 89.242188 239.269531 89.054688 L 239.269531 90.164062 C 238.933594 90.320312 238.585938 90.4375 238.230469 90.515625 C 237.871094 90.59375 237.492188 90.632812 237.085938 90.632812 C 235.988281 90.632812 235.117188 90.289062 234.46875 89.597656 C 233.824219 88.90625 233.5 87.976562 233.5 86.804688 C 233.5 85.617188 233.824219 84.679688 234.480469 84 C 235.132812 83.316406 236.027344 82.976562 237.167969 82.976562 C 237.535156 82.976562 237.894531 83.015625 238.246094 83.089844 C 238.597656 83.167969 238.9375 83.28125 239.269531 83.429688 Z M 239.269531 83.429688 "/>
<path style=" stroke:none;fill-rule:nonzero;fill:rgb(0%,0%,0%);fill-opacity:1;" d="M 247.414062 86.042969 L 247.414062 90.445312 L 246.214844 90.445312 L 246.214844 86.082031 C 246.214844 85.390625 246.082031 84.875 245.8125 84.535156 C 245.542969 84.191406 245.136719 84.019531 244.601562 84.019531 C 243.953125 84.019531 243.445312 84.226562 243.070312 84.636719 C 242.695312 85.046875 242.507812 85.609375 242.507812 86.324219 L 242.507812 90.445312 L 241.304688 90.445312 L 241.304688 80.3125 L 242.507812 80.3125 L 242.507812 84.285156 C 242.796875 83.847656 243.132812 83.519531 243.523438 83.300781 C 243.910156 83.085938 244.359375 82.976562 244.867188 82.976562 C 245.707031 82.976562 246.339844 83.234375 246.769531 83.753906 C 247.199219 84.273438 247.414062 85.035156 247.414062 86.042969 Z M 247.414062 86.042969 "/>
<path style=" stroke:none;fill-rule:nonzero;fill:rgb(0%,0%,0%);fill-opacity:1;" d="M 258.6875 83.367188 L 258.6875 84.5 C 258.351562 84.328125 258 84.195312 257.632812 84.109375 C 257.269531 84.023438 256.890625 83.980469 256.5 83.980469 C 255.90625 83.980469 255.460938 84.070312 255.164062 84.253906 C 254.867188 84.433594 254.71875 84.707031 254.71875 85.074219 C 254.71875 85.351562 254.824219 85.570312 255.035156 85.726562 C 255.25 85.886719 255.675781 86.035156 256.320312 86.179688 L 256.730469 86.269531 C 257.578125 86.453125 258.183594 86.710938 258.542969 87.042969 C 258.898438 87.375 259.078125 87.835938 259.078125 88.429688 C 259.078125 89.109375 258.8125 89.644531 258.273438 90.042969 C 257.738281 90.4375 257.003906 90.632812 256.066406 90.632812 C 255.675781 90.632812 255.269531 90.59375 254.84375 90.519531 C 254.421875 90.441406 253.972656 90.328125 253.507812 90.175781 L 253.507812 88.941406 C 253.949219 89.171875 254.386719 89.34375 254.816406 89.457031 C 255.242188 89.570312 255.667969 89.628906 256.09375 89.628906 C 256.65625 89.628906 257.089844 89.53125 257.390625 89.339844 C 257.695312 89.148438 257.847656 88.875 257.847656 88.523438 C 257.847656 88.199219 257.738281 87.949219 257.519531 87.773438 C 257.300781 87.601562 256.820312 87.433594 256.078125 87.273438 L 255.660156 87.175781 C 254.917969 87.019531 254.382812 86.78125 254.050781 86.457031 C 253.722656 86.132812 253.558594 85.6875 253.558594 85.125 C 253.558594 84.4375 253.800781 83.910156 254.289062 83.539062 C 254.773438 83.164062 255.464844 82.976562 256.359375 82.976562 C 256.800781 82.976562 257.214844 83.007812 257.605469 83.074219 C 258 83.140625 258.359375 83.234375 258.6875 83.367188 Z M 258.6875 83.367188 "/>
<path style=" stroke:none;fill-rule:nonzero;fill:rgb(0%,0%,0%);fill-opacity:1;" d="M 260.988281 83.152344 L 262.183594 83.152344 L 262.183594 90.445312 L 260.988281 90.445312 Z M 260.988281 80.3125 L 262.183594 80.3125 L 262.183594 81.832031 L 260.988281 81.832031 Z M 260.988281 80.3125 "/>
<path style=" stroke:none;fill-rule:nonzero;fill:rgb(0%,0%,0%);fill-opacity:1;" d="M 264.171875 83.152344 L 269.859375 83.152344 L 269.859375 84.246094 L 265.355469 89.488281 L 269.859375 89.488281 L 269.859375 90.445312 L 264.007812 90.445312 L 264.007812 89.351562 L 268.515625 84.109375 L 264.171875 84.109375 Z M 264.171875 83.152344 "/>
<path style=" stroke:none;fill-rule:nonzero;fill:rgb(0%,0%,0%);fill-opacity:1;" d="M 277.925781 86.496094 L 277.925781 87.082031 L 272.417969 87.082031 C 272.472656 87.910156 272.71875 88.535156 273.164062 88.96875 C 273.609375 89.402344 274.226562 89.617188 275.023438 89.617188 C 275.484375 89.617188 275.929688 89.558594 276.359375 89.449219 C 276.792969 89.335938 277.222656 89.164062 277.648438 88.941406 L 277.648438 90.074219 C 277.21875 90.253906 276.777344 90.394531 276.324219 90.488281 C 275.875 90.585938 275.414062 90.632812 274.953125 90.632812 C 273.789062 90.632812 272.867188 90.296875 272.1875 89.617188 C 271.507812 88.941406 271.167969 88.023438 271.167969 86.867188 C 271.167969 85.675781 271.492188 84.730469 272.136719 84.027344 C 272.78125 83.328125 273.648438 82.976562 274.742188 82.976562 C 275.722656 82.976562 276.5 83.292969 277.070312 83.925781 C 277.640625 84.554688 277.925781 85.414062 277.925781 86.496094 Z M 276.730469 86.144531 C 276.722656 85.492188 276.539062 84.96875 276.179688 84.578125 C 275.820312 84.1875 275.347656 83.992188 274.757812 83.992188 C 274.089844 83.992188 273.554688 84.179688 273.152344 84.558594 C 272.75 84.9375 272.519531 85.46875 272.457031 86.152344 Z M 276.730469 86.144531 "/>
<path style=" stroke:none;fill-rule:nonzero;fill:rgb(0%,0%,0%);fill-opacity:1;" d="M 280.050781 84.390625 L 288.394531 84.390625 L 288.394531 85.484375 L 280.050781 85.484375 Z M 280.050781 87.046875 L 288.394531 87.046875 L 288.394531 88.152344 L 280.050781 88.152344 Z M 280.050781 87.046875 "/>
<path style=" stroke:none;fill-rule:nonzero;fill:rgb(0%,0%,0%);fill-opacity:1;" d="M 291.460938 89.335938 L 293.609375 89.335938 L 293.609375 81.921875 L 291.273438 82.390625 L 291.273438 81.191406 L 293.597656 80.722656 L 294.914062 80.722656 L 294.914062 89.335938 L 297.058594 89.335938 L 297.058594 90.445312 L 291.460938 90.445312 Z M 291.460938 89.335938 "/>
<path style=" stroke:none;fill-rule:nonzero;fill:rgb(0%,0%,0%);fill-opacity:1;" d="M 302.527344 81.589844 C 301.851562 81.589844 301.34375 81.921875 301 82.589844 C 300.660156 83.253906 300.492188 84.257812 300.492188 85.59375 C 300.492188 86.925781 300.660156 87.925781 301 88.589844 C 301.34375 89.257812 301.851562 89.589844 302.527344 89.589844 C 303.210938 89.589844 303.722656 89.257812 304.0625 88.589844 C 304.402344 87.925781 304.574219 86.925781 304.574219 85.59375 C 304.574219 84.257812 304.402344 83.253906 304.0625 82.589844 C 303.722656 81.921875 303.210938 81.589844 302.527344 81.589844 Z M 302.527344 80.546875 C 303.621094 80.546875 304.453125 80.980469 305.027344 81.839844 C 305.601562 82.703125 305.890625 83.953125 305.890625 85.59375 C 305.890625 87.230469 305.601562 88.480469 305.027344 89.339844 C 304.453125 90.203125 303.621094 90.632812 302.527344 90.632812 C 301.441406 90.632812 300.609375 90.203125 300.03125 89.339844 C 299.457031 88.480469 299.171875 87.230469 299.171875 85.59375 C 299.171875 83.953125 299.457031 82.703125 300.03125 81.839844 C 300.609375 80.980469 301.441406 80.546875 302.527344 80.546875 Z M 302.527344 80.546875 "/>
</g>
</svg>
